<svg id="instant_deposit" xmlns="http://www.w3.org/2000/svg" width="281.883" height="227.27" viewBox="0 0 281.883 227.27">
  <path id="Path_198" data-name="Path 198" d="M553.979,669.932a13.248,13.248,0,0,0-7.9-5.474,38.5,38.5,0,0,0-8.807-.518l-37.179.287c-3.184.025-6.237,2.783-6.089,6.089a6.191,6.191,0,0,0,6.089,6.089l32.673-.252c2.568-.02,5.137-.066,7.7-.058.577,0,1.151.032,1.727.039.14,0,.24,0,.311,0l.056.017c.3.083.609.139.911.218-.106,0,.2.192.348.255.021.041.065.114.139.227.1.194.41.784.423.765a27.312,27.312,0,0,1,1.137,3.575,20.021,20.021,0,0,1,.965,5.759c.129,3.179,2.709,6.241,6.089,6.089,3.189-.143,6.227-2.68,6.089-6.089C558.427,681.2,557.419,674.749,553.979,669.932Z" transform="translate(-393.395 -468.872)" fill="#e6e6e6"/>
  <path id="Path_199" data-name="Path 199" d="M446.542,542.136c-.7-4.232-1.383-8.466-2.1-12.7-.722-4.291-2.2-8.22-5.537-11.036-.892-.752-1.817-1.455-2.746-2.155-.327-.246-.653-.493-.976-.744l-.048-.038-.135-.115c-1.392-1.178-2.736-2.408-4.017-3.716q-1.706-1.742-3.263-3.633-.389-.472-.768-.953l-.432-.555c-.143-.2-.406-.554-.45-.617q-.443-.626-.87-1.264a59.422,59.422,0,0,1-5.019-9.178q-.208-.476-.407-.958l-.142-.391c-.282-.776-.564-1.551-.822-2.335q-.822-2.5-1.413-5.075-.292-1.271-.526-2.556-.121-.66-.226-1.324c-.012-.073-.08-.55-.12-.82s-.085-.75-.093-.824q-.067-.668-.119-1.338-.117-1.507-.158-3.019-.07-2.687.1-5.374c.063-1.006.153-2.01.264-3.012l.017-.155c.007-.045.014-.1.024-.159.082-.554.168-1.107.265-1.658a60.622,60.622,0,0,1,1.423-6.208q.414-1.449.9-2.875.216-.633.446-1.261c-.01.027.45-1.148.456-1.187,1.825-4.312,4.81-8.242,4.814-13.14,0-3.316-2.8-6.493-6.089-6.339a6.327,6.327,0,0,0-6.089,6.339c0,.074,0,.138,0,.2l-.079.266c-.356.773-.792,1.508-1.182,2.262-1.07,2.064-1.983,4.2-2.85,6.359a60.827,60.827,0,0,0-3.246,10.9,69.3,69.3,0,0,0-.368,24.753,63.875,63.875,0,0,0,20.971,37.426c.939.8,1.9,1.58,2.873,2.341.4.315.807.624,1.215.931.193.145.99.774.639.469a3.88,3.88,0,0,1,1.266,1.442l.118.461c.137.535.266,1.068.374,1.611.942,4.739,1.6,9.557,2.384,14.326.541,3.277,4.575,5.41,7.491,4.428C445.682,548.791,447.122,545.647,446.542,542.136Z" transform="translate(-337.665 -327.334)" fill="#e6e6e6"/>
  <path id="Path_200" data-name="Path 200" d="M489.937,499.194a9.657,9.657,0,0,1-9.682-9.609v-6.946c-7.272.814-32.175.626-39.313-.521v7.19a9.682,9.682,0,1,1-19.364,0V475.19a62.11,62.11,0,0,1,25.606-116.112c1.685-.132,3.38-.2,5.038-.2,5.843,0,32.2.9,38.818,2.805l15.082-14.965a1.583,1.583,0,0,1,1.732-.345,1.561,1.561,0,0,1,.984,1.464v2.379l2.937-2.908a1.579,1.579,0,0,1,1.73-.346,1.561,1.561,0,0,1,.985,1.465v26.589a61.942,61.942,0,0,1-14.869,101.943v12.623A9.657,9.657,0,0,1,489.937,499.194Zm-8.921-17.419v7.809a8.921,8.921,0,1,0,17.842,0v-13.1l.217-.1a61.826,61.826,0,0,0,25.32-22.142,61.016,61.016,0,0,0-10.542-78.764l-.126-.114V348.429a.8.8,0,0,0-.511-.759.818.818,0,0,0-.906.18l-4.235,4.194v-4.2a.8.8,0,0,0-.511-.76.82.82,0,0,0-.908.181l-15.4,15.285-.219-.069c-6.149-1.924-32.925-2.837-38.812-2.837-1.639,0-3.314.066-4.978.2a61.682,61.682,0,0,0-33.581,13.224,61.076,61.076,0,0,0,8.48,101.572l.2.109v14.564a8.921,8.921,0,1,0,17.842,0v-8.1l.451.085c6.415,1.207,33.427,1.4,39.955.541Z" transform="translate(-328.738 -272.102)" fill="#3f3d56"/>
  <path id="Path_201" data-name="Path 201" d="M442.938,270.357l-42.145,12.666a5.283,5.283,0,1,0,3.041,10.12l36.881-11.086.773-.232a25.7,25.7,0,0,1,3.155-11.364,2.347,2.347,0,0,0-.761-.2,2.423,2.423,0,0,0-.944.1Z" transform="translate(-333.333 -225.024)" fill="#6c63ff"/>
  <path id="Path_202" data-name="Path 202" d="M404.373,297.374a2.669,2.669,0,0,1-2.526-1.827l-2.635-7.952a2.664,2.664,0,0,1,1.691-3.367l34.3-11.368a2.664,2.664,0,0,1,3.367,1.69l2.635,7.953a2.655,2.655,0,0,1-1.6,3.334l-.1.034-34.3,11.367a2.665,2.665,0,0,1-.841.137Z" transform="translate(-334.601 -226.556)" fill="#2f2e41"/>
  <path id="Path_203" data-name="Path 203" d="M538.43,233.42A26.652,26.652,0,0,0,511.8,259.242c-.008.27-.011.544-.011.818a26.64,26.64,0,1,0,26.64-26.64Zm0,52.519a25.906,25.906,0,0,1-25.879-25.879q0-.531.023-1.05a25.878,25.878,0,1,1,25.856,26.93Z" transform="translate(-404.419 -202.21)" fill="#3f3d56"/>
  <path id="Path_204" data-name="Path 204" d="M567.7,266.873a22.454,22.454,0,0,1-44.908,0c0-.712.034-1.412.1-2.1a22.454,22.454,0,0,1,44.809,2.1Z" transform="translate(-411.233 -209.023)" fill="#e6e6e6"/>
  <path id="Path_205" data-name="Path 205" d="M576.212,283.275a5.347,5.347,0,0,0-2.082-1.648A20.23,20.23,0,0,0,571,280.6v-6.112a8.9,8.9,0,0,1,4.449,2.028l1.241-2.645a8.2,8.2,0,0,0-2.421-1.5,11.9,11.9,0,0,0-3.071-.788v-3.1h-2.873v3.128a7.867,7.867,0,0,0-3.14,1.054,6.241,6.241,0,0,0-2.128,2.086,5.241,5.241,0,0,0-.757,2.774,4.743,4.743,0,0,0,.872,2.968,5.522,5.522,0,0,0,2.169,1.72,20.054,20.054,0,0,0,3.182,1.054v5.857a9.51,9.51,0,0,1-5.294-2.112l-1.241,2.649a9.355,9.355,0,0,0,2.831,1.606,13,13,0,0,0,3.505.731v3.071H571.2v-3.128a7.436,7.436,0,0,0,4.266-1.956,5.172,5.172,0,0,0,1.591-3.844A4.588,4.588,0,0,0,576.212,283.275Zm-7.687-3.322a5.518,5.518,0,0,1-1.914-1.028,2.025,2.025,0,0,1-.677-1.591,2.56,2.56,0,0,1,.693-1.831,3.5,3.5,0,0,1,1.9-.986Zm4.281,8.1a3.256,3.256,0,0,1-1.8.94v-5.039a5.038,5.038,0,0,1,1.8.9,1.773,1.773,0,0,1,.62,1.408,2.589,2.589,0,0,1-.62,1.789Z" transform="translate(-435.514 -223.933)" fill="#6c63ff"/>
  <path id="Path_206" data-name="Path 206" d="M409.533,385.207a2.673,2.673,0,0,1-2.578-1.985l-1.435-5.431a2.666,2.666,0,0,1,1.893-3.254l45.266-11.961a2.67,2.67,0,0,1,3.254,1.9l1.216,4.6-.228.018a60.954,60.954,0,0,0-32.009,12.129l-.066.032-14.637,3.867A2.65,2.65,0,0,1,409.533,385.207Z" transform="translate(-338.538 -282.158)" fill="#2f2e41"/>
  <path id="Path_207" data-name="Path 207" d="M350.981,440.915a37.338,37.338,0,0,1-14.889-5.63,36.356,36.356,0,0,1-6.155-5.035,18.885,18.885,0,0,1-4.505-6.5,9.628,9.628,0,0,1,.126-7.143,9.261,9.261,0,0,1,5.012-5,9.561,9.561,0,0,1,7.252-.011,6.5,6.5,0,0,1,2.65,2.133,4.351,4.351,0,0,1,.689,1.43,2.92,2.92,0,0,1,.034,1.431,3.431,3.431,0,0,1-1.817,2.178,9.16,9.16,0,0,1-3.1.946c-1.089.148-2.652.283-3.527-.59a1.778,1.778,0,0,1-.416-.613,1.185,1.185,0,0,1-.066-.555c-.013.083.053-.18.049-.169-.014.039-.074.133.011-.012a1.3,1.3,0,0,1,.089-.138c-.029.037-.092.1.021-.007a.746.746,0,0,1,.348-.215c.053-.015.106-.028.159-.042.134-.037-.134,0,0,0,.053,0,.107,0,.159,0,.135-.006-.133-.037,0,0,.05.013.1.025.149.04.107.034-.076-.079,0,.005s-.09-.1.007,0a1.766,1.766,0,0,1,.136.15.9.9,0,0,0,1.262,0,.913.913,0,0,0,0-1.262,2.417,2.417,0,0,0-3.507.1,2.9,2.9,0,0,0,.418,4.064,5.616,5.616,0,0,0,4.627,1.047,11.348,11.348,0,0,0,3.908-1.1,5.48,5.48,0,0,0,2.673-2.888,5.014,5.014,0,0,0-.4-4.1,8.843,8.843,0,0,0-7.263-4.273,11.346,11.346,0,0,0-8.3,2.726,11.476,11.476,0,0,0-3.763,7.64,13.085,13.085,0,0,0,2.648,8.454,32.207,32.207,0,0,0,6.386,6.6,39,39,0,0,0,16.293,7.684q1.063.219,2.137.376a.922.922,0,0,0,1.1-.623.9.9,0,0,0-.623-1.1Z" transform="translate(-287.483 -311.041)" fill="#3f3d56"/>
  <path id="Path_208" data-name="Path 208" d="M574.006,390.746q-11.67-.165-23.266.592c-2.642.173-4.929,1.106-4.929,2.676,0,1.312,2.268,2.85,4.929,2.676q11.59-.757,23.266-.592C580.351,396.188,580.348,390.836,574.006,390.746Z" transform="translate(-425.493 -299.643)" fill="#ccc"/>
  <path id="Path_209" data-name="Path 209" d="M556.168,395.179c-.841,0-20.591-.031-20.591-2.76s19.751-2.759,20.591-2.759,20.591.031,20.591,2.759S557.008,395.179,556.168,395.179Zm-19.819-2.76c.54.827,7.8,2,19.819,2s19.278-1.171,19.819-2c-.54-.827-7.8-2-19.819-2s-19.279,1.171-19.819,2Z" transform="translate(-419.153 -298.989)" fill="#3f3d56"/>
  <path id="Path_210" data-name="Path 210" d="M754.216,519.325c4.372-.121,9.813-.273,14.005-3.335a10.756,10.756,0,0,0,4.232-8.031,7.235,7.235,0,0,0-2.46-5.942c-2.189-1.85-5.387-2.284-8.832-1.272l3.57-26.088-2.621-.359-4.2,30.669,2.188-1c2.537-1.164,6.02-1.756,8.184.073a4.649,4.649,0,0,1,1.524,3.829,8.129,8.129,0,0,1-3.149,5.988c-3.262,2.383-7.6,2.69-12.519,2.828Z" transform="translate(-554.538 -351.416)" fill="#3f3d56"/>
  <rect id="Rectangle_177" data-name="Rectangle 177" width="14.246" height="2.645" transform="translate(178.187 125.491)" fill="#3f3d56"/>
  <path id="Path_211" data-name="Path 211" d="M427.4,424.65a2.669,2.669,0,0,1-2.627-2.252l-.87-5.549a2.667,2.667,0,0,1,2.22-3.044l46.252-7.247a2.667,2.667,0,0,1,3.044,2.22l.87,5.55a2.667,2.667,0,0,1-2.219,3.044l-46.252,7.247a2.7,2.7,0,0,1-.416.033Z" transform="translate(-349.962 -309.435)" fill="#2f2e41"/>
  <circle id="Ellipse_4" data-name="Ellipse 4" cx="19.409" cy="19.409" r="19.409" transform="translate(38.891 11.362)" fill="#6c63ff"/>
  <path id="Path_212" data-name="Path 212" d="M407.96,224.909a4.6,4.6,0,0,0,1.662-1.018,3.1,3.1,0,0,0,.858-2.467,2.082,2.082,0,0,0-.956-1.585,2.693,2.693,0,0,0-2.568.019l-.108-7.576-.761.011.127,8.907.579-.38a2.306,2.306,0,0,1,2.332-.332,1.337,1.337,0,0,1,.6,1.024,2.339,2.339,0,0,1-.638,1.84,6.292,6.292,0,0,1-3.44,1.344l.135.749A12.544,12.544,0,0,0,407.96,224.909Z" transform="translate(-338.671 -189.116)" fill="#2f2e41"/>
  <rect id="Rectangle_178" data-name="Rectangle 178" width="4.099" height="0.761" transform="matrix(0.989, -0.15, 0.15, 0.989, 71.963, 23.247)" fill="#2f2e41"/>
  <rect id="Rectangle_179" data-name="Rectangle 179" width="4.099" height="0.761" transform="matrix(0.989, -0.15, 0.15, 0.989, 59.169, 25.184)" fill="#2f2e41"/>
  <path id="Path_213" data-name="Path 213" d="M387.732,347.29a3.437,3.437,0,0,1-3.21-2.228l-13.382-35.838a17.709,17.709,0,0,1,10.384-22.759L392.4,282.4a3.409,3.409,0,0,1,2.618.091,3.361,3.361,0,0,1,1.779,1.9l24.789,46.8a3.426,3.426,0,0,1-2,4.429l-30.662,11.45A3.416,3.416,0,0,1,387.732,347.29Z" transform="translate(-316.605 -232.415)" fill="#2f2e41"/>
  <path id="Path_214" data-name="Path 214" d="M420.158,283.254l24.6,32.891L428.111,283.6a3.075,3.075,0,0,0-3.939-1.844Z" transform="translate(-347.66 -232.036)" fill="#e6e6e6"/>
  <path id="Path_215" data-name="Path 215" d="M442.966,329.849,399.05,327.02a5.282,5.282,0,0,1,.679-10.543l43.916,2.829a2.474,2.474,0,0,1,2.31,2.628l-.361,5.606a2.474,2.474,0,0,1-2.628,2.31Z" transform="translate(-331.524 -253.651)" fill="#6c63ff"/>
  <path id="Path_216" data-name="Path 216" d="M428.619,328.359q-.087,0-.174-.006h0l-36.062-2.323a2.664,2.664,0,0,1-2.487-2.83l.617-9.575a2.664,2.664,0,0,1,2.83-2.487l36.062,2.323a2.667,2.667,0,0,1,2.487,2.83l-.617,9.575a2.671,2.671,0,0,1-1.73,2.326A2.637,2.637,0,0,1,428.619,328.359Z" transform="translate(-328.911 -250.348)" fill="#2f2e41"/>
  <path id="Path_217" data-name="Path 217" d="M345.547,169.277c2.553-2.2,6.06-.232,8.988-.575a6.94,6.94,0,0,0,5.579-5.512c.659-3.115-.957-6.235-3.34-8.177a12.368,12.368,0,0,0-9.351-2.344,23.383,23.383,0,0,0-10.282,4.323,46.372,46.372,0,0,0-8.16,6.915,17.841,17.841,0,0,0-4.635,8.551,11.732,11.732,0,0,0,1.62,8.736,9.212,9.212,0,0,0,3.606,2.97c1.5.736,3.1,1.262,4.549,2.094,2.2,1.258,4.328,3.866,3.641,6.581a3.727,3.727,0,0,1-.847,1.595c-.491.545-1.377-.175-.885-.722a3.142,3.142,0,0,0,.37-3.387,6.193,6.193,0,0,0-2.753-3.027c-1.52-.869-3.2-1.405-4.755-2.2a10.284,10.284,0,0,1-3.772-3.126,12.719,12.719,0,0,1-2-9.081,17.989,17.989,0,0,1,4.365-9.012,44.942,44.942,0,0,1,8.24-7.292,26.53,26.53,0,0,1,10.6-4.91,14.213,14.213,0,0,1,9.987,1.607,10.5,10.5,0,0,1,5.079,7.972,8.462,8.462,0,0,1-3.949,7.589,7.269,7.269,0,0,1-4.342,1.006,33.164,33.164,0,0,0-4.878-.463,3.4,3.4,0,0,0-2,.81c-.558.48-1.223-.449-.669-.925Z" transform="translate(-287.47 -151.412)" fill="#2f2e41"/>
  <path id="Path_218" data-name="Path 218" d="M511.092,747.113H230.115a.453.453,0,1,1,0-.906H511.092a.453.453,0,0,1,0,.906Z" transform="translate(-229.662 -519.843)" fill="#3f3d56"/>
</svg>
