<svg id="instant_withdrawal" xmlns="http://www.w3.org/2000/svg" xmlns:xlink="http://www.w3.org/1999/xlink" width="321.715" height="208" viewBox="0 0 321.715 208">
  <defs>
    <linearGradient id="linear-gradient" x1="0.5" y1="1" x2="0.5" gradientUnits="objectBoundingBox">
      <stop offset="0" stop-color="gray" stop-opacity="0.251"/>
      <stop offset="0.54" stop-color="gray" stop-opacity="0.122"/>
      <stop offset="1" stop-color="gray" stop-opacity="0.102"/>
    </linearGradient>
  </defs>
  <rect id="Rectangle_181" data-name="Rectangle 181" width="321.715" height="2.351" transform="translate(0 205.649)" fill="#85848b"/>
  <path id="Path_219" data-name="Path 219" d="M813.42,650.742c0,1.808-10.541,7.081-23.062,7.081s-22.278-5.272-22.278-7.081,10.149-1.226,22.682-1.226S813.42,648.93,813.42,650.742Z" transform="translate(-558.538 -486.605)" fill="#504f60"/>
  <path id="Path_220" data-name="Path 220" d="M813.42,653.72c0,1.808-10.541,7.081-23.062,7.081s-22.278-5.272-22.278-7.081" transform="translate(-558.538 -489.583)" opacity="0.2"/>
  <path id="Path_221" data-name="Path 221" d="M502.633,534.589a13.993,13.993,0,0,0,6.087-.205c.307-.095.644-.306.613-.613a.742.742,0,0,0-.138-.307,18.928,18.928,0,0,1-1.839-3.5.306.306,0,0,0-.113-.159.287.287,0,0,0-.2,0c-.9.236-1.674.815-2.566,1.064a3.647,3.647,0,0,1-1.4.1c-.4-.046-.956-.38-1.324-.337C501.968,531.971,502.477,533.222,502.633,534.589Z" transform="translate(-373.85 -403.635)" fill="#6c63ff"/>
  <path id="Path_222" data-name="Path 222" d="M624.951,518.662a10.635,10.635,0,0,0,3.519-3.3.573.573,0,0,0,.1-.285.589.589,0,0,0-.113-.276,11.391,11.391,0,0,0-2.86-3.087A8.337,8.337,0,0,0,624,513.181c-.337.356-1.269.92-1.278,1.462,0,.307.356.662.521.92.224.331.435.668.638,1.012A12,12,0,0,1,624.951,518.662Z" transform="translate(-457.734 -391.101)" fill="#6c63ff"/>
  <path id="Path_223" data-name="Path 223" d="M483.612,543.643a1.364,1.364,0,0,1-.245.889,1.2,1.2,0,0,1-.515.306c-2.841,1.018-6.13-.251-8.966.751-.582.205-1.134.5-1.72.7a9.355,9.355,0,0,1-2.146.38c-1,.1-2.011.156-3.016.184a7.254,7.254,0,0,1-2.274-.2,2.731,2.731,0,0,1-1.744-1.382,1.327,1.327,0,0,1-.086-.984,1.061,1.061,0,0,1,.187-.307,2.69,2.69,0,0,1,.668-.543l1.045-.674a7.016,7.016,0,0,1,1.585-.84c.414-.135.852-.193,1.272-.306a8.634,8.634,0,0,0,3.632-2.713l1.422-1.517a1.431,1.431,0,0,1,.493-.4,1.368,1.368,0,0,1,.613-.058,8.2,8.2,0,0,1,3.877,1.3,5.03,5.03,0,0,0,.956.564,3.415,3.415,0,0,0,2.673-.331c.365-.2.285-.307.438-.656s.527-.573.852-.254a.9.9,0,0,1,.2.386,10.871,10.871,0,0,1,.19,3.16,1.392,1.392,0,0,0,.061.49,2.769,2.769,0,0,0,.279.454,1.042,1.042,0,0,1,.058.117,3.118,3.118,0,0,1,.205,1.48Z" transform="translate(-346.862 -408.585)" fill="#514e7f"/>
  <path id="Path_224" data-name="Path 224" d="M483.612,555.48a1.364,1.364,0,0,1-.245.889,1.2,1.2,0,0,1-.515.307c-2.841,1.018-6.13-.251-8.966.751-.582.205-1.134.5-1.72.7a9.358,9.358,0,0,1-2.146.38c-1,.1-2.011.156-3.016.184a7.254,7.254,0,0,1-2.274-.2,2.731,2.731,0,0,1-1.744-1.382,1.327,1.327,0,0,1-.086-.984,1.061,1.061,0,0,1,.187-.307c.166.346.285.806.389.972a1.989,1.989,0,0,0,1.33.959,3.305,3.305,0,0,0,1.226-.156c2.575-.638,5.312-.647,7.786-1.612a18,18,0,0,1,2.55-.981,20.042,20.042,0,0,1,2.759-.224c1.453-.117,2.86-.555,4.291-.785a3.118,3.118,0,0,1,.193,1.49Z" transform="translate(-346.862 -420.422)" fill="#464353"/>
  <path id="Path_225" data-name="Path 225" d="M614.816,522.676a5.166,5.166,0,0,1-1.569,2.8,18.273,18.273,0,0,0-2.2,2.4c-.736,1.125-1.067,2.52-2.023,3.47a5.553,5.553,0,0,1-1.226.874,8.554,8.554,0,0,1-1.579.726,11.777,11.777,0,0,1-4.46.242,4.01,4.01,0,0,1-1.416-.273,4.258,4.258,0,0,1-.589-.362,2.811,2.811,0,0,1-.919-.92.919.919,0,0,1-.089-.668,1.569,1.569,0,0,1,.426-.65,10.125,10.125,0,0,1,1.079-.972,6.46,6.46,0,0,0,1.4-1.226,3.962,3.962,0,0,0,.542-1.226,10.875,10.875,0,0,0,.4-2.345,7.435,7.435,0,0,1,.162-1.569c.227-.809.828-1.533.76-2.369a.592.592,0,0,1,.031-.359.5.5,0,0,1,.282-.175,5,5,0,0,1,1.465-.34,1.707,1.707,0,0,1,1.361.533c.208.251.346.613.653.711a1.035,1.035,0,0,0,.466.018,3.9,3.9,0,0,0,2.146-.659,2.676,2.676,0,0,0,.889-1.953c0-.279-.126-.57.306-.613.325-.043.582.307.748.521A7.263,7.263,0,0,1,613.3,520.9a.77.77,0,0,1,.273-.052,1.186,1.186,0,0,1,.978.5A1.946,1.946,0,0,1,614.816,522.676Z" transform="translate(-441.091 -395.303)" fill="#514e7f"/>
  <path id="Path_226" data-name="Path 226" d="M615.079,529.55a5.166,5.166,0,0,1-1.569,2.8,18.277,18.277,0,0,0-2.2,2.4c-.736,1.125-1.067,2.52-2.023,3.47a5.547,5.547,0,0,1-1.226.874,8.556,8.556,0,0,1-1.579.726,11.777,11.777,0,0,1-4.46.242,4.01,4.01,0,0,1-1.416-.273,4.266,4.266,0,0,1-.589-.362,2.811,2.811,0,0,1-.92-.92,2.241,2.241,0,0,1,.92-.221c.662.037,1.146.662,1.781.855.9.273,1.805-.365,2.722-.582.6-.141,1.226-.1,1.818-.307a4.493,4.493,0,0,0,1.346-.815,6.849,6.849,0,0,0,1.438-1.385,8.9,8.9,0,0,0,.843-1.683,24.05,24.05,0,0,1,1.7-3.261,2.3,2.3,0,0,1,.346-.454,4.813,4.813,0,0,1,.469-.34,3.562,3.562,0,0,0,1.082-1.974,3.455,3.455,0,0,1,.242-.659,1.186,1.186,0,0,1,.978.5A1.946,1.946,0,0,1,615.079,529.55Z" transform="translate(-441.354 -402.176)" fill="#464353"/>
  <path id="Path_227" data-name="Path 227" d="M438.835,204.864a6.5,6.5,0,0,1,1.839,2.146c.429.84,2.9,7.356,2.759,8.3.806-.812,3.985-.944,4.8-1.756.34-.34,2.176-2.038,2.452-2.434s2.323-1.226,2.547-1.643c.837-1.5-5.934-7.179-5.067-8.659a.386.386,0,0,0,.071-.233.38.38,0,0,0-.113-.181,10.153,10.153,0,0,0-1.959-1.339,3.106,3.106,0,0,1-1.493-1.778,6.437,6.437,0,0,0-1.732,1.171q-1.864,1.6-3.663,3.258c-.469.435-1.376,1.015-1.594,1.637C437.425,204.024,438.388,204.5,438.835,204.864Z" transform="translate(-329.384 -173.057)" fill="#a1616a"/>
  <path id="Path_228" data-name="Path 228" d="M458,214.13a19.951,19.951,0,0,0-2.9,2.372,5.771,5.771,0,0,0-1.839,2.955c-.086.457-.074.92-.144,1.382-.307,2.008-2.041,3.479-2.808,5.358a9.289,9.289,0,0,0-.487,1.793,21.189,21.189,0,0,0-.352,3.519c-.018,1.143,1.1,1.931,1.514,3a18.3,18.3,0,0,1,.73,3.258,38.6,38.6,0,0,0,1.839,6.038c1.511,4.175,6.409,15.715,7.92,19.893,4.631-1.162,16.96-3.831,21.061-6.281,1.367-.815-9.487-10.014-8.025-10.648a.546.546,0,0,0,.411-.769c-1.462-6.394-6.035-11.648-8.11-17.873a54.228,54.228,0,0,0-2.995-6.06c-.889-1.861-1.364-3.917-2.428-5.686a3.586,3.586,0,0,0-.776-.966,4.572,4.572,0,0,0-.855-.518C459.149,214.6,458.585,214.427,458,214.13Z" transform="translate(-337.587 -184.735)" fill="#514e7f"/>
  <circle id="Ellipse_5" data-name="Ellipse 5" cx="7.249" cy="7.249" r="7.249" transform="translate(102.447 16.583)" fill="#a1616a"/>
  <path id="Path_229" data-name="Path 229" d="M466.4,205.633a2.431,2.431,0,0,1,2.725-.392,1.317,1.317,0,0,1,.809,1.309l3.6.055a7.216,7.216,0,0,1,1.7.156,2.477,2.477,0,0,1,1.422.892c.043.058.092.129.166.138a.264.264,0,0,0,.166-.055,3.12,3.12,0,0,1,1.79-.306,9.67,9.67,0,0,1,5.263,2.311,1.7,1.7,0,0,1,.613.763c.126.408-.025.92.307,1.211,0,3.372,1.159,6.523,1.931,9.809a4.4,4.4,0,0,0,1.088,1.563,6.305,6.305,0,0,1,1.162,1.735c.656,1.7-.248,3.709.389,5.419a9.284,9.284,0,0,0,1.226,1.946A5.034,5.034,0,0,1,491.8,234.7c.028.411-.025.825,0,1.226a7.423,7.423,0,0,0,.307,1.628q.392,1.484.821,2.964c.466,1.594,1.073,3.313,2.5,4.162-3.448.585-7.084,1.159-10.37-.04a5.377,5.377,0,0,1-1.294-.647,7.452,7.452,0,0,1-2.271-3.66,17.282,17.282,0,0,1-1.266-4.723,5.423,5.423,0,0,0-.218-1.533,4.364,4.364,0,0,0-2.035-1.919,9.772,9.772,0,0,1-2.452-1.907,3.81,3.81,0,0,1-.993-2.863c.061-.506.261-.993.279-1.5a1.177,1.177,0,0,0-.7-1.226c-2.51-.76-3.709-3.733-4.267-6.3a20.216,20.216,0,0,1-.322-4.015l-.034-2.615a3.451,3.451,0,0,1-1.128-2.48,2.947,2.947,0,0,0-.015-.821,2.265,2.265,0,0,0-.576-.874A7.8,7.8,0,0,1,466.4,205.633Z" transform="translate(-349.328 -178.396)" fill="#464353"/>
  <path id="Path_230" data-name="Path 230" d="M440.068,229.255a20.065,20.065,0,0,1-.08,2.434c-.07.307-.193.613-.282.9A5.272,5.272,0,0,0,440.04,236a19.008,19.008,0,0,0,1.744,3.019,4.907,4.907,0,0,1,.558,1.045,5.41,5.41,0,0,1,.215,1.192,37.041,37.041,0,0,0,.852,4.818c.343,1.373,4.242,13.113,5.149,14.2a1.155,1.155,0,0,0,.7.475,1.272,1.272,0,0,0,.595-.123l1.839-.7a1.2,1.2,0,0,0,.426-.233,1.1,1.1,0,0,0,.264-.723c.132-1.5-3.776-13.318-4.273-14.731-1.5-4.267-3.5-8.38-4.478-12.8-.273-1.226-.417-3.114-1.315-4.092-.371-.4-.245-.233-.69-.021a5.032,5.032,0,0,0-.65.34A2.127,2.127,0,0,0,440.068,229.255Z" transform="translate(-330.718 -193.73)" fill="#464353"/>
  <path id="Path_231" data-name="Path 231" d="M556.62,320.79" transform="translate(-411.894 -258.702)" fill="#464353"/>
  <path id="Path_232" data-name="Path 232" d="M458.436,232.156c.493,2.608,1,5.211,1.508,7.819l7.2-1.885a5.058,5.058,0,0,0-.613-2.146c-.656-1.646-.671-3.479-1.2-5.171-.4-1.287-1.1-2.471-1.477-3.767-.218-.754-.328-1.533-.543-2.3a16.674,16.674,0,0,0-.846-2.192,13.72,13.72,0,0,0-1.569-2.909,4.576,4.576,0,0,0-2.425,1.572,3.4,3.4,0,0,0-.448,1.533c-.126,1.615.46,3.24.267,4.846a14.254,14.254,0,0,0,.15,4.595Z" transform="translate(-343.504 -188.535)" fill="#6c63ff"/>
  <path id="Path_233" data-name="Path 233" d="M479.162,338.538c.4,1.533-.181,3.145-.659,4.662a36.132,36.132,0,0,0-1.465,7.019,6.076,6.076,0,0,1-.362,1.775c-.227.512-.613.944-.877,1.431a7.19,7.19,0,0,0-.549,4.31c.1.966.261,1.928.454,2.878a7.28,7.28,0,0,1,.187,3.51c.57-.126.956.613.92,1.192a3.181,3.181,0,0,0,.055,1.726c.7.257.711,1.226.69,1.977a16.628,16.628,0,0,0,.49,3.862q1.6,7.694,3.4,15.344c2.59.8,5.615,1.64,8.086.527a1.622,1.622,0,0,0,1.024-1.03,1.8,1.8,0,0,0-.1-.791l-1.171-4.261a7.822,7.822,0,0,1-.42-3.151c.113-.788.457-1.637.07-2.333-.132-.239-.34-.426-.493-.653-.613-.9-.291-2.1-.242-3.188a2.525,2.525,0,0,0-.049-.73,3.638,3.638,0,0,0-.349-.8,12.236,12.236,0,0,1-1.349-6.087,1.505,1.505,0,0,0-.107-.794,2.561,2.561,0,0,1-.2-.325.889.889,0,0,1,.064-.585,5.365,5.365,0,0,1-.944-.92,1.321,1.321,0,0,0,.227-2.066.69.69,0,0,0,.328-1.186c-.15-.1-.349-.15-.457-.307-.166-.227-.031-.543.1-.785l.714-1.29c.533-.959.653-2.146,1.226-3.065a22.975,22.975,0,0,0,1.888-4.31l2.063-5.692,1.389,1.2a4.39,4.39,0,0,1,1.14,1.3,5.608,5.608,0,0,1,.371,1.557c.509,3.09,2.452,5.769,3.172,8.812a5.8,5.8,0,0,0,.656,1.968,4.291,4.291,0,0,1,.374.564,2.993,2.993,0,0,1,.156.935,4.362,4.362,0,0,0,1.839,3.126c.684.469,1.533.791,1.9,1.533a2.86,2.86,0,0,0,.307.653c.331.4,1.045.444,1.186.944.08.279-.067.613.089.858a.812.812,0,0,0,.34.254l2,1c2.231,1.116,3.372,3.678,5.018,5.545a11.954,11.954,0,0,1,1.5,1.986c.711,1.272,1.039,2.869,2.241,3.678a3.389,3.389,0,0,1,.871.647c.377.5.239,1.192.273,1.818s.512,1.37,1.107,1.18a4.362,4.362,0,0,0,0,2.314,11.648,11.648,0,0,0,7.068-2.863,2.789,2.789,0,0,0,1.149-1.931.692.692,0,0,0-.086-.383,1.094,1.094,0,0,0-.451-.34c-1.867-1.012-2.428-3.356-3.372-5.26a45.574,45.574,0,0,0-3.065-4.687c-2.219-3.356-3.733-7.418-7.09-9.634a4.824,4.824,0,0,1-1.968-1.726c-.205-.451-.23-.966-.392-1.431a1.242,1.242,0,0,0-1.048-.92,6.426,6.426,0,0,0,.239-2.225,2.811,2.811,0,0,0-.11-.959,4.664,4.664,0,0,0-.493-.95,9.116,9.116,0,0,1-1.263-4.9,8.042,8.042,0,0,0-.086-2.645c-.135-.426-.371-.815-.533-1.226a7.664,7.664,0,0,1-.383-2.3l-.184-2.946a14.493,14.493,0,0,0-.38-2.912c-.613-2.287-1.226-11.865-3.326-12.944s-5.707,6.293-8.071,6.437a10.509,10.509,0,0,0-3.065.592,14.932,14.932,0,0,0-4.175,2.759l-4.346,3.651A16.017,16.017,0,0,1,479.162,338.538Z" transform="translate(-355.405 -260.219)" fill="#464353"/>
  <path id="Path_234" data-name="Path 234" d="M415.979,165.056A5.464,5.464,0,0,1,420.2,163a9.823,9.823,0,0,1,4.662,1.171,5.76,5.76,0,0,0,1.361.558c.766.156,1.618-.052,2.311.307.92.487,1.1,1.729,1.018,2.759a5.065,5.065,0,0,0,.276,3.065,7.087,7.087,0,0,1,.53.8,2.645,2.645,0,0,1-.043,1.7,11.041,11.041,0,0,1-.88-1.125,1.036,1.036,0,0,0-1.269-.328c-.4.267-.389.751-.411,1.186s-.132.956-.543,1.1a.88.88,0,0,1-.92-.359c-.7-.858-.42-2.228-1.116-3.093-.4-.49-1.054-.73-1.419-1.244-.288-.4-.362-.92-.613-1.355s-.837-.754-1.226-.454a1.658,1.658,0,0,0-.328.438,1.885,1.885,0,0,1-2.238.674,3.743,3.743,0,0,0-.969-.42,1.2,1.2,0,0,0-1.107.613,2.394,2.394,0,0,0-.306,1.281,2.952,2.952,0,0,1-.239,1.756,1.817,1.817,0,0,1-.49.466,1.527,1.527,0,0,1-1.7.175,1.275,1.275,0,0,1-.38-1.189,9.616,9.616,0,0,1,.362-1.257c.27-.95-.083-2.02.212-2.915A9.306,9.306,0,0,1,415.979,165.056Z" transform="translate(-313.084 -149.274)" fill="#464353"/>
  <path id="Path_235" data-name="Path 235" d="M432.768,210.717a1.116,1.116,0,0,0,.067.665,1.058,1.058,0,0,0,.362.346,7.436,7.436,0,0,0,3.415,1.107,1.039,1.039,0,0,1,.472.123.83.83,0,0,1,.2.95,2.473,2.473,0,0,0-.218,1.012c.089.641.849.92,1.49,1.015a3.465,3.465,0,0,0,2.593-.506,4.006,4.006,0,0,0,1.07-1.6c1.759-4.043,2.375-8.512,4.156-12.543a2.662,2.662,0,0,0,.267-.84.828.828,0,0,0-.331-.772c-.331-.205-.846-.089-1.07-.411-.11-.162-.1-.383-.2-.555-.205-.365-.745-.307-1.113-.518-.288-.153-.487-.469-.809-.53a1.018,1.018,0,0,0-.837.362,10.777,10.777,0,0,0-2.176,3.663,42.941,42.941,0,0,1-3.114,5.775,3.368,3.368,0,0,0-.975-1.91c-.549-.11-1.251.852-1.548,1.211A7.712,7.712,0,0,0,432.768,210.717Z" transform="translate(-325.989 -173.31)" fill="#6c63ff"/>
  <path id="Path_236" data-name="Path 236" d="M461.418,200.32a1.468,1.468,0,0,0-1.137.57,3.243,3.243,0,0,0-.475,1.533A13.318,13.318,0,0,1,458,207.272" transform="translate(-343.503 -175.158)" opacity="0.1"/>
  <path id="Path_237" data-name="Path 237" d="M466.677,204.31a1.75,1.75,0,0,0-1.487.892,5.01,5.01,0,0,0-.374,1.514,8.31,8.31,0,0,1-1.487,3.185" transform="translate(-347.2 -177.925)" opacity="0.1"/>
  <path id="Path_238" data-name="Path 238" d="M323.941,367.293v-3.807a10.569,10.569,0,0,0-10.569-10.566H163.029a10.569,10.569,0,0,0-10.569,10.566V370.5Z" transform="translate(-131.617 -280.983)" fill="#33323d"/>
  <path id="Path_239" data-name="Path 239" d="M323.367,285.262s-.429,26.624,4.291,35.384,6.743,46.87,6.743,46.87,49.484,5.119,83.968-6.13,107.858-15.85,107.858-15.85L513.862,262.2s-61.086-3.917-95.836,12.656S323.367,285.262,323.367,285.262Z" transform="translate(-250.131 -217.789)" fill="#8dd070"/>
  <path id="Path_240" data-name="Path 240" d="M323.367,285.262s-.429,26.624,4.291,35.384,6.743,46.87,6.743,46.87,49.484,5.119,83.968-6.13,107.858-15.85,107.858-15.85L513.862,262.2s-61.086-3.917-95.836,12.656S323.367,285.262,323.367,285.262Z" transform="translate(-250.131 -217.789)" opacity="0.1"/>
  <path id="Path_241" data-name="Path 241" d="M358.431,308.3s-1.548,21.968,2.336,28.987,4.064,38.355,4.064,38.355,44.534,2.066,76.213-8.717,98.248-17.778,98.248-17.778l-7.565-68.154s-55.081-.567-87.229,14.612S358.431,308.3,358.431,308.3Z" transform="translate(-274.243 -231.102)" fill="#8dd070"/>
  <ellipse id="Ellipse_6" data-name="Ellipse 6" cx="11.562" cy="24.797" rx="11.562" ry="24.797" transform="translate(152.163 75.561) rotate(-7.1)" opacity="0.1"/>
  <path id="Path_242" data-name="Path 242" d="M441.428,130.66s-59.345,15.019-87.33,41.457-86.9,38.955-86.9,38.955,7.761,25.469,14.94,32.359,20.794,42.545,20.794,42.545,48.666-10.317,78.03-31.614,97.8-48.194,97.8-48.194Z" transform="translate(-211.187 -126.85)" opacity="0.2"/>
  <path id="Path_243" data-name="Path 243" d="M264.29,198.639S272.048,224.11,279.22,231s20.794,42.542,20.794,42.542,48.672-10.314,78.039-31.611,97.8-48.185,97.8-48.185L438.515,118.23s-59.342,15.019-87.327,41.457S264.29,198.639,264.29,198.639Z" transform="translate(-209.169 -118.23)" fill="#8dd070"/>
  <path id="Path_244" data-name="Path 244" d="M264.29,198.639S272.048,224.11,279.22,231s20.794,42.542,20.794,42.542,48.672-10.314,78.039-31.611,97.8-48.185,97.8-48.185L438.515,118.23s-59.342,15.019-87.327,41.457S264.29,198.639,264.29,198.639Z" transform="translate(-209.169 -118.23)" opacity="0.1"/>
  <path id="Path_245" data-name="Path 245" d="M308,220.674s5.269,21.386,11.12,26.872,15.632,35.25,15.632,35.25,43.017-11.7,69.858-31.688,88.06-47.041,88.06-47.041L464.56,141.5s-52.6,16.359-78.536,40.672S308,220.674,308,220.674Z" transform="translate(-239.481 -134.367)" fill="#8dd070"/>
  <ellipse id="Ellipse_7" data-name="Ellipse 7" cx="11.562" cy="24.797" rx="11.562" ry="24.797" transform="translate(132.721 63.887) rotate(-24.97)" opacity="0.1"/>
  <path id="Path_246" data-name="Path 246" d="M328.021,387.881V493.629a9.143,9.143,0,0,1-9.147,9.143H161.63a9.143,9.143,0,0,1-9.14-9.143V377.22c4.506,1.674,4.506,1.674,9.14,1.533H318.874A9.147,9.147,0,0,1,328.021,387.881Z" transform="translate(-131.638 -297.835)" opacity="0.1"/>
  <path id="Path_247" data-name="Path 247" d="M328.021,392.264V498.012a9.147,9.147,0,0,1-9.147,9.143H161.63a9.143,9.143,0,0,1-9.14-9.143V381.6c4.506,1.671,4.506,1.671,9.14,1.533H318.874a9.146,9.146,0,0,1,9.147,9.131Z" transform="translate(-131.638 -300.872)" fill="#504f60"/>
  <path id="Path_248" data-name="Path 248" d="M611.228,543.937v33.818h-32.8a16.91,16.91,0,1,1,0-33.82Z" transform="translate(-415.293 -413.449)" opacity="0.1"/>
  <path id="Path_249" data-name="Path 249" d="M612.688,541v33.824h-32.8a16.91,16.91,0,1,1,0-33.82Z" transform="translate(-416.305 -411.413)" fill="#33323d"/>
  <circle id="Ellipse_8" data-name="Ellipse 8" cx="6.593" cy="6.593" r="6.593" transform="translate(158.565 140.805)" opacity="0.1"/>
  <circle id="Ellipse_9" data-name="Ellipse 9" cx="6.593" cy="6.593" r="6.593" transform="translate(159.012 139.91)" fill="#6c63ff"/>
  <path id="Path_250" data-name="Path 250" d="M862.3,529.344c.261,2.823-1.876,5.563-1.254,8.328.135.592.389,1.149.481,1.747.258,1.643-.72,3.2-1.655,4.57l-8.031,11.783a7.318,7.318,0,0,1-1.146,1.416c-1.533,1.367-3.838,1.226-5.854,1.634a10,10,0,0,0-3.923,1.735.251.251,0,0,0-.037.343,3.372,3.372,0,0,0,2.918,1.37c.211.279,0,.687-.307.886-.432.307-1.024.38-1.11,1.11a1.2,1.2,0,0,0,.147.736,2.283,2.283,0,0,0,1.4.978c2.78.849,5.784-.644,7.865-2.676s3.574-4.6,5.615-6.667c1.131-1.143,2.415-2.124,3.58-3.234a40.982,40.982,0,0,0,5.873-7.6,8.479,8.479,0,0,0,1.272-2.587c.221-.941.116-1.891.365-2.8a10.321,10.321,0,0,1,1.925-3.148,10.414,10.414,0,0,0,2.188-6.777,6.5,6.5,0,0,0-3.966-5.625,3.525,3.525,0,0,0-2.222-.135,5.279,5.279,0,0,0-2.262,1.8l-1.533,1.762a4.133,4.133,0,0,0-.889,1.349,1.413,1.413,0,0,0,.307,1.5" transform="translate(-608.991 -400.048)" fill="#fbbebe"/>
  <path id="Path_251" data-name="Path 251" d="M862.3,529.344c.261,2.823-1.876,5.563-1.254,8.328.135.592.389,1.149.481,1.747.258,1.643-.72,3.2-1.655,4.57l-8.031,11.783a7.318,7.318,0,0,1-1.146,1.416c-1.533,1.367-3.838,1.226-5.854,1.634a10,10,0,0,0-3.923,1.735.251.251,0,0,0-.037.343,3.372,3.372,0,0,0,2.918,1.37c.211.279,0,.687-.307.886-.432.307-1.024.38-1.11,1.11a1.2,1.2,0,0,0,.147.736,2.283,2.283,0,0,0,1.4.978c2.78.849,5.784-.644,7.865-2.676s3.574-4.6,5.615-6.667c1.131-1.143,2.415-2.124,3.58-3.234a40.982,40.982,0,0,0,5.873-7.6,8.479,8.479,0,0,0,1.272-2.587c.221-.941.116-1.891.365-2.8a10.321,10.321,0,0,1,1.925-3.148,10.414,10.414,0,0,0,2.188-6.777,6.5,6.5,0,0,0-3.966-5.625,3.525,3.525,0,0,0-2.222-.135,5.279,5.279,0,0,0-2.262,1.8l-1.533,1.762a4.133,4.133,0,0,0-.889,1.349,1.413,1.413,0,0,0,.307,1.5" transform="translate(-608.991 -400.048)" opacity="0.05"/>
  <path id="Path_252" data-name="Path 252" d="M914.846,769.763a9.3,9.3,0,0,1-5.977.886c-.328-.04-.717-.064-.92.19-.306.368.055.919.429,1.2a8.843,8.843,0,0,0,4.1,1.689A27.026,27.026,0,0,0,916.5,774a67.893,67.893,0,0,0,10.976-.4,1.555,1.555,0,0,0,.613-.178,1.122,1.122,0,0,0,.454-.69,2.736,2.736,0,0,0-.953-2.612,8,8,0,0,0-2.559-1.373l-3.188-1.241c-.748-.291-1.946-1.064-2.759-1C917.556,766.612,916.112,769.022,914.846,769.763Z" transform="translate(-655.455 -567.793)" fill="#3f3d56"/>
  <path id="Path_253" data-name="Path 253" d="M914.846,769.763a9.3,9.3,0,0,1-5.977.886c-.328-.04-.717-.064-.92.19-.306.368.055.919.429,1.2a8.843,8.843,0,0,0,4.1,1.689A27.026,27.026,0,0,0,916.5,774a67.893,67.893,0,0,0,10.976-.4,1.555,1.555,0,0,0,.613-.178,1.122,1.122,0,0,0,.454-.69,2.736,2.736,0,0,0-.953-2.612,8,8,0,0,0-2.559-1.373l-3.188-1.241c-.748-.291-1.946-1.064-2.759-1C917.556,766.612,916.112,769.022,914.846,769.763Z" transform="translate(-655.455 -567.793)" opacity="0.05"/>
  <path id="Path_254" data-name="Path 254" d="M932.521,598.163c-1.327,1.766-2.7,3.8-2.373,5.989a13.351,13.351,0,0,0,1.321,3.3,23.31,23.31,0,0,1,1.336,4.647c.5,2.311,1,4.628,1.3,6.976.346,2.651-1.281,10.323-1.431,12.993a2.746,2.746,0,0,1-.561,1.8c-.175.184-.408.331-.487.57a.974.974,0,0,0,.107.674,7.417,7.417,0,0,0,3.985,3.66,31.52,31.52,0,0,0,7.684,2.02,1.533,1.533,0,0,0,.723-.1,1.408,1.408,0,0,0,.558-.641c1.333-2.55.052-11.617.07-14.5.018-2.4.585-4.785.481-7.182-.086-1.925-.613-3.807-.788-5.726a33.794,33.794,0,0,1,.849-9.413c.441-2.385.886-4.769,1.453-7.123a13.675,13.675,0,0,1,1.533-4.135c.613-.99,1.474-1.818,2.188-2.759a12.451,12.451,0,0,0,2.452-9.116c-.043-.307-4.6,1.156-5,1.33a15.576,15.576,0,0,0-4.457,2.866,37.447,37.447,0,0,0-2.808,3.473q-1.959,2.388-3.868,4.809Q934.612,595.361,932.521,598.163Z" transform="translate(-670.896 -438.51)" fill="#464353"/>
  <path id="Path_255" data-name="Path 255" d="M932.521,597.847c-1.327,1.766-2.7,3.807-2.373,5.989a13.321,13.321,0,0,0,1.321,3.307,23.283,23.283,0,0,1,1.336,4.644c.5,2.314,1,4.631,1.3,6.976.346,2.654-1.281,10.324-1.431,12.993a2.755,2.755,0,0,1-.561,1.805c-.175.181-.408.328-.487.567a.971.971,0,0,0,.107.674,7.508,7.508,0,0,0,3.985,3.678,29.612,29.612,0,0,0,7.684,1.438,1.534,1.534,0,0,0,.723-.1,1.386,1.386,0,0,0,.558-.638c1.333-2.55.052-11.035.07-13.916.018-2.4.585-4.785.481-7.185-.086-1.925-.613-3.807-.788-5.723a33.8,33.8,0,0,1,.849-9.416c.441-2.382.886-4.766,1.453-7.123a13.677,13.677,0,0,1,1.533-4.135c.613-.99,1.474-1.818,2.188-2.759a12.444,12.444,0,0,0,2.452-9.116c-.043-.306-4.6,1.156-5,1.33a15.646,15.646,0,0,0-4.457,2.869,37.014,37.014,0,0,0-2.808,3.47q-1.959,2.388-3.868,4.812Q934.612,595.043,932.521,597.847Z" transform="translate(-670.896 -438.302)" opacity="0.05"/>
  <circle id="Ellipse_10" data-name="Ellipse 10" cx="7.439" cy="7.439" r="7.439" transform="translate(239.418 105.89)" fill="#fbbebe"/>
  <path id="Path_256" data-name="Path 256" d="M895.634,483.728a9.634,9.634,0,0,0,6.176,4.31l-.561,2.038c-.969,3.5-2.057,7.2-4.76,9.631a4.477,4.477,0,0,0-.754-3.482,13.124,13.124,0,0,0-2.526-2.639l-4.282-3.709a1.29,1.29,0,0,1-.307-.362,1.088,1.088,0,0,1,0-.815c.546-1.7,2.1-2.759,3.372-3.905a11.682,11.682,0,0,0,1.7-1.974C894.543,481.6,895.073,482.827,895.634,483.728Z" transform="translate(-642.076 -370.712)" fill="#fbbebe"/>
  <path id="Path_257" data-name="Path 257" d="M853.654,450.055l-.169-1.4c1.174.307,2.29-.693,3.041-1.726s1.447-2.25,2.59-2.682c1.389-.521,2.86.306,4.187,1.005a13.239,13.239,0,0,0,4.8,1.563,3.162,3.162,0,0,1,.794.129,2.762,2.762,0,0,1,1.4,2.376,9.287,9.287,0,0,0,.518,2.906c.306.665.877,1.159,1.226,1.815.92,1.759.031,4.166.99,5.891l-2.385-2.185c-.218-.2-.524-.408-.766-.239-.19.135-.205.426-.282.659a1.252,1.252,0,0,1-1.7.613,4.865,4.865,0,0,1-1.533-1.389,9.3,9.3,0,0,0-3.782-2.869,4.855,4.855,0,0,0-3.985.264c-1.113.628-1.928,2.094-3.292,2.146-1.87.07-2.648-3.412-3.513-4.788a1.686,1.686,0,0,0,.49-2.109C852.416,449.984,853.627,449.84,853.654,450.055Z" transform="translate(-616.596 -344.205)" fill="#464353"/>
  <path id="Path_258" data-name="Path 258" d="M552.2,317.682a14.467,14.467,0,0,0-1.652,1.735,3.473,3.473,0,0,0-.76,2.228,1.14,1.14,0,0,0,.215.653.552.552,0,0,0,.613.187.824.824,0,0,0,.306-.27,14.788,14.788,0,0,1,1.03-1.116c.132-.132.307-.27.484-.221a.518.518,0,0,1,.208.138,1.41,1.41,0,0,1,.432.674A1.589,1.589,0,0,1,552.6,323a3.345,3.345,0,0,0-.8,1.183.524.524,0,0,0,0,.38.57.57,0,0,0,.239.2,3.421,3.421,0,0,0,2.893.19c.613-.248,1.159-.674,1.79-.9a4.141,4.141,0,0,0,.791-.307,1.643,1.643,0,0,0,.7-1.051,4.337,4.337,0,0,0,.046-1.29,14.838,14.838,0,0,0-1.054-4.852.614.614,0,0,0-.178-.257.568.568,0,0,0-.307-.083c-.785-.083-2.072-.484-2.829-.193a2,2,0,0,0-.668.595C553.087,316.775,552.2,317.477,552.2,317.682Z" transform="translate(-407.157 -255.324)" fill="#a1616a"/>
  <path id="Path_259" data-name="Path 259" d="M531.951,254.6c0-.748-.92-2.553.543-2.673,0-.8-1.131-1.3-.919-2.146.067-.282.307-.512.334-.8.092-.818-1.385-1.263-1.14-2.048.092-.307.417-.484.487-.788.166-.708-1.1-1.024-1.125-1.75,0-.245.138-.475.126-.72,0-.307-.267-.539-.414-.806-.383-.684-.2-1.741-.9-2.094.463.04.613-.647.423-1.067s-.579-.785-.582-1.251a1.889,1.889,0,0,0,0-.509c-.129-.448-.861-.484-.984-.92a3.916,3.916,0,0,1-.015-.5c-.049-.346-.4-.567-.739-.665a3.013,3.013,0,0,1-.987-.352c-.215-.162-.463-.432-.693-.307-.086.052-.129.15-.193.224-.276.322-.8.181-1.149-.055a4.721,4.721,0,0,1-1.75-3.16c-.218-1.217-.211-2.474-.484-3.678a7.865,7.865,0,0,0-.331-1.1,5.808,5.808,0,0,1-.515-1.1c-.055-.705,1.4-.224,1.959-.153a8.724,8.724,0,0,1,1.591.307,17.016,17.016,0,0,1,1.628.714c2.213.978,4.886,1.1,6.664,2.74a5.586,5.586,0,0,0,1.839,1.493,8.326,8.326,0,0,1,1.03.267c.843.4.975,1.514,1.435,2.323a4.559,4.559,0,0,1,.377.674,2.6,2.6,0,0,1,.123.858l.064,2.124a78.341,78.341,0,0,1-.172,10.664,8.741,8.741,0,0,0,.04,3.491c.092.307.221.595.306.9a5.513,5.513,0,0,1,.117,1.1l.049,1.376a.429.429,0,0,1-.068.307.441.441,0,0,1-.371.089c-1.916-.172-3.853-1.251-5.661-.6" transform="translate(-387.155 -192.934)" fill="#464353"/>
  <ellipse id="Ellipse_11" data-name="Ellipse 11" cx="22.67" cy="3.277" rx="22.67" ry="3.277" transform="translate(209.551 160.861)" fill="#504f60"/>
  <path id="Path_260" data-name="Path 260" d="M746.176,322.441c-.4-1.707-.647-3.206-.647-3.206a6.608,6.608,0,0,0-.742-3.252v-.466h0v-3.433a11.7,11.7,0,0,1,.867-1.8c.613-1.079,0-5.033,0-5.033s-2.29-5.576-1.735-9.113-4.7-15.706-4.7-15.706a15.505,15.505,0,0,1,.493-3.476,2.65,2.65,0,0,0,.067-.73v-.061c-.08-2.333-1.925-6.7-1.925-6.7l.248-8.331a24.494,24.494,0,0,0-.742-11.51c-.671-2.3-1.1-4.144-1.373-5.566-.031-.159-.061-.307-.086-.463,3.951-.613,6.97-1.1,6.97-1.1s-2.293-9.591-3.841-11.271-2.786-6.955-2.786-6.955-.806-6.771.5-8.751a13.159,13.159,0,0,0,1.487-5.395s2.97-2.146,3.344-3.117a15.9,15.9,0,0,0,.99-4.254c0-1.137-.371-2.146-.248-2.759s-.867-2.878-.371-3.957a2.9,2.9,0,0,0,.2-1.039.135.135,0,0,0,0-.031h0a14.573,14.573,0,0,0-.261-2.814,7.985,7.985,0,0,0-2.943-1.572l-.064-.257-.169-.674a3.273,3.273,0,0,0-.291-.172v-.245l-.028-.975.466-2.189c.92-3.807-4.166-4.374-4.166-4.374a2.682,2.682,0,0,0-1.441-1.263c-1.021-.359-.169,5.726.307,6.13a23.972,23.972,0,0,1,2,3.139h0l.086.153a2.15,2.15,0,0,0-.233.245l.193,1.321.031.2a5.48,5.48,0,0,0-.812,1.382,2.982,2.982,0,0,1,.745,2.146,6.872,6.872,0,0,0,.307,2.636c-.055-.064-.708-.769-1.361-.6s-2.477.72-2.477.72-1.361.239-1.226.539-.92,1.618-.92,1.618l-3.66-3.47c-.037-.1-.077-.208-.107-.307a8.431,8.431,0,0,1-.306-1.533,8.375,8.375,0,0,0,1.171-.371,2.525,2.525,0,0,0,1.011-.65,3.922,3.922,0,0,0,.592-1.579,23.22,23.22,0,0,1,1.358-3.028,9.845,9.845,0,0,0,.69-5.45,3.557,3.557,0,0,0-.561-1.594c-.6-.821-1.683-1.156-2.471-1.812s-1.3-1.658-2.216-2.146a4.4,4.4,0,0,0-2.777-.239,14.967,14.967,0,0,0-5.189,1.888,2.7,2.7,0,0,1-1.735.57,2.265,2.265,0,0,1-1.251-.92.061.061,0,0,0-.025-.1,6.465,6.465,0,0,0-.57,2.74,3.39,3.39,0,0,0,.018.438v.279h0a.7.7,0,0,1-.028.193,1.4,1.4,0,0,1-.343.493,3.3,3.3,0,0,0-.307.408.5.5,0,0,1,.049-.15,2.179,2.179,0,0,0-.38,1.156,1.181,1.181,0,0,0,.276.828,3.992,3.992,0,0,0,.6.478,6.981,6.981,0,0,0-.11,1.226,7.084,7.084,0,0,0,3.451,6.041c.043.1.083.205.123.307a8.727,8.727,0,0,1,.665,3.985,1.876,1.876,0,0,1-.043.288c-.015.1-.092.1-.132.153h0s-6.048.061-7.47-1.226-3.592,3.148-3.592,3.148-2.167.42-2.6,0-2.97-.058-2.97-.058a5.465,5.465,0,0,0-3.779-1.379,11.1,11.1,0,0,0-2.759-1.533h0l-.067-.025h0a3.09,3.09,0,0,0-1.364-.172,27.514,27.514,0,0,1-3.841-3.776c-.867-1.324-5-6.213-5.015-6.235V186.7l-.046-.711a2.547,2.547,0,0,1-.371.031c-.021-.07-.052-.153-.083-.248a13.709,13.709,0,0,0-.877-2.014s0-.9.26-1.125-.107-3.522-.107-3.522-2.679-6.262-5.079-1.588c0,0-4.536,3.025-.729,6.55,0,0,1.533.736,1.735,1.318.141.377.656,1.434,1,2.146l.156.307-.043.037.055.589.025.227c-.717.408-1.2.812-1.085,1.116a6.7,6.7,0,0,1,.432,1.618s5.266,6.6,5.946,9.413c0,0,14.121,8.392,18.765,8.99l-.822,4.184a33.4,33.4,0,0,0-.184,3.418c.061.9-.558,4.975-.558,4.975s-.806,6-1.487,6.835-.558,4.435-.558,4.435a30.3,30.3,0,0,1-.92,5.094,13.016,13.016,0,0,0-.187,5.1s-2.351,5.395,3.283,1.738c0,0,2.759-.172,5.953-.282v.307c0,.411,0,.855-.021,1.321-.043,3.09-.061,7.356.08,10.569.248,5.7,1.983,16.966,1.983,16.966v5.674a7.723,7.723,0,0,0-.166,1.618,10.533,10.533,0,0,0,1.533,5.668l.435,3.776a14.731,14.731,0,0,1,1.036,3.985,2.091,2.091,0,0,1-.043.359,2.413,2.413,0,0,0-.049.579,32.617,32.617,0,0,0,.975,5.824s.061,4.135.68,4.377c.53.205-.708,2.382-1.076,3.007a.857.857,0,0,1-.021-.116l-.077.123a2.936,2.936,0,0,0-.193,1.048,1.5,1.5,0,0,0,.687,1.453c1.177.72,1.808,1.318.809,1.557a10.394,10.394,0,0,0-1.091.23.472.472,0,0,0-.052-.138.656.656,0,0,0-.408.723,3.065,3.065,0,0,0,.365,1.392,15.182,15.182,0,0,0,1.677,3.065l.475-.052a2.318,2.318,0,0,1-.276.512,1.973,1.973,0,0,1-.7.613,2.164,2.164,0,0,1-.849.291,2.391,2.391,0,0,0-1.753.852,1.829,1.829,0,0,0,.215,2.845l4.429,1.533s7.62.99,7.215-.72-.65-3.206-.65-3.206a6.759,6.759,0,0,0-.613-3.031,3.948,3.948,0,0,0-.27-.448l.27-.028s.558-3.779,1.3-4.5c.172-.165.211-.307.172-.392.077-.205-.12-.325-.368-.4l-.055.15a3.612,3.612,0,0,0-.739-.083s-.248-1.977.558-2.7a.763.763,0,0,0,.156-.588,3.16,3.16,0,0,0-.086-.806.4.4,0,0,1-.028.049,29.043,29.043,0,0,0-1.778-4.65,5.685,5.685,0,0,1,.435-2.517c.5-.72-.064-9.772-.064-9.772a29.577,29.577,0,0,0-.371-6.412,7.2,7.2,0,0,1,.68-4.438v-.159l-.071-.69a.177.177,0,0,0,0,.043c-.126-1.159-.362-3.258-.536-4.227-.248-1.379.064-7.969.064-7.969l1.113-2.82,1.983,4.858,2.106,6.474a5.531,5.531,0,0,1,1.067,2.759v.2a3.539,3.539,0,0,0-.024.432,3.849,3.849,0,0,0,.641,2.308s.558,3.065,1.425,3.835a3.442,3.442,0,0,1,.867,2.277,39.809,39.809,0,0,0,1.533,5.211,7.749,7.749,0,0,1,.435,3.013h0v.159s.147,1.588.141,2.918v.475a.139.139,0,0,0,0-.034,4.616,4.616,0,0,1-.129,1.079l-.018.061a.781.781,0,0,1,.021-.224,11.266,11.266,0,0,0-.307,2.759,7.144,7.144,0,0,0,1.18,4.6c1.674,1.919,2.725,1.68,2.725,1.68s-.8,2.4-1.8,2.878a.467.467,0,0,0-.1.067,1.046,1.046,0,0,0-.024-.141,1.168,1.168,0,0,0-.307.9,6.43,6.43,0,0,0,1.226,3.553,2,2,0,0,0,.837.49,1.329,1.329,0,0,1-.156.1,3.329,3.329,0,0,1-.34.162,1.787,1.787,0,0,1-.506.132,2.36,2.36,0,0,0-1.753.852,1.825,1.825,0,0,0,.215,2.841L739,323.176S746.574,324.148,746.176,322.441Z" transform="translate(-494.451 -158.144)" fill="url(#linear-gradient)"/>
  <path id="Path_261" data-name="Path 261" d="M799.331,644.465l-4.291-1.533a1.862,1.862,0,0,1-.208-2.844,2.293,2.293,0,0,1,1.7-.852,2.036,2.036,0,0,0,.818-.291,1.961,1.961,0,0,0,.68-.613,3.166,3.166,0,0,0,.487-1.658s4.708-1.379,6,0a3.485,3.485,0,0,1,.57.837,7,7,0,0,1,.613,3.031s.239,1.5.628,3.206S799.331,644.465,799.331,644.465Z" transform="translate(-576.698 -477.336)" fill="#2d293d"/>
  <path id="Path_262" data-name="Path 262" d="M867.771,637.551l-4.291-1.533a1.859,1.859,0,0,1-.208-2.841,2.265,2.265,0,0,1,1.7-.852,1.592,1.592,0,0,0,.49-.132,3.284,3.284,0,0,0,.331-.162,2.714,2.714,0,0,0,1.168-2.277s4.705-1.379,6,0a3.4,3.4,0,0,1,.451.613,6.811,6.811,0,0,1,.717,3.255s.239,1.5.613,3.206S867.771,637.551,867.771,637.551Z" transform="translate(-624.16 -472.537)" fill="#2d293d"/>
  <path id="Path_263" data-name="Path 263" d="M813.04,636.661a3.482,3.482,0,0,1,.57.837h0l-7.05.818a3.166,3.166,0,0,0,.487-1.658S811.752,635.282,813.04,636.661Z" transform="translate(-585.223 -477.327)" opacity="0.1"/>
  <path id="Path_264" data-name="Path 264" d="M879.645,630.386v1.321c-1.1,1.805-6.4,1.41-7.945.506a3.285,3.285,0,0,0,.331-.162,2.714,2.714,0,0,0,1.168-2.277s4.705-1.379,6,0A3.391,3.391,0,0,1,879.645,630.386Z" transform="translate(-630.397 -472.551)" opacity="0.1"/>
  <path id="Path_265" data-name="Path 265" d="M819.283,456.029a12.019,12.019,0,0,0-.837,1.8v4.736c-1.2,1.977-7.433,1.318-8.276.239s-1.723-3.887-.775-4.374,1.738-2.878,1.738-2.878-1.021.239-2.639-1.68-1.137-6.173-.837-7.191a21.245,21.245,0,0,0,0-4.435,8.913,8.913,0,0,0-.417-3.179,39.565,39.565,0,0,1-1.5-5.211,3.528,3.528,0,0,0-.84-2.277c-.84-.779-1.379-3.838-1.379-3.838a3.933,3.933,0,0,1-.6-2.578,5.236,5.236,0,0,0-1.021-3.117l-2.038-6.477-1.919-4.855-1.079,2.817s-.307,6.593-.058,7.969.613,5.036.613,5.036a7.392,7.392,0,0,0-.659,4.435,30.271,30.271,0,0,1,.343,6.419s.539,9.048.058,9.769a5.851,5.851,0,0,0-.42,2.52s2.452,5.272,1.68,5.992-.539,2.7-.539,2.7,1.677,0,.959.72-1.26,4.5-1.26,4.5l-7.249.849a15.077,15.077,0,0,1-1.621-3.065c-.959-2.228.178-1.977,1.143-2.219s.356-.837-.785-1.557-.478-2.339-.478-2.339,1.738-2.936,1.137-3.176-.659-4.377-.659-4.377-1.2-4.9-.9-6.235-.959-4.494-.959-4.494l-.42-3.776a10.39,10.39,0,0,1-1.318-7.136v-5.824s-1.68-11.268-1.919-16.963c-.153-3.648-.11-8.625-.061-11.73.031-1.741.061-2.9.061-2.9l25.895-2.7a21.642,21.642,0,0,0,.469,3.847c.267,1.422.68,3.264,1.33,5.566a25.291,25.291,0,0,1,.72,11.507l-.242,8.334s2.277,5.573,1.8,7.491a15.974,15.974,0,0,0-.484,3.482s5.094,12.169,4.555,15.706S819.277,451,819.277,451,819.884,454.95,819.283,456.029Z" transform="translate(-569.198 -303.889)" fill="#464353"/>
  <path id="Path_266" data-name="Path 266" d="M852.05,510.321l7.884-1.051S855.468,513.828,852.05,510.321Z" transform="translate(-616.77 -389.409)" opacity="0.05"/>
  <path id="Path_267" data-name="Path 267" d="M870.8,484.14s.27,2.789-1.437,3.838C869.36,487.978,872.416,487.5,870.8,484.14Z" transform="translate(-628.774 -371.982)" opacity="0.1"/>
  <path id="Path_268" data-name="Path 268" d="M851.387,455.2s-6.59,5.425-8.987,4.975S851.387,455.2,851.387,455.2Z" transform="translate(-609.848 -351.913)" opacity="0.1"/>
  <path id="Path_269" data-name="Path 269" d="M808.5,521s-5.005,1.137-5.156,3.148S808.5,521,808.5,521Z" transform="translate(-582.99 -397.544)" opacity="0.1"/>
  <path id="Path_270" data-name="Path 270" d="M811.492,602.56s-7.071,1.318-5.064,2.216a34.326,34.326,0,0,0,5.306,1.618S814.017,606.514,811.492,602.56Z" transform="translate(-584.883 -454.104)" opacity="0.05"/>
  <g id="Group_3" data-name="Group 3" transform="translate(214.252 84.571)" opacity="0.05">
    <path id="Path_271" data-name="Path 271" d="M800.522,612.134a1.4,1.4,0,0,1-.647-1.024l-.074.126s-.659,1.618.481,2.336c.129.083.254.166.368.245.212-.04.438-.07.656-.126C802.272,613.452,801.662,612.854,800.522,612.134Z" transform="translate(-794.658 -544.605)"/>
    <path id="Path_272" data-name="Path 272" d="M831.551,610.106c.2-.178.19-.638.07-1.226a3.445,3.445,0,0,0-.4,1.735A1.5,1.5,0,0,1,831.551,610.106Z" transform="translate(-816.577 -543.058)"/>
    <path id="Path_273" data-name="Path 273" d="M827.668,515.59a8.173,8.173,0,0,0-.478,2.2,8.884,8.884,0,0,1,.549-1.514Z" transform="translate(-813.782 -478.363)"/>
    <path id="Path_274" data-name="Path 274" d="M881.292,503.846a2.807,2.807,0,0,0,.064-.656c-.089.448-.15.861-.2,1.226C881.2,504.229,881.243,504.051,881.292,503.846Z" transform="translate(-851.21 -469.764)"/>
    <path id="Path_275" data-name="Path 275" d="M827.819,582.1A3.839,3.839,0,0,0,828,580.77a4.529,4.529,0,0,0-.346,1.683,1.611,1.611,0,0,1,.169-.349Z" transform="translate(-814.101 -523.565)"/>
    <path id="Path_276" data-name="Path 276" d="M809.691,622a23.788,23.788,0,0,0-.825,3.678l-7.249.837A15.084,15.084,0,0,1,800,623.45a5.548,5.548,0,0,1-.205-.527c-.435.2-.613.65-.037,1.965a15.322,15.322,0,0,0,1.624,3.065l7.249-.84s.539-3.776,1.257-4.5C810.252,622.27,810.025,622.089,809.691,622Z" transform="translate(-794.503 -552.157)"/>
    <path id="Path_277" data-name="Path 277" d="M789.074,453.218s.058,4.135.659,4.374h0c.307-.684.506-1.333.236-1.441-.613-.239-.659-4.377-.659-4.377s-1.2-4.9-.9-6.235-.959-4.494-.959-4.494l-.42-3.776a10.391,10.391,0,0,1-1.318-7.136v-5.824s-1.68-11.268-1.919-16.963c-.153-3.648-.11-8.625-.061-11.73,0-.561.018-1.057.028-1.477l-.205.021s-.034,1.152-.061,2.9c-.049,3.105-.1,8.083.061,11.727.239,5.7,1.916,16.966,1.916,16.966v5.824a10.4,10.4,0,0,0,1.321,7.133l.417,3.776s1.26,3.176.959,4.5S789.074,453.218,789.074,453.218Z" transform="translate(-783.448 -394.14)"/>
    <path id="Path_278" data-name="Path 278" d="M868.179,625.017a7.009,7.009,0,0,1-1.149-2.848c-.739.668.11,3.261.92,4.291.837,1.079,7.071,1.738,8.276-.242v-1.14C874.591,626.682,868.97,626.038,868.179,625.017Z" transform="translate(-841.214 -552.275)"/>
    <path id="Path_279" data-name="Path 279" d="M899.24,609.27a12.107,12.107,0,0,0-.84,1.8v.849a12.572,12.572,0,0,1,.613-1.2,3.679,3.679,0,0,0,.264-1.487S899.249,609.258,899.24,609.27Z" transform="translate(-863.165 -543.301)"/>
    <path id="Path_280" data-name="Path 280" d="M864.852,592.408a11.855,11.855,0,0,0,.592-1.425s-1.021.239-2.639-1.68c-1.177-1.395-1.244-4.031-1.076-5.753-.307,1.021-.781,5.275.837,7.194A4.269,4.269,0,0,0,864.852,592.408Z" transform="translate(-837.519 -525.492)"/>
    <path id="Path_281" data-name="Path 281" d="M838.467,494.482a31.952,31.952,0,0,1,.12,3.553,4.853,4.853,0,0,1,.123-.555,20.812,20.812,0,0,0,0-4.435,8.862,8.862,0,0,0-.42-3.179,38.7,38.7,0,0,1-1.484-5.217,3.528,3.528,0,0,0-.84-2.277c-.84-.779-1.379-3.838-1.379-3.838a3.944,3.944,0,0,1-.613-2.578,5.22,5.22,0,0,0-1.018-3.117l-2.038-6.474L829,461.51l-1.082,2.82s0,.356-.037.92l.877-2.29,1.919,4.846,2.038,6.474a5.22,5.22,0,0,1,1.018,3.117,3.945,3.945,0,0,0,.613,2.578s.539,3.065,1.379,3.838a3.508,3.508,0,0,1,.837,2.277,39.436,39.436,0,0,0,1.5,5.211A8.861,8.861,0,0,1,838.467,494.482Z" transform="translate(-814.261 -440.86)"/>
  </g>
  <path id="Path_282" data-name="Path 282" d="M865.512,196.506l-.451,2.189.028.975.018.717-2.5.257-.279-.518h0a23.236,23.236,0,0,0-1.94-3.139c-.463-.386-1.287-6.474-.307-6.112a2.615,2.615,0,0,1,1.392,1.26S866.4,192.7,865.512,196.506Z" transform="translate(-622.02 -168.597)" fill="#ffcdd3"/>
  <path id="Path_283" data-name="Path 283" d="M871.23,219.655l-2.5.257-.279-.518h0a2.2,2.2,0,0,1,2.759-.454Z" transform="translate(-628.143 -187.866)" opacity="0.1"/>
  <path id="Path_284" data-name="Path 284" d="M871.536,221.355l-3.3.763-.07-.49-.187-1.321a2.27,2.27,0,0,1,3.194-.435l.166.671Z" transform="translate(-627.817 -188.38)" fill="#6c63ff"/>
  <path id="Path_285" data-name="Path 285" d="M687.3,186.257l-3.522,1.888-.306-.662c-.334-.7-.834-1.759-.972-2.146-.208-.582-1.677-1.318-1.677-1.318-3.678-3.522.7-6.55.7-6.55,2.323-4.674,4.9,1.588,4.9,1.588s.362,3.3.107,3.522-.254,1.125-.254,1.125a13.836,13.836,0,0,1,.849,2.014C687.243,186.052,687.3,186.257,687.3,186.257Z" transform="translate(-497.008 -158.109)" fill="#ffcdd3"/>
  <path id="Path_286" data-name="Path 286" d="M696.618,208.8l-3.522,1.888-.307-.662c.5-.417,2.259-1.839,2.838-1.781a4.243,4.243,0,0,0,.834.021C696.56,208.6,696.618,208.8,696.618,208.8Z" transform="translate(-506.326 -180.653)" opacity="0.1"/>
  <path id="Path_287" data-name="Path 287" d="M697.192,210.411l-3.957,1.949-.08-.849-.055-.589s2.293-1.965,2.97-1.888a3.6,3.6,0,0,0,1.033,0l.046.711Z" transform="translate(-506.541 -181.2)" fill="#6c63ff"/>
  <path id="Path_288" data-name="Path 288" d="M814.908,226.458s-17.251,1.946-14.026.9a4.312,4.312,0,0,0,3.323-3.74,8.983,8.983,0,0,0-.641-3.985,17.375,17.375,0,0,0-1.533-3.117s13.18-7.252,10.547-.659a10.631,10.631,0,0,0-.748,3.123,8.821,8.821,0,0,0,.34,3.163A9.419,9.419,0,0,0,814.908,226.458Z" transform="translate(-581.007 -184.012)" fill="#ffcdd3"/>
  <path id="Path_289" data-name="Path 289" d="M816.078,215.826a10.633,10.633,0,0,0-.748,3.123c-1.241,1.045-2.6.975-4.353.975-1.343,0-2.832.325-3.905-.322a17.375,17.375,0,0,0-1.532-3.117S818.717,209.233,816.078,215.826Z" transform="translate(-584.516 -183.991)" opacity="0.1"/>
  <circle id="Ellipse_12" data-name="Ellipse 12" cx="7.133" cy="7.133" r="7.133" transform="translate(219.096 22.128)" fill="#ffcdd3"/>
  <path id="Path_290" data-name="Path 290" d="M814.908,245.241s-17.251,1.946-14.026.9a4.312,4.312,0,0,0,3.323-3.74,9.623,9.623,0,0,1,3.678-1.959,5.161,5.161,0,0,1,3.126-.052,4.445,4.445,0,0,1,1.137.527A9.419,9.419,0,0,0,814.908,245.241Z" transform="translate(-581.007 -202.794)" opacity="0.1"/>
  <path id="Path_291" data-name="Path 291" d="M871.959,223.71l-3.3.763-.07-.49a2.918,2.918,0,0,1,3.172-1.085Z" transform="translate(-628.24 -190.735)" opacity="0.1"/>
  <path id="Path_292" data-name="Path 292" d="M697.317,212.018l-3.957,1.949-.08-.849a28.862,28.862,0,0,1,3.985-1.769Z" transform="translate(-506.666 -182.807)" opacity="0.1"/>
  <path id="Path_293" data-name="Path 293" d="M810.025,389.817c-6.685,1.067-16.187,2.428-17.7,1.968-1.254-.38-5.251-.34-8.73-.221.031-1.741.061-2.9.061-2.9l25.895-2.7A21.642,21.642,0,0,0,810.025,389.817Z" transform="translate(-569.301 -303.903)" opacity="0.1"/>
  <path id="Path_294" data-name="Path 294" d="M751.705,267.686s-22,3.776-24.359,3.065-14.483.058-14.483.058c-5.456,3.657-3.179-1.738-3.179-1.738a13.411,13.411,0,0,1,.181-5.094,31.125,31.125,0,0,0,.9-5.1s-.12-3.6.539-4.438,1.441-6.832,1.441-6.832.6-4.077.54-4.975.178-3.418.178-3.418l.782-4.2c-4.5-.6-18.164-8.99-18.164-8.99-.659-2.817-5.753-9.41-5.753-9.41a6.94,6.94,0,0,0-.42-1.618c-.359-.959,5.036-2.878,5.036-2.878s4.015,4.9,4.855,6.235a26.733,26.733,0,0,0,3.715,3.776,2.89,2.89,0,0,1,1.318.172l.07.021h0a10.684,10.684,0,0,1,2.682,1.533,5.211,5.211,0,0,1,3.657,1.379s2.452-.362,2.878.058,2.517,0,2.517,0,2.1-4.435,3.476-3.148,7.231,1.226,7.231,1.226c.779-1.036,2.676-1.778,3.862-2.146a5.183,5.183,0,0,1,3.127-.052,3.966,3.966,0,0,1,1.226.613l3.559,3.476s1.018-1.321.9-1.618,1.2-.539,1.2-.539,1.738-.539,2.4-.72,1.263.533,1.318.6a7.166,7.166,0,0,1-.307-2.636,3.114,3.114,0,0,0-.72-2.146c2.1-5.156,6.832-.84,6.832-.84s.539,2.817.061,3.9.478,3.356.359,3.957.242,1.618.242,2.759a16.854,16.854,0,0,1-.959,4.254c-.346.959-3.237,3.117-3.237,3.117a13.532,13.532,0,0,1-1.441,5.395c-1.26,1.977-.469,8.739-.469,8.739s1.2,5.275,2.7,6.955S751.705,267.686,751.705,267.686Z" transform="translate(-504.318 -183.341)" fill="#3f3d56"/>
  <path id="Path_295" data-name="Path 295" d="M780.148,256.433s-.659-1.977-1.26-2.146a13.865,13.865,0,0,1-1.738-.779l.386-.739s2.25.613,2.612,1.278A5.086,5.086,0,0,1,780.148,256.433Z" transform="translate(-564.828 -211.531)" opacity="0.1"/>
  <path id="Path_296" data-name="Path 296" d="M735.276,246.906c-.12.613-5.456,1.137-5.456,1.137l2.7-2.7h0l.067.025h0a10.685,10.685,0,0,1,2.691,1.542Z" transform="translate(-532.006 -206.379)" opacity="0.1"/>
  <circle id="Ellipse_13" data-name="Ellipse 13" cx="0.478" cy="0.478" r="0.478" transform="translate(187.356 31.823)" fill="#575988"/>
  <circle id="Ellipse_14" data-name="Ellipse 14" cx="0.478" cy="0.478" r="0.478" transform="translate(187.969 32.782)" fill="#575988"/>
  <circle id="Ellipse_15" data-name="Ellipse 15" cx="0.478" cy="0.478" r="0.478" transform="translate(188.57 33.668)" fill="#575988"/>
  <circle id="Ellipse_16" data-name="Ellipse 16" cx="0.478" cy="0.478" r="0.478" transform="translate(189.198 34.624)" fill="#575988"/>
  <circle id="Ellipse_17" data-name="Ellipse 17" cx="0.389" cy="0.389" r="0.389" transform="translate(245.791 34.661)" fill="#575988"/>
  <circle id="Ellipse_18" data-name="Ellipse 18" cx="0.389" cy="0.389" r="0.389" transform="translate(245.852 35.547)" fill="#575988"/>
  <circle id="Ellipse_19" data-name="Ellipse 19" cx="0.389" cy="0.389" r="0.389" transform="translate(245.904 36.43)" fill="#575988"/>
  <path id="Path_297" data-name="Path 297" d="M787,317.72c-.058-.07,13.456,16.993,23.945,7.133C810.954,324.855,794.38,327.1,787,317.72Z" transform="translate(-571.659 -256.572)" opacity="0.1"/>
  <path id="Path_298" data-name="Path 298" d="M761.7,346.66s8.086.221,8.932,2.547v2.421a1.551,1.551,0,0,1-1.505,0c-.815-.441-5.7-2.924-7.427-1.729Z" transform="translate(-554.114 -276.642)" opacity="0.1"/>
  <path id="Path_299" data-name="Path 299" d="M762.19,346.66s7.733.211,8.543,2.431V351.4a1.483,1.483,0,0,1-1.441,0c-.779-.417-5.453-2.786-7.1-1.646Z" transform="translate(-554.454 -276.642)" fill="#3f3d56"/>
  <path id="Path_300" data-name="Path 300" d="M776.1,289.38a26.022,26.022,0,0,0,3.136,5.379,21.109,21.109,0,0,0,4.9,4.742S776.235,290.49,776.1,289.38Z" transform="translate(-564.1 -236.919)" opacity="0.1"/>
  <path id="Path_301" data-name="Path 301" d="M767.47,258.73s1.349,5.824,4.825,7.8Z" transform="translate(-558.115 -215.664)" opacity="0.1"/>
  <path id="Path_302" data-name="Path 302" d="M760.448,260.646c-.034-.107-1.2,4.6,4.481,7.212C764.929,267.858,762.517,267.04,760.448,260.646Z" transform="translate(-553.162 -216.992)" opacity="0.1"/>
  <path id="Path_303" data-name="Path 303" d="M875.906,247.9a40.437,40.437,0,0,1,3.589,2.7S877.613,247.779,875.906,247.9Z" transform="translate(-633.312 -208.152)" opacity="0.1"/>
  <path id="Path_304" data-name="Path 304" d="M802.809,198.356a1.125,1.125,0,0,0,1.226,1.113,14.262,14.262,0,0,0,6.437-.613,2.453,2.453,0,0,0,.981-.65,4.034,4.034,0,0,0,.57-1.579,22.966,22.966,0,0,1,1.315-3.028,10.146,10.146,0,0,0,.708-5.441,3.679,3.679,0,0,0-.546-1.591c-.576-.825-1.628-1.159-2.391-1.815s-1.254-1.658-2.146-2.146a4.12,4.12,0,0,0-2.691-.239,14.127,14.127,0,0,0-5.021,1.885,2.561,2.561,0,0,1-1.68.57,2.247,2.247,0,0,1-1.226-.947,6.639,6.639,0,0,0-.512,3.111,1.338,1.338,0,0,1-.015.469,1.411,1.411,0,0,1-.334.494,1.815,1.815,0,0,0-.34,2.241c.23.273.585.423.809.7.4.5.267,1.226.258,1.864a.96.96,0,0,0,.159.631.919.919,0,0,0,.88.211,2.394,2.394,0,0,1,.938-.089,1.572,1.572,0,0,1,.815.613A11.518,11.518,0,0,1,802.809,198.356Z" transform="translate(-578.508 -162.632)" fill="#2d293d"/>
  <g id="Group_4" data-name="Group 4" transform="translate(218.369 21.18)" opacity="0.1">
    <path id="Path_305" data-name="Path 305" d="M811.708,211.147a2.453,2.453,0,0,1-.981.65,14.466,14.466,0,0,1-6.437.613,1.128,1.128,0,0,1-1.229-1.116,11.183,11.183,0,0,0-1.818-4.218,1.576,1.576,0,0,0-.815-.628,2.514,2.514,0,0,0-.938.089.919.919,0,0,1-.88-.208.96.96,0,0,1-.159-.631c0-.644.144-1.364-.258-1.864-.224-.279-.579-.429-.809-.705a1.4,1.4,0,0,1-.138-1.428,1.634,1.634,0,0,0-.1,1.91c.23.273.585.423.809.7.4.5.267,1.226.257,1.864a.953.953,0,0,0,.156.631.919.919,0,0,0,.883.212,2.394,2.394,0,0,1,.938-.089,1.572,1.572,0,0,1,.815.613,11.2,11.2,0,0,1,1.818,4.221,1.532,1.532,0,0,0,.53.972,1.487,1.487,0,0,0,.674.147,14.22,14.22,0,0,0,6.437-.613,2.428,2.428,0,0,0,.981-.65,1.872,1.872,0,0,0,.307-.576A.151.151,0,0,1,811.708,211.147Z" transform="translate(-796.877 -197.295)"/>
    <path id="Path_306" data-name="Path 306" d="M799.954,190.788a1.048,1.048,0,0,0,.218-.362,1.336,1.336,0,0,0,0-.469,6.649,6.649,0,0,1,.334-2.581l-.04-.046a6.591,6.591,0,0,0-.512,3.108,2.219,2.219,0,0,1,0,.349Z" transform="translate(-798.997 -187.33)"/>
  </g>
  <path id="Path_307" data-name="Path 307" d="M812.08,248.526s8.91,1.183,9.71-.156" transform="translate(-589.051 -208.48)" opacity="0.1"/>
  <path id="Path_308" data-name="Path 308" d="M868.59,236.85s4.953,0,6.041,1.864" transform="translate(-628.24 -200.491)" opacity="0.1"/>
  <path id="Path_309" data-name="Path 309" d="M944.18,767.3a7.856,7.856,0,0,1-5.349,2c-.5,0-1.2.1-1.2.6a.842.842,0,0,0,.147.411,4.92,4.92,0,0,0,2.759,2.167,9.749,9.749,0,0,0,3.338.211l3.264-.169c.613-.034,1.226-.064,1.839-.141s1.281-.2,1.922-.307a25.136,25.136,0,0,1,4.754-.221,1.439,1.439,0,0,0,1.171-.307c.251-.307.123-.892.028-1.352-.2-.947,0-1.94-.181-2.89a5.076,5.076,0,0,0-3.332-3.549c-1.471-.558-4.077-1.2-5.468-.267C946.4,764.459,945.5,766.093,944.18,767.3Z" transform="translate(-676.118 -565.373)" fill="#3f3d56"/>
  <path id="Path_310" data-name="Path 310" d="M954.75,579.343c.288,1.37,1.615,2.418,1.652,3.816.034,1.122-.766,2.063-1.343,3.022a20.169,20.169,0,0,0-1.37,3.1,47.391,47.391,0,0,1-4.021,8c-.766,1.226-1.625,2.535-1.45,3.96a5.932,5.932,0,0,0,.7,1.894l2.3,4.567a13.227,13.227,0,0,1,1.174,2.884c.2.867.218,1.766.334,2.648.362,2.8,1.677,5.622.9,8.337-.067.233-.307.515-.493.353a8.734,8.734,0,0,1,1.312,4.457,6.215,6.215,0,0,0,.021,2.507,2.745,2.745,0,0,1,.359.987,6.292,6.292,0,0,1-.132.677,1.494,1.494,0,0,0,1.146,1.392c.616.205,1.287.19,1.91.377,1.2.359,2.051,1.389,3.065,2.1a6.526,6.526,0,0,0,3.531,1.149.889.889,0,0,0,.521-.1.843.843,0,0,0,.288-.631,3.506,3.506,0,0,0-1.263-3.047,1.38,1.38,0,0,1-.469-.49,1.184,1.184,0,0,1-.043-.549,41.307,41.307,0,0,0-.135-7.54,11.452,11.452,0,0,1-.119-2.4,9.807,9.807,0,0,0,.193-2,10.6,10.6,0,0,0-.613-1.913,13.78,13.78,0,0,1-.307-3.559,31.208,31.208,0,0,0-1.008-6.13A4.636,4.636,0,0,0,960.43,605c-.478-.5-1.251-.978-1.07-1.643a1.944,1.944,0,0,1,.438-.653,2.621,2.621,0,0,0,.546-2,.9.9,0,0,0,1.033-.484,16.161,16.161,0,0,0,8.086-9.2,3.034,3.034,0,0,1,.362-.821,3.7,3.7,0,0,1,1.48-.959,11.244,11.244,0,0,0,3.89-3.966,7.011,7.011,0,0,0,1.707-4.95l.1-3.6a1.946,1.946,0,0,0-.068-.705,1.763,1.763,0,0,0-.389-.57,6.925,6.925,0,0,0-3.819-2.06c-.981-.175-1.983-.141-2.976-.224-1.925-.159-3.825-.757-5.75-.613a9.2,9.2,0,0,0-7.145,5C956.35,578.5,955.823,579.325,954.75,579.343Z" transform="translate(-683.445 -433.284)" fill="#464353"/>
  <path id="Path_311" data-name="Path 311" d="M907.217,500.345a4.027,4.027,0,0,1-.221,1.64,1.146,1.146,0,0,1-1.346.69c.156-.353-.257-.754-.644-.711a1.2,1.2,0,0,0-.849.729,2.713,2.713,0,0,0-.245,1.664,6.749,6.749,0,0,1,.423,2.09c-.086.589-.518,1.174-.288,1.72a2.788,2.788,0,0,0,.555.665,1.876,1.876,0,0,1-.2,2.575l5.8.116a4.1,4.1,0,0,0,.72,2.82A17.779,17.779,0,0,0,924.176,523a1.152,1.152,0,0,0-.279,1.763,1.638,1.638,0,0,0,1.864.107,13.259,13.259,0,0,0,1.594-1.2,4.9,4.9,0,0,1,3.277-.883c.726.07,1.431.307,2.161.343,2.146.113,3.985-1.431,6.051-2.063,1.505-.463,3.212-.463,4.475-1.4a1.783,1.783,0,0,0,.834-1.726,2.884,2.884,0,0,0-.613-1.015,17.522,17.522,0,0,1-1.677-3.142,18.793,18.793,0,0,0-4.19-5.615,37.476,37.476,0,0,0-4.156-3.151,7.085,7.085,0,0,0-1.122-.677,12.571,12.571,0,0,1-1.533-.613,8.167,8.167,0,0,1-1.6-1.8c-1.15-1.343-2.915-1.959-4.331-3.013a10.272,10.272,0,0,0-2.924-1.98c-.552-.169-1.137-.181-1.689-.346-1.254-.38-2.167-1.493-3.4-1.943a13.63,13.63,0,0,0-3.065-.389,7.176,7.176,0,0,1-3.2-1.22,3.8,3.8,0,0,0-1.021-.595c-1.554-.472-1.68,2.421-1.839,3.424A33.015,33.015,0,0,0,907.217,500.345Z" transform="translate(-652.709 -377.704)" fill="#6c63ff"/>
  <path id="Path_312" data-name="Path 312" d="M871.119,539.312c.261,2.826-1.873,5.563-1.251,8.331.132.589.386,1.149.478,1.747.261,1.64-.72,3.194-1.655,4.567l-8.031,11.786a7.412,7.412,0,0,1-1.146,1.416c-1.533,1.364-3.838,1.226-5.854,1.631a10.116,10.116,0,0,0-3.923,1.735.255.255,0,0,0-.049.353,3.372,3.372,0,0,0,2.915,1.37c.211.276,0,.687-.291.886-.429.307-1.024.377-1.11,1.11a1.226,1.226,0,0,0,.147.736,2.29,2.29,0,0,0,1.4.975c2.78.852,5.784-.644,7.865-2.676s3.574-4.6,5.615-6.664c1.131-1.146,2.415-2.124,3.58-3.234a40.958,40.958,0,0,0,5.873-7.6,8.411,8.411,0,0,0,1.272-2.587c.218-.941.117-1.894.365-2.8a10.3,10.3,0,0,1,1.925-3.145,10.4,10.4,0,0,0,2.189-6.78,6.5,6.5,0,0,0-3.966-5.625,3.565,3.565,0,0,0-2.222-.135,5.263,5.263,0,0,0-2.262,1.8l-1.533,1.759a4.1,4.1,0,0,0-.861,1.352,1.413,1.413,0,0,0,.307,1.5" transform="translate(-615.097 -406.967)" fill="#fbbebe"/>
  <path id="Path_313" data-name="Path 313" d="M921.252,511.948a4.392,4.392,0,0,0-2.961.92,4.214,4.214,0,0,0-.748,1.171,11.66,11.66,0,0,0-1.481,4.659,21.32,21.32,0,0,0,.536,3.893,14.891,14.891,0,0,1-.334,3.271,22.7,22.7,0,0,0,4.224-1.625,14.151,14.151,0,0,1,2.474-1.284c1.26-.42,3.372.307,4.57.889.064-.84-.567-2.3-.5-3.148a3.516,3.516,0,0,1,.187-1.042,6.317,6.317,0,0,1,.635-1.008,4.126,4.126,0,0,0-.371-4.834,6.732,6.732,0,0,0-4.316-1.839,18.668,18.668,0,0,0-3.013-.1" transform="translate(-661.159 -391.195)" fill="#6c63ff"/>
</svg>
