<svg xmlns="http://www.w3.org/2000/svg" xmlns:xlink="http://www.w3.org/1999/xlink" width="272.45" height="158.204" viewBox="0 0 272.45 158.204">
  <defs>
    <linearGradient id="linear-gradient" x1="0.5" y1="1" x2="0.5" y2="-0.001" gradientUnits="objectBoundingBox">
      <stop offset="0" stop-color="gray" stop-opacity="0.251"/>
      <stop offset="0.54" stop-color="gray" stop-opacity="0.122"/>
      <stop offset="1" stop-color="gray" stop-opacity="0.102"/>
    </linearGradient>
  </defs>
  <g id="low_cost" transform="translate(0 -0.043)">
    <g id="Group_6" data-name="Group 6" transform="translate(174.973 0.043)" opacity="0.1">
      <ellipse id="Ellipse_20" data-name="Ellipse 20" cx="5.265" cy="6.891" rx="5.265" ry="6.891" transform="translate(20.075 142.083)" fill="#3f3d56"/>
      <path id="Path_314" data-name="Path 314" d="M856.249,584.013a8.3,8.3,0,0,0,1.108-4.212c0-3.814-2.357-6.891-5.266-6.891s-5.263,3.084-5.263,6.891a8.3,8.3,0,0,0,1.1,4.212,8.617,8.617,0,0,0,0,8.421,8.622,8.622,0,0,0,0,8.424,8.3,8.3,0,0,0-1.1,4.212c0,3.814,2.357,6.891,5.263,6.891s5.266-3.084,5.266-6.891a8.3,8.3,0,0,0-1.1-4.212,8.622,8.622,0,0,0,0-8.424,8.617,8.617,0,0,0,0-8.421Z" transform="translate(-826.741 -464.52)" fill="#3f3d56"/>
      <ellipse id="Ellipse_21" data-name="Ellipse 21" cx="5.265" cy="6.891" rx="5.265" ry="6.891" transform="translate(20.075 99.969)" fill="#3f3d56"/>
      <ellipse id="Ellipse_22" data-name="Ellipse 22" cx="5.265" cy="6.891" rx="5.265" ry="6.891" transform="translate(20.075 91.545)" fill="#3f3d56"/>
      <path id="Path_315" data-name="Path 315" d="M807.607,158.979a25.375,25.375,0,0,0,1.959-2.887l-13.825-2.272,14.962.112a25.266,25.266,0,0,0,.477-19.98L791.105,144.36l18.516-13.6a25.219,25.219,0,1,0-41.654,28.22,25.267,25.267,0,0,0-2.875,4.6l17.956,9.33L763.9,166.47a25.219,25.219,0,0,0,4.052,23.679,25.217,25.217,0,1,0,39.64,0,25.216,25.216,0,0,0,0-31.18Z" transform="translate(-762.558 -118.183)" fill="#6c63ff"/>
      <path id="Path_316" data-name="Path 316" d="M762.609,353.552a25.1,25.1,0,0,0,5.4,15.589,25.217,25.217,0,1,0,39.64,0C811.025,364.85,762.609,350.72,762.609,353.552Z" transform="translate(-762.596 -297.165)" opacity="0.1"/>
    </g>
    <g id="Group_7" data-name="Group 7" transform="translate(37.351 53.659)" opacity="0.1">
      <ellipse id="Ellipse_23" data-name="Ellipse 23" cx="3.204" cy="4.195" rx="3.204" ry="4.195" transform="translate(12.078 86.489)" fill="#3f3d56"/>
      <path id="Path_317" data-name="Path 317" d="M241.659,626.67a5.061,5.061,0,0,0,.67-2.565c0-2.317-1.43-4.2-3.206-4.2s-3.2,1.878-3.2,4.2a5.06,5.06,0,0,0,.667,2.565,1722820.3,1722820.3,0,0,1,0,10.254,5.044,5.044,0,0,0-.667,2.562c0,2.319,1.43,4.2,3.2,4.2s3.206-1.878,3.206-4.2a5.044,5.044,0,0,0-.67-2.562,5.244,5.244,0,0,0,0-5.127A5.244,5.244,0,0,0,241.659,626.67Z" transform="translate(-223.829 -553.932)" fill="#3f3d56"/>
      <ellipse id="Ellipse_24" data-name="Ellipse 24" cx="3.204" cy="4.195" rx="3.204" ry="4.195" transform="translate(12.078 60.851)" fill="#3f3d56"/>
      <ellipse id="Ellipse_25" data-name="Ellipse 25" cx="3.204" cy="4.195" rx="3.204" ry="4.195" transform="translate(12.078 55.724)" fill="#3f3d56"/>
      <path id="Path_318" data-name="Path 318" d="M188.489,367.941a15.277,15.277,0,0,1-1.192-1.757l8.421-1.383-9.108.069a15.391,15.391,0,0,1-.293-12.157l12.211,6.343-11.267-8.3a15.351,15.351,0,1,1,25.355,17.179,15.335,15.335,0,0,1,1.75,2.8l-10.931,5.683,11.656-3.912a15.36,15.36,0,0,1-2.474,14.416,15.351,15.351,0,1,1-24.132,0,15.355,15.355,0,0,1,0-18.983Z" transform="translate(-185.199 -343.114)" fill="#6c63ff"/>
      <path id="Path_319" data-name="Path 319" d="M215.9,486.368a15.291,15.291,0,0,1-3.285,9.492,15.351,15.351,0,1,1-24.132,0C186.427,493.259,215.9,484.644,215.9,486.368Z" transform="translate(-185.199 -452.049)" opacity="0.1"/>
    </g>
    <g id="Group_8" data-name="Group 8" transform="translate(104.408 25.158)" opacity="0.1">
      <ellipse id="Ellipse_26" data-name="Ellipse 26" cx="4.288" cy="5.613" rx="4.288" ry="5.613" transform="translate(16.161 115.805)" fill="#3f3d56"/>
      <path id="Path_320" data-name="Path 320" d="M541.986,603.266a6.772,6.772,0,0,0,.894-3.432c0-3.1-1.907-5.613-4.291-5.613s-4.291,2.515-4.291,5.613a6.75,6.75,0,0,0,.9,3.432,7.018,7.018,0,0,0,0,6.862,7.013,7.013,0,0,0,0,6.86,6.75,6.75,0,0,0-.9,3.432c0,3.1,1.921,5.613,4.291,5.613s4.291-2.515,4.291-5.613a6.772,6.772,0,0,0-.894-3.432,7.027,7.027,0,0,0,0-6.86,7.032,7.032,0,0,0,0-6.862Z" transform="translate(-518.142 -505.865)" fill="#3f3d56"/>
      <ellipse id="Ellipse_27" data-name="Ellipse 27" cx="4.288" cy="5.613" rx="4.288" ry="5.613" transform="translate(16.161 81.495)" fill="#3f3d56"/>
      <ellipse id="Ellipse_28" data-name="Ellipse 28" cx="4.288" cy="5.613" rx="4.288" ry="5.613" transform="translate(16.161 74.632)" fill="#3f3d56"/>
      <path id="Path_321" data-name="Path 321" d="M470.924,256.835a20.481,20.481,0,0,1-1.6-2.35l11.267-1.85-12.185.091a20.583,20.583,0,0,1-.393-16.278l16.352,8.481-15.081-11.084a20.545,20.545,0,1,1,33.922,22.99,20.579,20.579,0,0,1,2.341,3.747l-14.626,7.6,15.6-5.244a20.552,20.552,0,0,1-3.311,19.291,20.542,20.542,0,1,1-32.294,0,20.549,20.549,0,0,1,0-25.4Z" transform="translate(-466.519 -223.547)" fill="#6c63ff"/>
      <path id="Path_322" data-name="Path 322" d="M507.6,415.522a20.454,20.454,0,0,1-4.4,12.7,20.542,20.542,0,1,1-32.294,0C468.161,424.727,507.6,413.214,507.6,415.522Z" transform="translate(-466.519 -369.531)" opacity="0.1"/>
    </g>
    <path id="Path_323" data-name="Path 323" d="M335.414,733.438c0,1.638-11.971,3.134-31.762,4.291-3.6.207-7.456.405-11.546.591q-5.3.238-11.113.451-5.63.2-11.692.372c-12.762.365-26.871.627-41.859.758q-5.456.05-11.058.076-5.835.026-11.8.024c-72.258,0-130.831-2.934-130.831-6.555s58.573-6.555,130.831-6.555c31.109,0,59.677.546,82.131,1.452l2.455.1h.014C317.465,729.641,335.414,731.445,335.414,733.438Z" transform="translate(-62.964 -581.753)" fill="#3f3d56"/>
    <path id="Path_324" data-name="Path 324" d="M335.414,733.438c0,1.638-11.971,3.134-31.762,4.291-3.6.207-7.456.405-11.546.591q-5.3.238-11.113.451-5.63.2-11.692.372c-12.762.365-26.871.627-41.859.758q-5.456.05-11.058.076-5.835.026-11.8.024c-72.258,0-130.831-2.934-130.831-6.555s58.573-6.555,130.831-6.555c31.109,0,59.677.546,82.131,1.452l2.455.1h.014C317.465,729.641,335.414,731.445,335.414,733.438Z" transform="translate(-62.964 -581.753)" opacity="0.15"/>
    <path id="Path_325" data-name="Path 325" d="M290.164,731.98c0,1.368-11.971,2.622-31.762,3.576-3.6.174-7.456.338-11.544.493q-5.3.2-11.113.377-5.63.167-11.692.312c-12.764.305-26.873.524-41.861.634q-5.451.041-11.058.062-5.835.021-11.8.021C87.076,737.455,28.5,735,28.5,731.972s58.576-5.482,130.833-5.482c31.106,0,59.674.455,82.128,1.213l2.455.083h.017C272.227,728.8,290.164,730.3,290.164,731.98Z" transform="translate(-28.5 -581.448)" fill="#3f3d56"/>
    <path id="Path_326" data-name="Path 326" d="M159.765,505.707,156.48,495.65l78.66-.861,3.223,9.956Z" transform="translate(-125.974 -404.977)" fill="#3f3d56"/>
    <path id="Path_327" data-name="Path 327" d="M159.765,505.707,156.48,495.65l78.66-.861,3.223,9.956Z" transform="translate(-125.974 -404.977)" opacity="0.15"/>
    <path id="Path_328" data-name="Path 328" d="M137.765,505.707,134.48,495.65l78.66-.861,3.223,9.956Z" transform="translate(-109.218 -404.977)" fill="#3f3d56"/>
    <path id="Path_329" data-name="Path 329" d="M627.708,264.551q-12.2,0-19.229-9.685T601.45,231.4q0-13.873,6.8-23.417t19.179-9.535q13.129,0,19.784,10.057a41.22,41.22,0,0,1,6.658,23.279,38.955,38.955,0,0,1-6.889,22.95Q640.091,264.558,627.708,264.551Zm.238-7.263a12.937,12.937,0,0,0,12-7q3.971-7,3.971-17.639,0-11.847-4.064-19.4T627.384,205.7q-15.97,0-15.97,25.371,0,26.222,16.528,26.22Zm2.679,69.552H618.862l77.011-127.1h11.542Zm68.129,1.3q-12.383,0-19.307-9.773T672.494,294.9q0-13.78,6.75-23.324t19.226-9.535q13.036,0,19.646,10.057a41.422,41.422,0,0,1,6.612,23.276,39.192,39.192,0,0,1-6.843,22.907q-6.843,9.866-19.136,9.859Zm.138-7.449a12.886,12.886,0,0,0,11.932-6.877q3.945-6.877,3.945-17.567,0-11.441-3.993-19.191t-12.44-7.761q-16.063,0-16.063,25.371,0,26.027,16.614,26.025Z" transform="translate(-464.879 -179.274)" fill="#3f3d56"/>
    <path id="Path_330" data-name="Path 330" d="M627.708,264.551q-12.2,0-19.229-9.685T601.45,231.4q0-13.873,6.8-23.417t19.179-9.535q13.129,0,19.784,10.057a41.22,41.22,0,0,1,6.658,23.279,38.955,38.955,0,0,1-6.889,22.95Q640.091,264.558,627.708,264.551Zm.238-7.263a12.937,12.937,0,0,0,12-7q3.971-7,3.971-17.639,0-11.847-4.064-19.4T627.384,205.7q-15.97,0-15.97,25.371,0,26.222,16.528,26.22Zm2.679,69.552H618.862l77.011-127.1h11.542Zm68.129,1.3q-12.383,0-19.307-9.773T672.494,294.9q0-13.78,6.75-23.324t19.226-9.535q13.036,0,19.646,10.057a41.422,41.422,0,0,1,6.612,23.276,39.192,39.192,0,0,1-6.843,22.907q-6.843,9.866-19.136,9.859Zm.138-7.449a12.886,12.886,0,0,0,11.932-6.877q3.945-6.877,3.945-17.567,0-11.441-3.993-19.191t-12.44-7.761q-16.063,0-16.063,25.371,0,26.027,16.614,26.025Z" transform="translate(-464.879 -179.274)" fill="#3f3d56"/>
    <path id="Path_331" data-name="Path 331" d="M627.708,264.551q-12.2,0-19.229-9.685T601.45,231.4q0-13.873,6.8-23.417t19.179-9.535q13.129,0,19.784,10.057a41.22,41.22,0,0,1,6.658,23.279,38.955,38.955,0,0,1-6.889,22.95Q640.091,264.558,627.708,264.551Zm.238-7.263a12.937,12.937,0,0,0,12-7q3.971-7,3.971-17.639,0-11.847-4.064-19.4T627.384,205.7q-15.97,0-15.97,25.371,0,26.222,16.528,26.22Zm2.679,69.552H618.862l77.011-127.1h11.542Zm68.129,1.3q-12.383,0-19.307-9.773T672.494,294.9q0-13.78,6.75-23.324t19.226-9.535q13.036,0,19.646,10.057a41.422,41.422,0,0,1,6.612,23.276,39.192,39.192,0,0,1-6.843,22.907q-6.843,9.866-19.136,9.859Zm.138-7.449a12.886,12.886,0,0,0,11.932-6.877q3.945-6.877,3.945-17.567,0-11.441-3.993-19.191t-12.44-7.761q-16.063,0-16.063,25.371,0,26.027,16.614,26.025Z" transform="translate(-464.879 -179.274)" opacity="0.15"/>
    <path id="Path_332" data-name="Path 332" d="M596.708,264.551q-12.2,0-19.229-9.685T570.45,231.4q0-13.873,6.8-23.417t19.179-9.535q13.129,0,19.784,10.057a41.22,41.22,0,0,1,6.658,23.279,38.956,38.956,0,0,1-6.889,22.95Q609.091,264.558,596.708,264.551Zm.238-7.263a12.937,12.937,0,0,0,12-7q3.971-7,3.971-17.639,0-11.847-4.064-19.4T596.384,205.7q-15.97,0-15.97,25.371,0,26.222,16.528,26.22Zm2.679,69.552H587.862l77.011-127.1h11.542Zm68.129,1.3q-12.383,0-19.307-9.773T641.494,294.9q0-13.78,6.75-23.324t19.226-9.535q13.036,0,19.646,10.057a41.422,41.422,0,0,1,6.612,23.276,39.192,39.192,0,0,1-6.843,22.907q-6.843,9.866-19.136,9.859Zm.138-7.449a12.886,12.886,0,0,0,11.932-6.877q3.945-6.877,3.945-17.567,0-11.441-3.993-19.191T667.333,269.3q-16.063,0-16.063,25.371,0,26.027,16.619,26.025Z" transform="translate(-441.269 -179.274)" fill="#3f3d56"/>
    <path id="Path_333" data-name="Path 333" d="M775.057,622.338c.982-1.821-.133-4.052-1.416-5.678s-2.846-3.313-2.813-5.385c.048-2.972,3.2-4.729,5.721-6.307a27.91,27.91,0,0,0,5.144-4.133,7.551,7.551,0,0,0,1.58-2.117,8.649,8.649,0,0,0,.477-3.759q-.164-6.369-.629-12.719" transform="translate(-593.884 -471.582)" fill="none" stroke="#3f3d56" stroke-miterlimit="10" stroke-width="4"/>
    <path id="Path_334" data-name="Path 334" d="M812.893,567.132a4.631,4.631,0,0,0-2.315-3.8l-1.039,2.055.031-2.489a4.7,4.7,0,0,0-1.528-.184,4.639,4.639,0,1,0,4.851,4.417Z" transform="translate(-618.86 -456.707)" fill="#6c63ff"/>
    <path id="Path_335" data-name="Path 335" d="M779.834,691.406a4.636,4.636,0,1,1,.224-3.735l-2.9,2.357,3.194-.744A4.625,4.625,0,0,1,779.834,691.406Z" transform="translate(-594.072 -549.58)" fill="#6c63ff"/>
    <path id="Path_336" data-name="Path 336" d="M782.693,645.538a4.639,4.639,0,0,1-4.851-4.417,4.586,4.586,0,0,1,.4-2.114,4.646,4.646,0,0,1,2.97-2.572l-.026,1.907,1.051-2.078h0a4.639,4.639,0,1,1,.434,9.268Z" transform="translate(-599.222 -512.725)" fill="#6c63ff"/>
    <path id="Path_337" data-name="Path 337" d="M829.928,614.12a4.641,4.641,0,1,1,2.05-8.681l-.82,2.245,1.688-1.618a4.624,4.624,0,0,1,1.5,3.2,4.531,4.531,0,0,1-.119,1.278A4.641,4.641,0,0,1,829.928,614.12Z" transform="translate(-635.196 -488.798)" fill="#6c63ff"/>
    <path id="Path_338" data-name="Path 338" d="M812.276,576.488c-1.07.117-2.109.451-3.185.517a3.459,3.459,0,0,1-2.934-1.027,14.152,14.152,0,0,1-.858-1.509,3.287,3.287,0,0,0-1.168-1.1,4.639,4.639,0,1,0,8.672,3.077C812.626,576.457,812.452,576.469,812.276,576.488Z" transform="translate(-618.867 -464.826)" opacity="0.1"/>
    <path id="Path_339" data-name="Path 339" d="M829.938,622.617A4.643,4.643,0,0,1,825.526,616a3.475,3.475,0,0,1,.932.934,15.242,15.242,0,0,0,.92,1.533,3.781,3.781,0,0,0,3.075,1.077c1.118-.05,2.2-.369,3.316-.477.155-.014.312-.024.477-.029a4.641,4.641,0,0,1-4.307,3.578Z" transform="translate(-635.206 -497.295)" opacity="0.1"/>
    <path id="Path_340" data-name="Path 340" d="M782.693,654.321a4.639,4.639,0,0,1-4.851-4.417,4.586,4.586,0,0,1,.4-2.114,3.733,3.733,0,0,1,.98.953,15.87,15.87,0,0,0,1.008,1.564,4.291,4.291,0,0,0,3.282,1.149c1.185-.029,2.255-.305,3.4-.393A4.641,4.641,0,0,1,782.693,654.321Z" transform="translate(-599.222 -521.508)" opacity="0.1"/>
    <path id="Path_341" data-name="Path 341" d="M779.786,700.905a13.169,13.169,0,1,0-7.439-2.877,18.2,18.2,0,0,0,1.242,1.649,5.828,5.828,0,0,0,3.842,1.349,19.737,19.737,0,0,0,2.355-.122Z" transform="translate(-594.024 -559.079)" opacity="0.1"/>
    <path id="Path_342" data-name="Path 342" d="M1076.057,621.338c.982-1.821-.134-4.052-1.416-5.678s-2.846-3.313-2.813-5.385c.048-2.972,3.2-4.729,5.721-6.307a27.9,27.9,0,0,0,5.144-4.133,7.55,7.55,0,0,0,1.58-2.117,8.649,8.649,0,0,0,.477-3.759q-.164-6.369-.629-12.719" transform="translate(-823.136 -470.821)" fill="none" stroke="#3f3d56" stroke-miterlimit="10" stroke-width="4"/>
    <path id="Path_343" data-name="Path 343" d="M1113.893,566.132a4.632,4.632,0,0,0-2.315-3.8l-1.039,2.055.031-2.489a4.693,4.693,0,0,0-1.528-.184,4.639,4.639,0,1,0,4.851,4.417Z" transform="translate(-848.112 -455.946)" fill="#6c63ff"/>
    <path id="Path_344" data-name="Path 344" d="M1080.834,690.406a4.636,4.636,0,1,1,.224-3.735l-2.9,2.357,3.194-.744A4.625,4.625,0,0,1,1080.834,690.406Z" transform="translate(-823.325 -548.818)" fill="#6c63ff"/>
    <path id="Path_345" data-name="Path 345" d="M1083.693,644.538a4.639,4.639,0,0,1-4.851-4.417,4.587,4.587,0,0,1,.4-2.114,4.645,4.645,0,0,1,2.97-2.572l-.026,1.907,1.051-2.078h.012a4.639,4.639,0,0,1,.434,9.268Z" transform="translate(-828.474 -511.963)" fill="#6c63ff"/>
    <path id="Path_346" data-name="Path 346" d="M1130.927,613.12a4.641,4.641,0,1,1,2.05-8.681l-.82,2.245,1.688-1.618a4.625,4.625,0,0,1,1.5,3.2,4.531,4.531,0,0,1-.119,1.278A4.641,4.641,0,0,1,1130.927,613.12Z" transform="translate(-864.449 -488.036)" fill="#6c63ff"/>
    <path id="Path_347" data-name="Path 347" d="M1113.276,575.488c-1.07.117-2.109.451-3.185.517a3.46,3.46,0,0,1-2.934-1.027,14.168,14.168,0,0,1-.858-1.509,3.288,3.288,0,0,0-1.168-1.1,4.639,4.639,0,1,0,8.672,3.077C1113.626,575.457,1113.452,575.469,1113.276,575.488Z" transform="translate(-848.12 -464.065)" opacity="0.1"/>
    <path id="Path_348" data-name="Path 348" d="M1130.938,621.617a4.643,4.643,0,0,1-4.412-6.617,3.475,3.475,0,0,1,.932.934,15.266,15.266,0,0,0,.92,1.533,3.781,3.781,0,0,0,3.075,1.077c1.118-.05,2.2-.37,3.316-.477.155-.014.312-.024.477-.029a4.641,4.641,0,0,1-4.307,3.578Z" transform="translate(-864.459 -496.533)" opacity="0.1"/>
    <path id="Path_349" data-name="Path 349" d="M1083.693,653.321a4.639,4.639,0,0,1-4.851-4.417,4.587,4.587,0,0,1,.4-2.114,3.735,3.735,0,0,1,.98.953,15.89,15.89,0,0,0,1.008,1.564,4.291,4.291,0,0,0,3.282,1.149c1.149-.024,2.255-.305,3.4-.393A4.641,4.641,0,0,1,1083.693,653.321Z" transform="translate(-828.474 -520.746)" opacity="0.1"/>
    <path id="Path_350" data-name="Path 350" d="M1080.785,699.905a13.169,13.169,0,1,0-7.439-2.877,18.2,18.2,0,0,0,1.242,1.65,5.828,5.828,0,0,0,3.842,1.349A19.749,19.749,0,0,0,1080.785,699.905Z" transform="translate(-823.276 -558.317)" opacity="0.1"/>
    <path id="Path_351" data-name="Path 351" d="M110.616,608.338c-.982-1.821.133-4.052,1.416-5.678s2.846-3.313,2.813-5.385c-.048-2.972-3.2-4.729-5.721-6.307a27.91,27.91,0,0,1-5.144-4.133,7.551,7.551,0,0,1-1.58-2.117,8.65,8.65,0,0,1-.477-3.759q.164-6.369.629-12.719" transform="translate(-84.413 -460.919)" fill="none" stroke="#3f3d56" stroke-miterlimit="10" stroke-width="4"/>
    <path id="Path_352" data-name="Path 352" d="M84.464,553.132a4.632,4.632,0,0,1,2.315-3.8l1.039,2.055-.031-2.488a4.693,4.693,0,0,1,1.528-.184,4.639,4.639,0,1,1-4.851,4.417Z" transform="translate(-71.12 -446.045)" fill="#6c63ff"/>
    <path id="Path_353" data-name="Path 353" d="M117.52,677.406a4.636,4.636,0,1,0-.224-3.735l2.9,2.357L117,675.285A4.624,4.624,0,0,0,117.52,677.406Z" transform="translate(-95.905 -538.917)" fill="#6c63ff"/>
    <path id="Path_354" data-name="Path 354" d="M114.729,631.538a4.639,4.639,0,0,0,4.851-4.417,4.586,4.586,0,0,0-.4-2.114,4.646,4.646,0,0,0-2.97-2.572l.026,1.907-1.051-2.078h0a4.639,4.639,0,1,0-.434,9.268Z" transform="translate(-90.823 -502.062)" fill="#6c63ff"/>
    <path id="Path_355" data-name="Path 355" d="M67.4,600.122a4.641,4.641,0,1,0-2.038-8.681l.82,2.245-1.7-1.611a4.624,4.624,0,0,0-1.5,3.194,4.529,4.529,0,0,0,.119,1.278A4.641,4.641,0,0,0,67.4,600.122Z" transform="translate(-54.759 -478.137)" fill="#6c63ff"/>
    <path id="Path_356" data-name="Path 356" d="M85.417,562.488c1.07.117,2.11.451,3.185.517a3.459,3.459,0,0,0,2.934-1.027,14.171,14.171,0,0,0,.858-1.509,3.287,3.287,0,0,1,1.168-1.1,4.639,4.639,0,1,1-8.672,3.077C85.066,562.457,85.24,562.469,85.417,562.488Z" transform="translate(-71.449 -454.164)" opacity="0.1"/>
    <path id="Path_357" data-name="Path 357" d="M67.787,608.617A4.643,4.643,0,0,0,72.2,602a3.475,3.475,0,0,0-.932.934,15.251,15.251,0,0,1-.92,1.533,3.781,3.781,0,0,1-3.075,1.077c-1.118-.05-2.2-.369-3.316-.477-.155-.014-.312-.024-.477-.029A4.641,4.641,0,0,0,67.787,608.617Z" transform="translate(-55.142 -486.632)" opacity="0.1"/>
    <path id="Path_358" data-name="Path 358" d="M115.317,640.321a4.639,4.639,0,0,0,4.851-4.417,4.586,4.586,0,0,0-.4-2.114,3.733,3.733,0,0,0-.98.953,15.866,15.866,0,0,1-1.008,1.564,4.291,4.291,0,0,1-3.282,1.149c-1.149-.024-2.255-.305-3.4-.393A4.641,4.641,0,0,0,115.317,640.321Z" transform="translate(-91.411 -510.845)" opacity="0.1"/>
    <path id="Path_359" data-name="Path 359" d="M119.18,686.905a4.639,4.639,0,0,0,8.457-3.785,4.672,4.672,0,0,0-1.018.908,18.194,18.194,0,0,1-1.242,1.649,5.828,5.828,0,0,1-3.842,1.349A19.738,19.738,0,0,1,119.18,686.905Z" transform="translate(-97.565 -548.416)" opacity="0.1"/>
    <path id="Path_360" data-name="Path 360" d="M540.508,608.9a3.7,3.7,0,0,0-1.473-2.984,212.489,212.489,0,0,0-6.5-7.47h0a3.654,3.654,0,0,0-.536-.126h-.052l-.093-.012h-.491a4.241,4.241,0,0,0-4.1,3.626c-1.323-.305-2.536.091-2.753.927a1.133,1.133,0,0,0,.036.67,2.9,2.9,0,0,0,1.943,1.576l.129.038c.064.019.129.033.193.048h.043a3.337,3.337,0,0,0,1.456,4.364.746.746,0,0,0-.086.055,1.192,1.192,0,0,0-.286.4,5.807,5.807,0,0,0-.553,1.332c-.1.4-.112.815-.238,1.208a10.81,10.81,0,0,0-.839,2.1c-.029.338.026.737-.214.968a1.567,1.567,0,0,1-.191.141,1.474,1.474,0,0,0-.419.439,1.4,1.4,0,0,1-.279.386c-.217.164-.574.148-.682.4s.169.551.1.827c-.052.224-.3.327-.477.477a1.69,1.69,0,0,0-.405.77,2.465,2.465,0,0,1-2.033-.517,3.815,3.815,0,0,1,.21.76,3.2,3.2,0,0,0-1.1-.548,3.5,3.5,0,0,1-1.168-.868l.625-.086-2.765-4.2-.815-.167.732,1.4a.439.439,0,0,0-.238.3,1.278,1.278,0,0,0-.029.477,8.838,8.838,0,0,0,.188,1.118l.212.987a2.554,2.554,0,0,0,.069.274,2.781,2.781,0,0,0-.82.093,7.206,7.206,0,0,0-1.7-.4.867.867,0,0,0-.384.019.929.929,0,0,0-.358.291,11.441,11.441,0,0,0-1.263,1.778,59.7,59.7,0,0,1-5.325,7.175c-1.282.522-2.574,1.018-3.869,1.509l-2.782,1.061a4.177,4.177,0,0,1-1.723.391c-.267-.017-.591-.057-.741.169a1.432,1.432,0,0,0-.169.362c-.1,0-.2.024-.286.029H498.2a3.3,3.3,0,0,0-.667-1.228.415.415,0,0,0-.315.238c-.067.124-.107.26-.184.374-.15.219-.41.327-.6.512s-.3.477-.5.658a2,2,0,0,1-.953.37,6.016,6.016,0,0,0-1.48.563,2.533,2.533,0,0,1-.548.253,2.066,2.066,0,0,1-.641.021l-1.473-.107a1.146,1.146,0,0,0-.393.017.732.732,0,0,0-.477.756,1.175,1.175,0,0,0,.465.81,3.1,3.1,0,0,0,.839.436,24.361,24.361,0,0,0,3.945,1.156v.3a6.691,6.691,0,0,0,3.006.715.448.448,0,0,0,.224-.041.5.5,0,0,0,.188-.3,12.157,12.157,0,0,0,.589-2.887h0a1.486,1.486,0,0,0,.532-.136c.508-.138,1.011.21,1.533.267a4.2,4.2,0,0,0,1.85-.536c.088-.033.176-.062.265-.091a2.963,2.963,0,0,1-.608.589c-.253.181-.536.315-.784.5a5.218,5.218,0,0,1-.66.513,3.977,3.977,0,0,1-.508.2,3.443,3.443,0,0,0-.715.36,1.487,1.487,0,0,0-.5.477.651.651,0,0,0,.443,1.015,2.045,2.045,0,0,0,.6.017c.8-.06,1.59-.133,2.384-.2a6.673,6.673,0,0,0,1-.143c.174-.043.346-.1.52-.145a4.21,4.21,0,0,1,.908-.136.753.753,0,0,1,.265.026c.186.06.317.238.505.286a.779.779,0,0,0,.36-.05,8.268,8.268,0,0,1,1.769-.188c.26-.014.565-.064.686-.305.148-.3-.1-.632-.2-.953a2.872,2.872,0,0,1-.081-.625,3.9,3.9,0,0,0-.439-1.485,4.021,4.021,0,0,1-.327-.677,17.228,17.228,0,0,0,3.251-1.649,5.89,5.89,0,0,1,1.854-.891,4.98,4.98,0,0,1,2.329.269,52.363,52.363,0,0,1,5.337,1.862,26.509,26.509,0,0,0,2.522.953,3.928,3.928,0,0,0,.894.872,4.131,4.131,0,0,0,1.943.529,25.506,25.506,0,0,0,2.732.1,4.616,4.616,0,0,0,2.036-.377,2.359,2.359,0,0,0,.427-.281,1.689,1.689,0,0,0,1.34-.5,3.242,3.242,0,0,0,1.025-1.609c.219-.861.05-1.864.579-2.567.141-.188.324-.341.462-.532a1.43,1.43,0,0,0,.238-.865l.024-.036a3.214,3.214,0,0,0,.238-.868,4.964,4.964,0,0,1,.238-.684,20.653,20.653,0,0,0,.7-2.033,11.16,11.16,0,0,0,.324-1.394c.057-.377.091-.756.122-1.135a6.841,6.841,0,0,1,.343-1.742,14.236,14.236,0,0,0,.789-4.176v-.083a2.8,2.8,0,0,0,2.491-2.822,2.99,2.99,0,0,0-.257-1.218,3.78,3.78,0,0,0,.5-1.9Zm-13.479,16.378c.041.145.088.291.136.436-.219-.217-.436-.441-.658-.656.088.026.176.055.262.086a1.579,1.579,0,0,1,.262.133Zm-1.068-.715c-1.3-1.13-2.808-2.007-4.14-3.1.715.36,1.43.777,2.145,1.177q1.249.715,2.527,1.368a2.055,2.055,0,0,1-.524.543Zm.555-2.846.062-.064v.446c-.117-.038-.238-.076-.35-.119a2.957,2.957,0,0,0,.291-.272Zm-11.458,3.061a10.8,10.8,0,0,0,1.39-1.981,12.986,12.986,0,0,0,2.069,2.31c-1.149-.162-2.3-.288-3.456-.339Z" transform="translate(-379.97 -483.822)" fill="url(#linear-gradient)"/>
    <path id="Path_361" data-name="Path 361" d="M574.53,545.12l.822.167,2.8,4.138-1.237.167Z" transform="translate(-437.583 -415.15)" fill="#2f2e41"/>
    <path id="Path_362" data-name="Path 362" d="M519.48,733.525a16.3,16.3,0,0,0,.818,2.145,19.82,19.82,0,0,0,2.732-.779,7.438,7.438,0,0,0-.567-.77,2.677,2.677,0,0,0-.772-.594,2.1,2.1,0,0,0-.937-.014Q520.116,733.537,519.48,733.525Z" transform="translate(-402.448 -586.76)" fill="#fbbebe"/>
    <path id="Path_363" data-name="Path 363" d="M499.223,730.9a1.715,1.715,0,0,1-.934-1.063,3.454,3.454,0,0,0-.7-1.273.417.417,0,0,0-.315.238c-.069.119-.11.255-.188.369-.148.215-.41.319-.6.5s-.305.462-.508.646a2.019,2.019,0,0,1-.953.367,6.041,6.041,0,0,0-1.492.553,2.552,2.552,0,0,1-.553.238,2.1,2.1,0,0,1-.646.021l-1.485-.107a1.159,1.159,0,0,0-.4.019.715.715,0,0,0-.477.744,1.154,1.154,0,0,0,.477.8,3.165,3.165,0,0,0,.844.429,25.437,25.437,0,0,0,3.981,1.137v.293a6.891,6.891,0,0,0,3.03.715.476.476,0,0,0,.238-.041.5.5,0,0,0,.191-.291,11.723,11.723,0,0,0,.617-3.227,2.422,2.422,0,0,0-.062-.829c-.081-.267.2-.155-.062-.26" transform="translate(-379.977 -583.025)" fill="#2f2e41"/>
    <path id="Path_364" data-name="Path 364" d="M554.851,711.124c-4.4.267-8.75-1.025-13.16-1.163a6.578,6.578,0,0,0-1.635.1,8.037,8.037,0,0,0-1.621.629c-2.362,1.1-4.808,2.009-7.251,2.92l-2.8,1.044a4.363,4.363,0,0,1-1.74.384c-.267-.017-.594-.057-.746.167a2.746,2.746,0,0,0,.062,2.427c.1.238.262.512.524.541a1.547,1.547,0,0,0,.536-.136c.51-.136,1.02.207,1.545.262a4.306,4.306,0,0,0,1.866-.527,17.4,17.4,0,0,1,3.194-.541,14.272,14.272,0,0,0,5.006-2.079,5.877,5.877,0,0,1,1.869-.877,5.116,5.116,0,0,1,2.348.265,54.141,54.141,0,0,1,5.38,1.833,24.784,24.784,0,0,0,2.813,1.025,10.168,10.168,0,0,0,6.3-.367c.715-.279,1.468-.77,1.509-1.53.024-.434-.312-.815-.536-1.192-.145-.238-.288-.477-.446-.7C557.108,712.5,556.188,711.043,554.851,711.124Z" transform="translate(-407.134 -568.85)" fill="#2f2e41"/>
    <path id="Path_365" data-name="Path 365" d="M554.851,711.124c-4.4.267-8.75-1.025-13.16-1.163a6.578,6.578,0,0,0-1.635.1,8.037,8.037,0,0,0-1.621.629c-2.362,1.1-4.808,2.009-7.251,2.92l-2.8,1.044a4.363,4.363,0,0,1-1.74.384c-.267-.017-.594-.057-.746.167a2.746,2.746,0,0,0,.062,2.427c.1.238.262.512.524.541a1.547,1.547,0,0,0,.536-.136c.51-.136,1.02.207,1.545.262a4.306,4.306,0,0,0,1.866-.527,17.4,17.4,0,0,1,3.194-.541,14.272,14.272,0,0,0,5.006-2.079,5.877,5.877,0,0,1,1.869-.877,5.116,5.116,0,0,1,2.348.265,54.141,54.141,0,0,1,5.38,1.833,24.784,24.784,0,0,0,2.813,1.025,10.168,10.168,0,0,0,6.3-.367c.715-.279,1.468-.77,1.509-1.53.024-.434-.312-.815-.536-1.192-.145-.238-.288-.477-.446-.7C557.108,712.5,556.188,711.043,554.851,711.124Z" transform="translate(-407.134 -568.85)" opacity="0.1"/>
    <path id="Path_366" data-name="Path 366" d="M554.93,728.774q1.035.35,2.083.648c.393-.646,1.127-1.094,1.294-1.831a.172.172,0,0,0,0-.1.177.177,0,0,0-.079-.071,3.9,3.9,0,0,0-1.633-.477c-.453-.029-.658.443-.863.775C555.662,727.854,555.114,728.836,554.93,728.774Z" transform="translate(-429.448 -581.795)" fill="#fbbebe"/>
    <path id="Path_367" data-name="Path 367" d="M537.26,729.28a1.5,1.5,0,0,1-1.013-.665c-.1-.169-.2-.4-.4-.386s-.262.227-.3.405a11.573,11.573,0,0,1-.57,1.957,3.668,3.668,0,0,1-1.218,1.6c-.255.176-.539.31-.789.5a5.22,5.22,0,0,1-.667.505,3.783,3.783,0,0,1-.512.191,3.518,3.518,0,0,0-.732.355,1.489,1.489,0,0,0-.5.477.641.641,0,0,0,.434,1,2.162,2.162,0,0,0,.608.014c.8-.06,1.6-.131,2.405-.2a6.836,6.836,0,0,0,1.008-.138c.176-.043.348-.1.522-.145a4.417,4.417,0,0,1,.918-.133.779.779,0,0,1,.267.026c.186.06.317.238.508.281a.787.787,0,0,0,.362-.048,8.58,8.58,0,0,1,1.783-.186c.262-.014.572-.064.691-.3.15-.293-.1-.622-.2-.937a2.939,2.939,0,0,1-.083-.615,3.745,3.745,0,0,0-.441-1.461c-.2-.377-.477-.791-.341-1.192a1.044,1.044,0,0,0,.136-.408C539.107,729.127,537.622,729.366,537.26,729.28Z" transform="translate(-410.808 -582.772)" fill="#2f2e41"/>
    <path id="Path_368" data-name="Path 368" d="M608.629,672.89a3.451,3.451,0,0,1-1.754-1.742c-.072-.167-.133-.341-.2-.51a3.9,3.9,0,0,0-1.049-1.454.5.5,0,0,0-.388-.164.415.415,0,0,0-.286.305,1.253,1.253,0,0,0-.031.477,8.981,8.981,0,0,0,.191,1.1l.215.973a1.907,1.907,0,0,0,.133.434,1.51,1.51,0,0,0,.358.427c.2.181.393.355.594.524a2.1,2.1,0,0,0,.36.262,2.207,2.207,0,0,0,.67.2,5.775,5.775,0,0,1,2.5.953s0-.651-.017-.715a.954.954,0,0,0-.186-.522A3.15,3.15,0,0,0,608.629,672.89Z" transform="translate(-467.513 -537.676)" fill="#fbbebe"/>
    <path id="Path_369" data-name="Path 369" d="M608.629,672.89a3.451,3.451,0,0,1-1.754-1.742c-.072-.167-.133-.341-.2-.51a3.9,3.9,0,0,0-1.049-1.454.5.5,0,0,0-.388-.164.415.415,0,0,0-.286.305,1.253,1.253,0,0,0-.031.477,8.981,8.981,0,0,0,.191,1.1l.215.973a1.907,1.907,0,0,0,.133.434,1.51,1.51,0,0,0,.358.427c.2.181.393.355.594.524a2.1,2.1,0,0,0,.36.262,2.207,2.207,0,0,0,.67.2,5.775,5.775,0,0,1,2.5.953s0-.651-.017-.715a.954.954,0,0,0-.186-.522A3.15,3.15,0,0,0,608.629,672.89Z" transform="translate(-467.513 -537.676)" opacity="0.1"/>
    <ellipse id="Ellipse_29" data-name="Ellipse 29" cx="1.07" cy="1.077" rx="1.07" ry="1.077" transform="translate(149.008 125.622)" fill="#2f2e41"/>
    <path id="Path_370" data-name="Path 370" d="M631.63,646.715a1.192,1.192,0,0,0-.846.122,1.139,1.139,0,0,0-.288.4,5.624,5.624,0,0,0-.558,1.311c-.1.393-.112.8-.238,1.192-.219.715-.782,1.323-.846,2.069-.029.334.026.727-.217.953a1.4,1.4,0,0,1-.193.136,1.464,1.464,0,0,0-.422.434,1.377,1.377,0,0,1-.3.412c-.219.162-.579.145-.686.4s.169.541.1.813c-.052.222-.3.324-.477.477a1.651,1.651,0,0,0-.408.76,2.524,2.524,0,0,1-2.048-.512,6.455,6.455,0,0,1,.317,2.343.968.968,0,0,1-.188.715,12.114,12.114,0,0,1,2.515.436,1.726,1.726,0,0,0,1.1,0,1.81,1.81,0,0,0,.5-.4,3.192,3.192,0,0,0,1.037-1.595,8.655,8.655,0,0,0,.019-1.085,6.223,6.223,0,0,1,.274-1.313,15.365,15.365,0,0,0,.477-2.705c.05-.565.536-1.018.794-1.523a7.527,7.527,0,0,0,1.015-3.01C632.1,647.187,631.983,646.76,631.63,646.715Z" transform="translate(-482.214 -520.666)" fill="#2f2e41"/>
    <path id="Path_371" data-name="Path 371" d="M631.63,646.715a1.192,1.192,0,0,0-.846.122,1.139,1.139,0,0,0-.288.4,5.624,5.624,0,0,0-.558,1.311c-.1.393-.112.8-.238,1.192-.219.715-.782,1.323-.846,2.069-.029.334.026.727-.217.953a1.4,1.4,0,0,1-.193.136,1.464,1.464,0,0,0-.422.434,1.377,1.377,0,0,1-.3.412c-.219.162-.579.145-.686.4s.169.541.1.813c-.052.222-.3.324-.477.477a1.651,1.651,0,0,0-.408.76,2.524,2.524,0,0,1-2.048-.512,6.455,6.455,0,0,1,.317,2.343.968.968,0,0,1-.188.715,12.114,12.114,0,0,1,2.515.436,1.726,1.726,0,0,0,1.1,0,1.81,1.81,0,0,0,.5-.4,3.192,3.192,0,0,0,1.037-1.595,8.655,8.655,0,0,0,.019-1.085,6.223,6.223,0,0,1,.274-1.313,15.365,15.365,0,0,0,.477-2.705c.05-.565.536-1.018.794-1.523a7.527,7.527,0,0,0,1.015-3.01C632.1,647.187,631.983,646.76,631.63,646.715Z" transform="translate(-482.214 -520.666)" opacity="0.1"/>
    <path id="Path_372" data-name="Path 372" d="M580.858,689.824a9.88,9.88,0,0,1-2.329-1.945c-1.416-1.33-3.146-2.269-4.634-3.516a29.727,29.727,0,0,0-2.951-2.477,7.328,7.328,0,0,0-3.161-1.108.876.876,0,0,0-.386.019.928.928,0,0,0-.36.286,11.229,11.229,0,0,0-1.275,1.752c-1.885,3.2-4.562,5.89-6.781,8.867a.4.4,0,0,0-.026.539l.451.884c.253.493.658,1.07,1.192.973a1.323,1.323,0,0,0,.632-.4l2.026-1.938,2.124-2.031A16.387,16.387,0,0,0,568.7,685.8c.634,1.1,1.759,1.819,2.531,2.827.293.381.532.8.794,1.208.422.651.9,1.261,1.375,1.869l2.438,3.111a4.718,4.718,0,0,0,1.127,1.144,4.327,4.327,0,0,0,1.959.522,25.231,25.231,0,0,0,2.753.1,4.723,4.723,0,0,0,2.05-.369,1.888,1.888,0,0,0,1.113-1.652,2.453,2.453,0,0,0-.35-1.032A8.136,8.136,0,0,0,580.858,689.824Z" transform="translate(-432.443 -546.623)" fill="#2f2e41"/>
    <ellipse id="Ellipse_30" data-name="Ellipse 30" cx="0.822" cy="0.827" rx="0.822" ry="0.827" transform="translate(149.914 126.619)" fill="#e8e8f0"/>
    <path id="Path_373" data-name="Path 373" d="M656.517,641.8a1.573,1.573,0,0,1,.091,1.192,4.609,4.609,0,0,1-.529,1.1,5.465,5.465,0,0,1-.689.982,7.065,7.065,0,0,0,3.623-1.042,5.2,5.2,0,0,0,2.286-1.993,1.058,1.058,0,0,1-.841-.155,3.15,3.15,0,0,1-.646-.6l-.636-.715a2.861,2.861,0,0,1-.393-.517,1.431,1.431,0,0,1-.169-.832,4.77,4.77,0,0,1-.844.7c-.455.3-.953.512-1.414.806-.162.1-.522.274-.429.477S656.389,641.575,656.517,641.8Z" transform="translate(-505.962 -514.98)" fill="#fbbebe"/>
    <path id="Path_374" data-name="Path 374" d="M656.517,641.8a1.573,1.573,0,0,1,.091,1.192,4.609,4.609,0,0,1-.529,1.1,5.465,5.465,0,0,1-.689.982,7.065,7.065,0,0,0,3.623-1.042,5.2,5.2,0,0,0,2.286-1.993,1.058,1.058,0,0,1-.841-.155,3.15,3.15,0,0,1-.646-.6l-.636-.715a2.861,2.861,0,0,1-.393-.517,1.431,1.431,0,0,1-.169-.832,4.77,4.77,0,0,1-.844.7c-.455.3-.953.512-1.414.806-.162.1-.522.274-.429.477S656.389,641.575,656.517,641.8Z" transform="translate(-505.962 -514.98)" opacity="0.1"/>
    <path id="Path_375" data-name="Path 375" d="M644.119,650.131a1.075,1.075,0,0,0,0,1.242c.036.045.172.329.238.331a.217.217,0,0,0,.145-.074,10.1,10.1,0,0,0,.806-.953,1.778,1.778,0,0,1,1.025-.672,2.243,2.243,0,0,1,1.414.439,1.349,1.349,0,0,1,.477.4,1.3,1.3,0,0,1,.16.539,25.223,25.223,0,0,1,.143,3.423,13.166,13.166,0,0,1-.162,2.462c-.081.42-.2.829-.26,1.254a8.439,8.439,0,0,0-.05,1.125v1.573a3.994,3.994,0,0,0,.062.86,10.506,10.506,0,0,0,.346,1,6.579,6.579,0,0,1,.238,1.192l.215,1.628a1.988,1.988,0,0,1-.193,1.487c-.138.188-.324.336-.477.522-.536.682-.358,1.671-.6,2.517a3.187,3.187,0,0,1-1.035,1.585,1.674,1.674,0,0,1-1.361.477,1.867,1.867,0,0,1-1.239-1.464,5.684,5.684,0,0,0-.636-1.907,5.029,5.029,0,0,0-1.259-1.054,2.182,2.182,0,0,1-.982-1.278c-.043-.238-.017-.477-.041-.715a1.7,1.7,0,0,0-1.054-1.383c-.339-.131-.758-.179-.953-.477a2.3,2.3,0,0,0,.992-1.332,6.84,6.84,0,0,0,.238-1.669l.114-1.893a6.267,6.267,0,0,1,.446-2.446c.167-.338.374-.658.546-.994a11.028,11.028,0,0,0,.586-1.459c.269-.775.541-1.552.782-2.336a4.631,4.631,0,0,1,.429-1.089C643.445,650.632,643.738,650.2,644.119,650.131Z" transform="translate(-493.547 -523.184)" fill="#e8e8f0"/>
    <path id="Path_376" data-name="Path 376" d="M642.39,661.393l.5.017.107-.756a1.628,1.628,0,0,1,.1-.441,2.8,2.8,0,0,1,.288-.422,5.474,5.474,0,0,0,.579-2.467,12.26,12.26,0,0,1,1.1-3.225l.973-2.167a3.122,3.122,0,0,0,.207-.555,3.044,3.044,0,0,0,.06-.641c0-.334.11-1.552.117-1.888,0-.124-.272-.055-.329-.164-.122-.238-.288.41-.517.553a1.268,1.268,0,0,0-.448.655c-.21.546-.338,1.12-.534,1.669a3.43,3.43,0,0,1-.908,1.475c-.2.176-.429.315-.617.5a3.379,3.379,0,0,0-.684,2.384C642.376,656.442,642.278,661.393,642.39,661.393Z" transform="translate(-496.021 -522.148)" fill="#2f2e41"/>
    <path id="Path_377" data-name="Path 377" d="M658.211,646.613a1.734,1.734,0,0,0-.889,1.225,5.994,5.994,0,0,1-.455,1.5c-.61,1.063-2.167,1.373-2.6,2.522a4.612,4.612,0,0,0-.174,1.192c-.076.822-.348,1.618-.429,2.441a10.754,10.754,0,0,0,.045,1.919l.546,6.491a8.582,8.582,0,0,1-.164,2.86,2.748,2.748,0,0,0,1.635-.269c.512-.238.98-.553,1.471-.825a14.944,14.944,0,0,0,2.519-1.43,1.494,1.494,0,0,0,.341-.374,3.22,3.22,0,0,0,.238-.856,4.811,4.811,0,0,1,.238-.672,19.971,19.971,0,0,0,.715-2,10.791,10.791,0,0,0,.327-1.375c.06-.37.091-.744.124-1.116a6.569,6.569,0,0,1,.346-1.716,13.76,13.76,0,0,0,.794-4.112,2.061,2.061,0,0,0-.04-.605,3.245,3.245,0,0,0-.329-.686c-.226-.427-.362-.9-.577-1.328a6.461,6.461,0,0,0-2.226-2.341C659.21,646.754,658.707,646.425,658.211,646.613Z" transform="translate(-504.631 -520.569)" fill="#2f2e41"/>
    <path id="Path_378" data-name="Path 378" d="M606.149,684.261a3.91,3.91,0,0,1-1.037-.787c-.136-.16-.238-.338-.386-.5a2.548,2.548,0,0,0-1.3-.744,6.288,6.288,0,0,0-1.511-.145,2.685,2.685,0,0,0-1,.122,1.013,1.013,0,0,0-.667.715,1.177,1.177,0,0,0,.508,1.056,2.453,2.453,0,0,0,1.013.493,8.4,8.4,0,0,0,.915.107,13.306,13.306,0,0,1,4.989,2.062q2.081,1.175,4.243,2.2a8.5,8.5,0,0,0,.071-1.3c0-.324-.024-.82-.331-1.011a6.793,6.793,0,0,0-1.349-.408,21.4,21.4,0,0,1-2.715-1.1C607.086,684.788,606.609,684.533,606.149,684.261Z" transform="translate(-463.948 -547.627)" fill="#fbbebe"/>
    <ellipse id="Ellipse_31" data-name="Ellipse 31" cx="3.211" cy="3.23" rx="3.211" ry="3.23" transform="translate(146.868 119.994)" fill="#fbbebe"/>
    <path id="Path_379" data-name="Path 379" d="M651.4,660.838a5.221,5.221,0,0,0-.622,1.161,24.808,24.808,0,0,0-1.33,2.384c-.329.9-.317,1.969-.953,2.677a.923.923,0,0,0-.279.405,2,2,0,0,1-.033.293c-.091.257-.513.269-.591.532-.021.076,0,.16-.038.238-.064.169-.286.193-.436.3-.312.212-.238.7-.477,1.008a.846.846,0,0,1-.8.281A2.972,2.972,0,0,1,645,669.8a.748.748,0,0,0-.3-.093.608.608,0,0,0-.346.117,2.135,2.135,0,0,0-.868,1.831,5.959,5.959,0,0,0,.493,2.045.86.86,0,0,0,.164.305.716.716,0,0,0,.8.057,3.73,3.73,0,0,1,.779-.348c.5-.091.982.253,1.485.224a2.093,2.093,0,0,0,1-.443,5.555,5.555,0,0,0,1.354-1.156c.219-.288.381-.617.574-.925a10.486,10.486,0,0,1,.81-1.082l1.852-2.267a4.867,4.867,0,0,0,.5-.689,5.046,5.046,0,0,0,.388-1.034,8.176,8.176,0,0,0,.384-1.843,7.346,7.346,0,0,0-.136-1.547,5.373,5.373,0,0,0-.4-1.471C653.132,660.647,652.152,659.956,651.4,660.838Z" transform="translate(-496.898 -531.133)" fill="#2f2e41"/>
    <path id="Path_380" data-name="Path 380" d="M652.063,611.05a3.616,3.616,0,0,0-1.487-2.939,4.29,4.29,0,0,0-3.649-4.183,4.171,4.171,0,0,0-8.216.222c-1.335-.3-2.555.091-2.777.913-.238.86.715,1.866,2.126,2.248a3.9,3.9,0,0,0,1.361.136,4.183,4.183,0,0,0,2.875,1.788,4.274,4.274,0,0,0,3.134,3.235,3.575,3.575,0,0,0,.968,1.34c0,.1-.017.2-.017.307a2.72,2.72,0,1,0,5.435,0,2.861,2.861,0,0,0-.26-1.192A3.654,3.654,0,0,0,652.063,611.05Z" transform="translate(-491.115 -485.552)" fill="#f86d70"/>
    <path id="Path_381" data-name="Path 381" d="M636.809,605.165c.222-.822,1.43-1.213,2.777-.913a4.241,4.241,0,0,1,4.131-3.576h.276a4.053,4.053,0,0,0-1.192-.176,4.241,4.241,0,0,0-4.131,3.576c-1.335-.3-2.555.091-2.777.913-.238.861.715,1.866,2.126,2.248a4.079,4.079,0,0,0,.8.138C637.483,606.983,636.582,606.006,636.809,605.165Z" transform="translate(-491.085 -485.49)" opacity="0.1"/>
    <path id="Path_382" data-name="Path 382" d="M658.881,636.673a1.917,1.917,0,0,1,.017-.31,3.562,3.562,0,0,1-.968-1.337,4.29,4.29,0,0,1-3.134-3.237A4.176,4.176,0,0,1,651.921,630a3.8,3.8,0,0,1-.8-.021,4.169,4.169,0,0,0,2.77,1.645,4.274,4.274,0,0,0,3.134,3.235,3.576,3.576,0,0,0,.968,1.34c0,.1-.017.2-.017.307a2.767,2.767,0,0,0,2.7,2.813,2.808,2.808,0,0,1-1.8-2.646Z" transform="translate(-502.71 -507.943)" opacity="0.1"/>
    <ellipse id="Ellipse_32" data-name="Ellipse 32" cx="0.496" cy="0.66" rx="0.496" ry="0.66" transform="translate(150.355 123.656) rotate(-37.22)" fill="#fbbebe"/>
    <path id="Path_383" data-name="Path 383" d="M307.036,689.32l3.175-1.866a7.627,7.627,0,0,0-1.623-1.943l-5.988,1.862,4.691-2.758A7.628,7.628,0,0,0,296,691.305c0,4.212,3.416,4.357,7.628,4.357s7.628-.145,7.628-4.357a7.568,7.568,0,0,0-.656-3.1Z" transform="translate(-232.238 -548.84)" fill="#6c63ff"/>
    <path id="Path_384" data-name="Path 384" d="M307.844,709.008a5.959,5.959,0,0,0-1.125-.884,5.2,5.2,0,0,0-1.852-.9,14,14,0,0,0-1.819-.052,4.25,4.25,0,0,1-2.786-1.278,8.546,8.546,0,0,0-1.3-1.342,2.837,2.837,0,0,0-1.94-.355,4.709,4.709,0,0,0-.574.117A7.628,7.628,0,0,0,296,706.9c0,4.212,3.416,4.357,7.628,4.357a16,16,0,0,0,5.27-.551l-.238-.427A5.928,5.928,0,0,0,307.844,709.008Z" transform="translate(-232.238 -564.433)" opacity="0.1"/>
  </g>
</svg>
