<svg xmlns="http://www.w3.org/2000/svg" xmlns:xlink="http://www.w3.org/1999/xlink" width="290.98" height="208" viewBox="0 0 290.98 208">
  <defs>
    <linearGradient id="linear-gradient" x1="0.5" y1="1" x2="0.5" gradientUnits="objectBoundingBox">
      <stop offset="0" stop-color="gray" stop-opacity="0.251"/>
      <stop offset="0.54" stop-color="gray" stop-opacity="0.122"/>
      <stop offset="1" stop-color="gray" stop-opacity="0.102"/>
    </linearGradient>
    <linearGradient id="linear-gradient-2" x1="0.5" y1="1" x2="0.5" xlink:href="#linear-gradient"/>
  </defs>
  <g id="security" transform="translate(0.033 -0.003)">
    <path id="Path_385" data-name="Path 385" d="M367.63,179.88c-6.74,13.9-20.427,23.2-34.611,29.334a131.572,131.572,0,0,1-60.862,10.147q-5.452-.363-10.87-1.159a137.1,137.1,0,0,1-36.346-10.584q-5.008-2.255-9.813-4.924a125.531,125.531,0,0,1-15.338-10.031q-1.834-1.4-3.618-2.872c-.824-.68-1.641-1.375-2.471-2.05a31.18,31.18,0,0,0-5.561-3.788,19.871,19.871,0,0,0-1.862-.822c-6.362-2.42-13.7-1.507-20.323.381-5.038,1.436-9.95,3.4-14.983,4.8a49.726,49.726,0,0,1-6.827,1.451,36.33,36.33,0,0,1-15.338-1.347l-.424-.132q-1.065-.335-2.113-.733l-.424-.162q-1.015-.391-1.986-.84l-.424-.193q-1.015-.472-1.986-1c-.233-.122-.464-.254-.693-.378a41.521,41.521,0,0,1-9.934-7.735c-.084-.084-.162-.17-.254-.254-.4-.436-.8-.88-1.182-1.334-.142-.167-.284-.335-.424-.507q-.682-.832-1.317-1.7c-.063-.084-.124-.17-.185-.254a36.681,36.681,0,0,1-4.277-7.735c-.036-.084-.068-.17-.1-.254q-.507-1.306-.926-2.656c-.114-.375-.223-.761-.32-1.137-.033-.112-.063-.226-.091-.337-1.4-5.513-1.56-11.243-1.56-16.941v-1.991c.041-9.216.183-18.59,1.542-27.68a1.155,1.155,0,0,1,.028-.188,86.447,86.447,0,0,1,1.854-9.087,67.037,67.037,0,0,1,3.123-9.209,85.552,85.552,0,0,1,12.727-20.257C132.188,60.114,148.873,47.006,168.4,42.1a72.016,72.016,0,0,1,61.4,13.293c5.175,4.12,9.825,9,15.637,12.157,5.074,2.75,11.013,3.889,16.447,1.725,4.49-1.788,7.413-2.676,12.456-2.4a104.407,104.407,0,0,1,30.534,6.4c.4.145.792.294,1.185.444,25.549,9.775,47.51,29.194,58.926,54.15q.454.989.88,1.994C372.678,145.751,375.139,164.384,367.63,179.88Z" transform="translate(-81.287 -40.04)" fill="#6c63ff" opacity="0.1"/>
    <ellipse id="Ellipse_33" data-name="Ellipse 33" cx="22.396" cy="3.597" rx="22.396" ry="3.597" transform="translate(8.451 181.295)" fill="#6c63ff" opacity="0.1"/>
    <ellipse id="Ellipse_34" data-name="Ellipse 34" cx="39.71" cy="3.856" rx="39.71" ry="3.856" transform="translate(192.047 200.291)" fill="#6c63ff" opacity="0.1"/>
    <rect id="Rectangle_182" data-name="Rectangle 182" width="241.087" height="136.567" rx="12.49" transform="translate(29.792 27.337)" fill="url(#linear-gradient)"/>
    <rect id="Rectangle_183" data-name="Rectangle 183" width="240.348" height="134.193" rx="12.49" transform="translate(30.175 29.257)" fill="#fff"/>
    <rect id="Rectangle_184" data-name="Rectangle 184" width="240.348" height="134.193" rx="12.49" transform="translate(30.175 29.257)" fill="#fff"/>
    <rect id="Rectangle_185" data-name="Rectangle 185" width="240.348" height="134.193" rx="12.49" transform="translate(30.175 29.257)" fill="#fff" opacity="0.04"/>
    <path id="Path_386" data-name="Path 386" d="M383.748,149.29H145.84a1.22,1.22,0,0,0-1.22,1.22v5.157H384.958V150.51A1.22,1.22,0,0,0,383.748,149.29Z" transform="translate(-114.445 -121.572)" fill="#5a5773"/>
    <g id="buttons" transform="translate(33.325 29.257)">
      <circle id="Ellipse_35" data-name="Ellipse 35" cx="1.649" cy="1.649" r="1.649" fill="#fff"/>
      <circle id="Ellipse_36" data-name="Ellipse 36" cx="1.649" cy="1.649" r="1.649" transform="translate(4.44)" fill="#fff"/>
      <circle id="Ellipse_37" data-name="Ellipse 37" cx="1.649" cy="1.649" r="1.649" transform="translate(8.879)" fill="#fff"/>
    </g>
    <rect id="Rectangle_186" data-name="Rectangle 186" width="64.5" height="5.475" transform="translate(49.97 46.09)" fill="#6c63ff" opacity="0.2"/>
    <rect id="Rectangle_187" data-name="Rectangle 187" width="200.758" height="84.214" transform="translate(49.97 68.041)" fill="#5a5773" opacity="0.1"/>
    <path id="Path_387" data-name="Path 387" d="M568.195,269.317h-3.437V262.64a13.729,13.729,0,1,0-27.456-.185v6.862h-3.43a5.738,5.738,0,0,0-5.721,5.721v27.454a5.738,5.738,0,0,0,5.721,5.721h34.324a5.736,5.736,0,0,0,5.718-5.721V275.038a5.736,5.736,0,0,0-5.718-5.721Zm-15.158,17.847V297a2.052,2.052,0,0,1-1.9,2.06,2.007,2.007,0,0,1-2.1-2v-9.894a4.566,4.566,0,1,1,4,0Zm7.722-17.847H541.3v-6.862a9.724,9.724,0,0,1,19.448,0Z" transform="translate(-400.679 -195.784)" opacity="0.1"/>
    <path id="Path_388" data-name="Path 388" d="M568.195,267.317h-3.437V260.64a13.729,13.729,0,1,0-27.456-.185v6.862h-3.43a5.738,5.738,0,0,0-5.721,5.721v27.454a5.738,5.738,0,0,0,5.721,5.721h34.324a5.736,5.736,0,0,0,5.718-5.721V273.038A5.736,5.736,0,0,0,568.195,267.317Zm-15.158,17.847V295a2.052,2.052,0,0,1-1.9,2.06,2.007,2.007,0,0,1-2.1-2v-9.894a4.566,4.566,0,1,1,4,0Zm7.722-17.847H541.3v-6.862a9.724,9.724,0,0,1,19.448,0Z" transform="translate(-400.679 -194.291)" fill="#6c63ff"/>
    <rect id="Rectangle_188" data-name="Rectangle 188" width="20.32" height="4.797" transform="translate(230.407 59.936)" fill="#5a5773" opacity="0.1"/>
    <path id="Path_389" data-name="Path 389" d="M896.534,431.357a7.22,7.22,0,0,0-.68-1.931l-3.044-4.546h.018a7.669,7.669,0,0,1,0-3.4c.48-1.121-1.71-3.879-1.71-3.879a1.636,1.636,0,0,1,.429-1.545c.7-.852-.429-3.349-.429-3.349s-.533-5.213-.586-6.01-.482-5.211-.482-5.211l-1.015-9.359-1.806-24.8-.033-.464c.223-.109.343-.178.343-.178l-.36-13.714.312-.282c2.725-2.466,9.008-8.174,8.945-8.3s-.761-9.531-.842-11.885a14.165,14.165,0,0,0-1.081-4.866c-.157-.312-.611-2.369-.8-3.24-.051-.238-.084-.388-.084-.388s-1.842-3.511-1.682-5.107.479-2.791-3.448-3.349a15.218,15.218,0,0,1-5.262-1.834,14.967,14.967,0,0,0-3.77-1.887s-1.1-2.029-1.867-1.342a10.655,10.655,0,0,1-.723-2.26l-.023-.142a7.476,7.476,0,0,0,2.953-4.226c.025-.1.046-.2.068-.292a.825.825,0,0,0,.236.043c.667,0,1.078-.743,1.7-.979.254-.1.566-.114.761-.315a.744.744,0,0,0,.167-.561,1.144,1.144,0,0,0,0-.208q0-.037,0-.074v.025c-.17-.923-.885-1.743-.807-2.681.076-.883.852-1.659.789-2.519a1.379,1.379,0,0,0-.018-.2v.03a2.172,2.172,0,0,0-.507-.9,2.881,2.881,0,0,0-1.045-.878c-.353-.155-.761-.19-1.091-.375-.969-.528-.967-1.9-1.542-2.841a2.514,2.514,0,0,0-2.352-1.164c-.721.071-1.372.454-2.085.578a5.453,5.453,0,0,1-2.889-.507,7.955,7.955,0,0,0-2.852-.761,2.421,2.421,0,0,0-2.364,1.443c-.16.507-.081,1.053-.2,1.568a3.414,3.414,0,0,1-1.839,2.009c-.507.282-1.111.6-1.268,1.137V295.4a.983.983,0,0,0-.025.129.953.953,0,0,0,0,.17,3.2,3.2,0,0,0,.322,1.06,2.925,2.925,0,0,1-.015,2.045c-.188.482-.507.906-.69,1.385a2.729,2.729,0,0,0-.167.7v-.041a2.771,2.771,0,0,0,0,.325,2.284,2.284,0,0,0,.254,1.065,1.913,1.913,0,0,0,1.139.956c.507.117.825-.381,1.36-.254a2.14,2.14,0,0,1,.282.089c.018.114.036.228.056.34a7.456,7.456,0,0,0,2.572,4.356,1.633,1.633,0,0,0,.028.185h0a17.03,17.03,0,0,1,.211,3.059s-.8-1.17-1.9,1.088a23.023,23.023,0,0,1-3.846,1.837c-.987.188-4.49,1.408-4.49,1.408a3.09,3.09,0,0,1-1.816.586c-1.093,0-2,2.392-1.87,3.694s-.079,2.26-1.1,2.314-.462,2.116-.454,2.151l-.094.444c-.2.908-.629,2.857-.781,3.161a14.208,14.208,0,0,0-1.083,4.866c-.079,2.354-.761,11.725-.84,11.885-.053.1,4.252,4.039,7.278,6.789l.439.4-1.393,13.009a3.473,3.473,0,0,0,1.431,2.537c0,.152,0,.307-.015.467a16.266,16.266,0,0,1-.426,3.846c-.426.852-.32,5.424-.32,5.424s-.429,9.305-.961,10.317a7.04,7.04,0,0,0-.482,3.552c.16.416-.535,11.591-.535,11.591l-.533,5s.16,4.785-.322,4.891-.748,3.4-.748,3.4-1.707,2.339-.961,3.189-.109,1.225-.188,1.436-1.629,1.015-.507,3.988a.862.862,0,0,0,.035.086c-1.05,1.459-4.379,6.165-4.176,6.88a1.885,1.885,0,0,0,.888,1.065c.784.469,2.128.688,4.267,0,3.552-1.144,3.3-1.969,3.3-1.969a1.507,1.507,0,0,1,1.5-1.436,4.2,4.2,0,0,0,2.565-1.461l-.172-.642-.236-.888c.028-.254.208-.7,1.015-.944,1.23-.373.908-2.712.908-2.712s-.107-2.446.426-2.765.322-4.361.322-4.361a29.97,29.97,0,0,1,1.441-4.894c.852-1.969,1.872-13.664,1.872-13.664a53.939,53.939,0,0,1,1.334-7.392,41.842,41.842,0,0,0,1.23-6.274S871.954,375.2,872,373.5c0,0,.507-1.6,1.015.16s1.933,5.957,1.933,5.957l1.388,5.158,1.657,7.71,1.071,6.489a10.091,10.091,0,0,0,.254,3.3c.416.852,1.015,2.816.7,3.189s.639,2.128.908,2.5,0,8.242,0,8.242,1.228,6.7,2.991,7.864a2.151,2.151,0,0,0,.391.2c-.025.726-.051,1.7-.018,2.2a.844.844,0,0,0,.056.332,9.273,9.273,0,0,0,2.352,1.649c.375,0,1.707.931,1.763,1.383s3.9,2.364,4.45,2.42,3.189.53,3.552-.213A1.23,1.23,0,0,0,896.534,431.357Zm-9.455-95.823.274.236s.282,2.194.482,2.851a5.507,5.507,0,0,1-.041,1.936,4.454,4.454,0,0,0,.282,1.4c.239.479-.482,1.522-.482,1.522h-.642l-.2-8.214Zm-19.085-24.526v-.048a.158.158,0,0,0-.008.048Zm-9.856,31.622a.926.926,0,0,1-.041-.677,2.03,2.03,0,0,0,.135-.375,5.81,5.81,0,0,0,.147-1.015.08.08,0,0,0,0-.013,5.365,5.365,0,0,1-.038-1.923c.19-.624.479-2.851.479-2.851l.183-.155.424-.368a3.011,3.011,0,0,1,.03-.363,28.259,28.259,0,0,1,.046,4.166,6.174,6.174,0,0,0-.8,2.364,9.709,9.709,0,0,1-.165,1.974A4.043,4.043,0,0,1,858.138,342.63Z" transform="translate(-638.891 -226.049)" fill="url(#linear-gradient-2)"/>
    <path id="Path_390" data-name="Path 390" d="M936.487,358.971v3.156l-6.474,3.255s-6.428-3.889-4.843-5.437c1.015-.979.819-3.668.545-5.518h0c-.16-1.076-.345-1.865-.345-1.865s11.548-3.3,9.8-.794a3.938,3.938,0,0,0-.434,2.993A13.6,13.6,0,0,0,936.487,358.971Z" transform="translate(-696.792 -271.984)" fill="#c37098"/>
    <path id="Path_391" data-name="Path 391" d="M868.495,445.932l-.835,10.279s-1.251-1.134-2.869-2.61c-3-2.737-7.263-6.652-7.212-6.756.079-.16.761-9.485.835-11.829a14.155,14.155,0,0,1,1.071-4.84,30.1,30.1,0,0,0,.761-3.148c.061-.282.1-.464.1-.464l1.4-.563s5.835,6.51,5.835,6.629-.4,5.119-.4,5.119l-.414.36-.18.155s-.279,2.184-.477,2.839a5.1,5.1,0,0,0,.038,1.913h0A5.9,5.9,0,0,1,866,444.03a2.123,2.123,0,0,1-.134.373.931.931,0,0,0,.041.675,4.078,4.078,0,0,0,.436.835Z" transform="translate(-646.535 -328.085)" fill="#3f3d56"/>
    <path id="Path_392" data-name="Path 392" d="M1007.909,446.868c.061.124-6.162,5.8-8.859,8.258l-1.223,1.109L997,445.955h2.144s.715-1.033.477-1.509a4.41,4.41,0,0,1-.277-1.388,5.529,5.529,0,0,0,.038-1.926c-.2-.657-.477-2.839-.477-2.839l-.271-.233-.322-.282s-.4-5-.4-5.119,5.835-6.629,5.835-6.629l1.39.556s.03.15.081.388c.188.865.637,2.912.792,3.224a14.155,14.155,0,0,1,1.071,4.84C1007.147,437.383,1007.827,446.708,1007.909,446.868Z" transform="translate(-750.587 -328.107)" fill="#3f3d56"/>
    <path id="Path_393" data-name="Path 393" d="M1004.551,826.653c-.373.741-2.991.254-3.531.213s-4.356-1.961-4.409-2.41-1.375-1.375-1.745-1.375a9.279,9.279,0,0,1-2.329-1.641.811.811,0,0,1-.053-.33c-.056-.87.053-3.11.053-3.11l7.674.424,3.729,5.609a7.234,7.234,0,0,1,.675,1.92A1.268,1.268,0,0,1,1004.551,826.653Z" transform="translate(-747.205 -620.639)" fill="#3f3d56"/>
    <path id="Path_394" data-name="Path 394" d="M1004.551,826.653c-.373.741-2.991.254-3.531.213s-4.356-1.961-4.409-2.41-1.375-1.375-1.745-1.375a9.279,9.279,0,0,1-2.329-1.641.811.811,0,0,1-.053-.33c-.056-.87.053-3.11.053-3.11l7.674.424,3.729,5.609a7.234,7.234,0,0,1,.675,1.92A1.268,1.268,0,0,1,1004.551,826.653Z" transform="translate(-747.205 -620.639)" opacity="0.1"/>
    <path id="Path_395" data-name="Path 395" d="M1004.6,835.8c-.373.741-2.991.254-3.531.213s-4.356-1.961-4.409-2.41-1.375-1.375-1.745-1.375a9.275,9.275,0,0,1-2.329-1.641.81.81,0,0,1-.053-.33l2.486,1.573a10.492,10.492,0,0,1,2.012,1.616c.424.6,3.762,1.852,4.039,1.877a19.008,19.008,0,0,1,3.595-.223,1.268,1.268,0,0,1-.063.7Z" transform="translate(-747.249 -629.789)" opacity="0.1"/>
    <path id="Path_396" data-name="Path 396" d="M860.654,822.837a4.152,4.152,0,0,1-2.537,1.454,1.494,1.494,0,0,0-1.482,1.428s.254.822-3.255,1.961c-2.118.682-3.45.467-4.226,0a1.887,1.887,0,0,1-.88-1.06c-.238-.845,4.445-7.276,4.445-7.276l4.262-.254,3.044,1.375.467,1.743Z" transform="translate(-639.585 -621.453)" fill="#3f3d56"/>
    <path id="Path_397" data-name="Path 397" d="M860.654,822.837a4.152,4.152,0,0,1-2.537,1.454,1.494,1.494,0,0,0-1.482,1.428s.254.822-3.255,1.961c-2.118.682-3.45.467-4.226,0a1.887,1.887,0,0,1-.88-1.06c-.238-.845,4.445-7.276,4.445-7.276l4.262-.254,3.044,1.375.467,1.743Z" transform="translate(-639.585 -621.453)" opacity="0.1"/>
    <path id="Path_398" data-name="Path 398" d="M863.27,831.979a4.152,4.152,0,0,1-2.537,1.454,1.494,1.494,0,0,0-1.482,1.428s.254.822-3.255,1.961c-2.118.682-3.45.467-4.226,0,2-.208,6.408-1.469,6.85-1.905.53-.53,1.192-1.986,1.641-2.012a17.665,17.665,0,0,0,2.849-1.565Z" transform="translate(-642.2 -630.595)" fill="none"/>
    <path id="Path_399" data-name="Path 399" d="M863.27,831.979a4.152,4.152,0,0,1-2.537,1.454,1.494,1.494,0,0,0-1.482,1.428s.254.822-3.255,1.961c-2.118.682-3.45.467-4.226,0,2-.208,6.408-1.469,6.85-1.905.53-.53,1.192-1.986,1.641-2.012a17.665,17.665,0,0,0,2.849-1.565Z" transform="translate(-642.2 -630.595)" opacity="0.1"/>
    <path id="Path_400" data-name="Path 400" d="M904.167,632.94a7.632,7.632,0,0,0,0,3.387s-7.1.37-8.839-.794-2.963-7.834-2.963-7.834.254-7.831,0-8.2-1.218-2.116-.9-2.486-.254-2.329-.687-3.176a9.507,9.507,0,0,1-.254-3.28l-1.06-6.459-1.639-7.672-1.393-5.135s-1.428-4.181-1.913-5.926-1-.16-1-.16c-.051,1.695-3.968,9.315-3.968,9.315a41.925,41.925,0,0,1-1.218,6.243,54.182,54.182,0,0,0-1.324,7.357s-1.015,11.642-1.852,13.6a30.007,30.007,0,0,0-1.413,4.868s.213,4.024-.317,4.341-.444,2.753-.444,2.753.317,2.326-.9,2.7-1.015,1.164-1.015,1.164-6.773,1.111-7.885-1.854.424-3.755.507-3.968.928-.581.188-1.431.951-3.174.951-3.174.266-3.28.741-3.387.32-4.868.32-4.868l.528-4.975s.69-11.114.53-11.538a7.048,7.048,0,0,1,.477-3.552c.53-1.015.951-10.269.951-10.269s-.107-4.549.317-5.4a15.727,15.727,0,0,0,.421-3.828c.046-1.149.056-2.1.056-2.1l5.926-2.222,7.611-2.433,6.4,3.07,9.369,1.8.117,1.616,1.789,24.686,1.015,9.313s.424,4.391.477,5.185.581,5.982.581,5.982,1.111,2.486.424,3.333a1.607,1.607,0,0,0-.424,1.522S904.644,631.829,904.167,632.94Z" transform="translate(-650.421 -437.457)" fill="#3f3d56"/>
    <path id="Path_401" data-name="Path 401" d="M936.523,351.77a3.938,3.938,0,0,0-.434,2.993,7.443,7.443,0,0,1-9.024-.337h0c-.16-1.076-.345-1.865-.345-1.865S938.268,349.269,936.523,351.77Z" transform="translate(-698.137 -271.986)" opacity="0.1"/>
    <path id="Path_402" data-name="Path 402" d="M932.266,319.9a7.4,7.4,0,1,1-2.167-5.266A7.433,7.433,0,0,1,932.266,319.9Z" transform="translate(-691.181 -243.355)" fill="#c37098"/>
    <path id="Path_403" data-name="Path 403" d="M901.336,350.024,898.9,393.392l-13.23-2.778-2.621-17.385,2.6-23.339,1.953.251,3.445.439,3.412.211,3.7-.411Z" transform="translate(-658.703 -261.125)" opacity="0.1"/>
    <path id="Path_404" data-name="Path 404" d="M901.336,351.282,898.9,394.65l-13.23-2.778-2.621-17.385,2.6-23.337,1.953.249,3.445.439,3.412.211,3.7-.411Z" transform="translate(-658.703 -262.065)" fill="#6c63ff"/>
    <path id="Path_405" data-name="Path 405" d="M939.23,396.3l4.764.16-1.339,1.875s.094,3.788.731,4.873.449,17.86.449,17.86l-1.268,2.407-2.169-2.7.028-22.147Z" transform="translate(-707.473 -305.919)" fill="#3f3d56"/>
    <path id="Path_406" data-name="Path 406" d="M939.23,396.3l4.764.16-1.339,1.875s.094,3.788.731,4.873.449,17.86.449,17.86l-1.268,2.407-2.169-2.7.028-22.147Z" transform="translate(-707.473 -305.919)" opacity="0.1"/>
    <path id="Path_407" data-name="Path 407" d="M928.595,336.86l-4.445,4.922,2.539,2.646,4.209-4.1Z" transform="translate(-689.377 -251.401)" opacity="0.1"/>
    <path id="Path_408" data-name="Path 408" d="M928.595,335.61l-4.445,4.922,2.539,2.646,4.209-4.1Z" transform="translate(-689.377 -250.468)" fill="#6c63ff"/>
    <path id="Path_409" data-name="Path 409" d="M902.264,342.088l-4.5-4.5-.424,2.354,2.065,5.16Z" transform="translate(-669.368 -251.945)" opacity="0.1"/>
    <path id="Path_410" data-name="Path 410" d="M902.892,340.838l-4.5-4.5-.424,2.354,2.065,5.16Z" transform="translate(-669.838 -251.013)" fill="#6c63ff"/>
    <path id="Path_411" data-name="Path 411" d="M917.261,579.064a21.961,21.961,0,0,1-6.85,1.981c-4.366.556-7.222-5-7.222-5l-1.667,2.169c-.53,2.3-8.6,2.884-11.88,2.012a5.25,5.25,0,0,1-1.882-.89c.046-1.149.056-2.1.056-2.1l5.926-2.222,7.611-2.433,6.4,3.07,9.369,1.8Z" transform="translate(-669.06 -437.479)" opacity="0.1"/>
    <path id="Path_412" data-name="Path 412" d="M928.291,391.324l-2.433,43.365-13.232-2.778L910,414.529l2.593-23.339,1.953.254a23.708,23.708,0,0,1-.287,2.537C913.942,395.465,915.9,406,915.9,406s3.722,11.809,5.4,10.107,4.059-10.69,4.059-10.69c1.616-3.333.028-12.684-.091-12.872a3.775,3.775,0,0,1-.152-.85Z" transform="translate(-685.658 -302.105)" opacity="0.1"/>
    <path id="Path_413" data-name="Path 413" d="M998.936,509.5l.112,4.249-1.223,1.109L997,504.57h1.827Z" transform="translate(-750.587 -386.722)" opacity="0.1"/>
    <path id="Path_414" data-name="Path 414" d="M890.8,493.1h0a5.9,5.9,0,0,1-.145,1.015c0-.094,0-.147-.02-.155C890.563,493.94,890.655,493.552,890.8,493.1Z" transform="translate(-671.189 -378.162)" opacity="0.1"/>
    <path id="Path_415" data-name="Path 415" d="M889.714,502.115l-.835,10.279s-1.251-1.134-2.869-2.61l.193-1.821s.682-4.475.931-6.682a4.078,4.078,0,0,0,.436.835Z" transform="translate(-667.754 -384.267)" opacity="0.1"/>
    <path id="Path_416" data-name="Path 416" d="M883.413,375.245s-.791-1.164-1.877,1.083a22.7,22.7,0,0,1-3.805,1.827c-.974.185-4.44,1.4-4.44,1.4a3.064,3.064,0,0,1-1.8.581c-1.086,0-1.986,2.382-1.854,3.678s-.079,2.25-1.083,2.3-.452,2.141-.452,2.141l6.695,7.674s.424,7.065.213,7.278a6.268,6.268,0,0,0-.794,2.354c.185.071-1.015,7.885-1.015,7.885l-1.613,15.163s0,2.537,3.283,3.412,11.358.3,11.878-2.007l1.667-2.172s2.857,5.558,7.222,5a21,21,0,0,0,7.146-2.144l-.477-18.172-.317-13.1,6.817-11.2s-1.827-3.493-1.667-5.074.474-2.778-3.415-3.333a14.933,14.933,0,0,1-5.213-1.827,14.9,14.9,0,0,0-3.729-1.877s-1.091-2.029-1.849-1.334a24.946,24.946,0,0,1,.7,3.3,10.913,10.913,0,0,0,.238,2.567c.119.2,1.707,9.539.091,12.872,0,0-2.372,8.988-4.059,10.69s-5.4-10.107-5.4-10.107-1.958-10.533-1.641-12.015S883.413,375.245,883.413,375.245Z" transform="translate(-654.277 -289.76)" fill="#3f3d56"/>
    <circle id="Ellipse_38" data-name="Ellipse 38" cx="1.164" cy="1.164" r="1.164" transform="translate(233.634 117.848)" fill="#3f3d56"/>
    <circle id="Ellipse_39" data-name="Ellipse 39" cx="1.164" cy="1.164" r="1.164" transform="translate(233.634 123.337)" fill="#3f3d56"/>
    <circle id="Ellipse_40" data-name="Ellipse 40" cx="1.164" cy="1.164" r="1.164" transform="translate(233.634 117.848)" opacity="0.1"/>
    <circle id="Ellipse_41" data-name="Ellipse 41" cx="1.164" cy="1.164" r="1.164" transform="translate(233.634 123.337)" opacity="0.1"/>
    <path id="Path_417" data-name="Path 417" d="M992.47,804.34s4.779.37,5.254.741S992.47,804.34,992.47,804.34Z" transform="translate(-747.207 -610.445)" stroke="#6c63ff" stroke-miterlimit="10" stroke-width="1" opacity="0.1"/>
    <path id="Path_418" data-name="Path 418" d="M880.3,789.53s1.015,1.268.583,1.852S880.3,789.53,880.3,789.53Z" transform="translate(-663.493 -599.392)" stroke="#6c63ff" stroke-miterlimit="10" stroke-width="1" opacity="0.1"/>
    <path id="Path_419" data-name="Path 419" d="M885.1,805.542s1.852-1.218,2.593-.408S885.1,805.542,885.1,805.542Z" transform="translate(-667.075 -610.83)" stroke="#6c63ff" stroke-miterlimit="10" stroke-width="1" opacity="0.1"/>
    <path id="Path_420" data-name="Path 420" d="M932.28,319.91a7.4,7.4,0,0,1-.238,1.88.845.845,0,0,1-.492-.827c.033-.3.233-.578.19-.878-.063-.462-.621-.649-.916-1.015a2.361,2.361,0,0,1-.254-1.654c.031-.571-.114-1.268-.649-1.464-.16-.058-.335-.063-.49-.129-.421-.178-.551-.7-.832-1.06a2.192,2.192,0,0,0-2.537-.365,12.07,12.07,0,0,1-1.142.477,1.492,1.492,0,0,1-1.195-.089c-.167-.107-.3-.254-.474-.36a1.638,1.638,0,0,0-1.821.444,6.3,6.3,0,0,1-1.522,1.312c-.282.127-.629.2-.761.477a1,1,0,0,0-.081.474,14.183,14.183,0,0,1-.089,2.955c-.132.622-.568,1.327-1.2,1.251a1.183,1.183,0,0,1-.231-.058,7.433,7.433,0,1,1,14.739-1.375Z" transform="translate(-691.195 -243.363)" opacity="0.1"/>
    <path id="Path_421" data-name="Path 421" d="M908.495,305.59c.19.043.37.142.566.167.632.076,1.068-.629,1.2-1.251a13.684,13.684,0,0,0,.091-2.955.966.966,0,0,1,.079-.474c.145-.274.492-.35.761-.477a6.571,6.571,0,0,0,1.522-1.312,1.621,1.621,0,0,1,1.819-.444c.17.1.307.254.474.36a1.522,1.522,0,0,0,1.2.089c.393-.117.761-.322,1.139-.477a2.2,2.2,0,0,1,2.537.363c.282.363.411.883.832,1.06.155.066.33.074.49.132.535.2.672.893.649,1.464a2.46,2.46,0,0,0,.254,1.654c.294.36.852.548.916,1.015.041.3-.157.578-.19.878a.842.842,0,0,0,.794.9c.66,0,1.068-.738,1.684-.974a2,2,0,0,0,.761-.315.84.84,0,0,0,.157-.687c-.124-.972-.9-1.816-.819-2.791.079-.934.944-1.748.761-2.666a2.16,2.16,0,0,0-.507-.906,2.933,2.933,0,0,0-1.035-.875,10.648,10.648,0,0,1-1.083-.373c-.959-.525-.956-1.9-1.522-2.829a2.483,2.483,0,0,0-2.314-1.152c-.713.071-1.36.449-2.065.576a5.353,5.353,0,0,1-2.862-.507,7.825,7.825,0,0,0-2.823-.761,2.408,2.408,0,0,0-2.344,1.436c-.157.507-.079,1.05-.2,1.56a3.406,3.406,0,0,1-1.822,2c-.556.309-1.223.665-1.289,1.3a2.672,2.672,0,0,0,.317,1.149,2.925,2.925,0,0,1-.015,2.03c-.185.479-.495.9-.682,1.378a2.474,2.474,0,0,0,.066,2.029,1.892,1.892,0,0,0,1.159.951C907.647,305.968,907.962,305.473,908.495,305.59Z" transform="translate(-682.476 -228.094)" fill="#3f3d56"/>
    <g id="Group_10" data-name="Group 10" transform="translate(223.259 69.941)" opacity="0.1">
      <path id="Path_422" data-name="Path 422" d="M910.258,335.56c-.132.622-.571,1.327-1.2,1.251-.2-.025-.373-.124-.566-.167-.53-.117-.845.381-1.345.254a1.9,1.9,0,0,1-1.162-.951,2.2,2.2,0,0,1-.236-.83,2.316,2.316,0,0,0,.236,1.307,1.9,1.9,0,0,0,1.162.951c.507.117.814-.381,1.345-.254a5.74,5.74,0,0,0,.566.165c.632.079,1.071-.627,1.2-1.248a7.327,7.327,0,0,0,.122-1.667A6.242,6.242,0,0,1,910.258,335.56Z" transform="translate(-905.733 -329.641)"/>
      <path id="Path_423" data-name="Path 423" d="M908.429,318.037a2.92,2.92,0,0,0-.167-1.225,6.489,6.489,0,0,1-.292-.8,1.165,1.165,0,0,0-.025.129,2.719,2.719,0,0,0,.317,1.149A2.907,2.907,0,0,1,908.429,318.037Z" transform="translate(-907.379 -315.938)"/>
      <path id="Path_424" data-name="Path 424" d="M984,318.73c-.119.72-.7,1.4-.761,2.156a1.81,1.81,0,0,0,0,.391C983.366,320.392,984.15,319.608,984,318.73Z" transform="translate(-963.569 -317.968)"/>
      <path id="Path_425" data-name="Path 425" d="M976.472,339.83a.6.6,0,0,1-.145.284c-.188.2-.507.216-.761.315-.616.236-1.015.982-1.684.974a.85.85,0,0,1-.761-.589,1.317,1.317,0,0,0-.036.167.842.842,0,0,0,.794.9c.662,0,1.068-.738,1.684-.972.254-.1.563-.114.761-.315a.84.84,0,0,0,.157-.687C976.479,339.873,976.474,339.853,976.472,339.83Z" transform="translate(-955.997 -333.715)"/>
      <path id="Path_426" data-name="Path 426" d="M970.365,333.567c-.063-.462-.622-.649-.916-1.015a1.39,1.39,0,0,1-.279-.832,1.873,1.873,0,0,0,.279,1.309c.292.355.736.507.878.873A.813.813,0,0,0,970.365,333.567Z" transform="translate(-953.072 -327.663)"/>
      <path id="Path_427" data-name="Path 427" d="M935.366,318.975c.02-.571-.117-1.268-.652-1.464-.157-.058-.332-.066-.487-.129-.421-.178-.553-.7-.832-1.06a2.2,2.2,0,0,0-2.537-.365c-.381.155-.743.36-1.139.477a1.492,1.492,0,0,1-1.195-.089c-.167-.107-.3-.254-.474-.36a1.636,1.636,0,0,0-1.821.444,6.305,6.305,0,0,1-1.522,1.312c-.284.127-.629.2-.776.477a1,1,0,0,0-.079.474v.3a.721.721,0,0,1,.074-.294c.147-.274.492-.35.776-.477a6.569,6.569,0,0,0,1.522-1.312,1.624,1.624,0,0,1,1.821-.444c.17.1.307.254.474.358a1.482,1.482,0,0,0,1.195.089,11.732,11.732,0,0,0,1.139-.474,2.2,2.2,0,0,1,2.537.363c.279.36.411.883.832,1.06.155.066.33.074.487.132a1.218,1.218,0,0,1,.644,1.131Z" transform="translate(-919.252 -315.727)"/>
    </g>
    <g id="Group_11" data-name="Group 11" transform="translate(226.878 73.852)" opacity="0.1">
      <path id="Path_428" data-name="Path 428" d="M920,333.137a1.946,1.946,0,0,1,1.466-1.819,6.089,6.089,0,0,1,3.42.155c2.407.8-.3,3.663-.3,3.663s-1.8,1.776-3.486.535a2.636,2.636,0,0,1-.982-1.522A3.882,3.882,0,0,1,920,333.137Z" transform="translate(-919.997 -331.144)"/>
      <path id="Path_429" data-name="Path 429" d="M954.865,333.138a1.946,1.946,0,0,0-1.469-1.819,6.089,6.089,0,0,0-3.417.155c-2.408.8.3,3.663.3,3.663s1.8,1.776,3.486.535a2.636,2.636,0,0,0,.982-1.522A3.879,3.879,0,0,0,954.865,333.138Z" transform="translate(-941.629 -331.145)"/>
      <path id="Path_430" data-name="Path 430" d="M910.5,291.413v.119h4.4v-.142Z" transform="translate(-906.067 -291.317)"/>
      <path id="Path_431" data-name="Path 431" d="M942.642,334.475h.14v-.4a1.155,1.155,0,0,1,1.187,0v.36h.254V334.2H944.1s.051-.49-.776-.411c0,0-.665-.063-.649.358h-.152Z" transform="translate(-936.806 -333.108)"/>
    </g>
    <path id="Path_432" data-name="Path 432" d="M920,332.491a1.946,1.946,0,0,1,1.466-1.819,6.122,6.122,0,0,1,3.42.155c2.407.8-.3,3.663-.3,3.663s-1.8,1.776-3.486.535a2.621,2.621,0,0,1-.982-1.522A3.866,3.866,0,0,1,920,332.491Z" transform="translate(-693.119 -256.811)" fill="#6c63ff"/>
    <path id="Path_433" data-name="Path 433" d="M954.865,332.49a1.946,1.946,0,0,0-1.469-1.819,6.111,6.111,0,0,0-3.417.155c-2.408.8.3,3.663.3,3.663s1.8,1.776,3.486.535a2.621,2.621,0,0,0,.982-1.522A3.853,3.853,0,0,0,954.865,332.49Z" transform="translate(-714.751 -256.811)" fill="#6c63ff"/>
    <path id="Path_434" data-name="Path 434" d="M910.5,290.783v.122h4.4v-.145Z" transform="translate(-679.189 -216.996)" fill="#6c63ff"/>
    <path id="Path_435" data-name="Path 435" d="M942.642,333.846h.14v-.4a1.162,1.162,0,0,1,1.187,0v.363h.254v-.238H944.1s.051-.487-.776-.411c0,0-.665-.061-.649.358h-.152Z" transform="translate(-709.928 -258.788)" fill="#6c63ff"/>
    <rect id="Rectangle_189" data-name="Rectangle 189" width="1.441" height="32.447" transform="translate(30.126 115.986)" fill="#535461"/>
    <path id="Path_436" data-name="Path 436" d="M128.273,618.3l-.091,1.461-.127,2.062-.053.86-.127,2.065-.056.86-.127,2.063-1.454,23.458a3.973,3.973,0,0,1-3.965,3.729h-7.555a3.97,3.97,0,0,1-3.963-3.729l-1.461-23.459-.127-2.062-.053-.86-.124-2.07-.053-.86-.127-2.062-.091-1.461a2.057,2.057,0,0,1,2.055-2.184H126.22a2.055,2.055,0,0,1,2.052,2.189Z" transform="translate(-87.649 -469.966)" fill="#3f3d56"/>
    <path id="Path_437" data-name="Path 437" d="M101.484,590.46l-.127,2.062H82.237l-.127-2.062Z" transform="translate(-60.951 -440.666)" fill="#9d9cb5"/>
    <path id="Path_438" data-name="Path 438" d="M101.834,601.98l-.127,2.065H82.949l-.129-2.065Z" transform="translate(-61.481 -449.263)" fill="#9d9cb5"/>
    <path id="Path_439" data-name="Path 439" d="M102.189,613.51l-.127,2.062H83.669l-.129-2.062Z" transform="translate(-62.019 -457.868)" fill="#9d9cb5"/>
    <path id="Path_440" data-name="Path 440" d="M45.929,526.288c8.392,6.071,11.888,15.569,11.888,15.569A37.465,37.465,0,0,1,39.3,535.439,37.276,37.276,0,0,1,27.41,519.87S37.535,520.218,45.929,526.288Z" transform="translate(-26.97 -398.141)" fill="#6c63ff"/>
    <path id="Path_441" data-name="Path 441" d="M27.46,519.87s10.5,5.835,13.864,10.655,16.53,11.335,16.53,11.335" transform="translate(-27.007 -398.141)" fill="none" stroke="#535461" stroke-miterlimit="10" stroke-width="2"/>
    <path id="Path_442" data-name="Path 442" d="M92.131,486.723A20.342,20.342,0,0,1,98.6,495.2,18.489,18.489,0,0,1,82.06,483.23,20.187,20.187,0,0,1,92.131,486.723Z" transform="translate(-67.756 -370.796)" fill="#6c63ff"/>
    <path id="Path_443" data-name="Path 443" d="M82.06,483.18s5.713,3.171,7.545,5.8,9,6.17,9,6.17" transform="translate(-67.756 -370.759)" fill="none" stroke="#535461" stroke-miterlimit="10" stroke-width="2"/>
    <path id="Path_444" data-name="Path 444" d="M154.737,507.013a28.125,28.125,0,0,0-6.357,13.3,25.568,25.568,0,0,0,19-20.883A28.129,28.129,0,0,0,154.737,507.013Z" transform="translate(-117.251 -382.886)" fill="#6c63ff"/>
    <path id="Path_445" data-name="Path 445" d="M167.381,499.43s-6.834,5.911-8.572,9.985-10.429,10.909-10.429,10.909" transform="translate(-117.251 -382.886)" fill="none" stroke="#535461" stroke-miterlimit="10" stroke-width="2"/>
  </g>
</svg>
