<svg xmlns="http://www.w3.org/2000/svg" width="92.934" height="68.067" viewBox="0 0 92.934 68.067"><g transform="translate(-2529.067 657.568)"><path d="M92.023,82.8a1.361,1.361,0,0,0-1.288-1.259c-3-.154-6.4-.3-10.12-.432-.257-6.15-.565-10.372-.57-10.444a1.361,1.361,0,0,0-1.288-1.259c-3.056-.157-6.215-.3-9.388-.413a1.361,1.361,0,1,0-.1,2.721c2.744.1,5.477.219,8.142.35.074,1.134.19,3.021.312,5.434-34.471-1.685-67.185-.343-74.491,0,.122-2.414.238-4.3.312-5.436,5.609-.275,30.157-1.344,58.895-.567a1.361,1.361,0,1,0,.074-2.722c-32.722-.884-60.048.616-60.321.631A1.361,1.361,0,0,0,.911,70.668C.9,70.791,0,83.129,0,96.463s.9,25.672.911,25.795a1.361,1.361,0,0,0,1.281,1.259c.115.007,3.84.21,10.125.423.256,6.149.569,10.407.572,10.453a1.361,1.361,0,0,0,1.281,1.259c.026,0,2.681.149,7.238.323h.053a1.361,1.361,0,0,0,.051-2.722c-2.746-.1-4.8-.2-5.99-.259-.108-1.644-.3-4.868-.477-8.967,6.777.206,15.841.4,26.223.4,11.342,0,24.26-.227,37.488-.906a1.362,1.362,0,0,0,1.288-1.259c.009-.123.911-12.461.911-25.795,0-4.459-.1-8.806-.235-12.623,3.136.112,6.041.234,8.67.362.223,3.4.822,13.564.822,24.4,0,3.456-.061,7.148-.181,10.975a1.361,1.361,0,0,0,1.318,1.4h.043a1.361,1.361,0,0,0,1.36-1.319c.121-3.855.182-7.576.182-11.06,0-13.334-.9-25.671-.911-25.794ZM77.411,120.858c-34.882,1.722-67.311.321-73.866,0-.223-3.4-.822-13.564-.822-24.4,0-1.371.01-2.731.027-4.068,2.775-.131,9.917-.439,19.659-.643a1.361,1.361,0,0,0-.057-2.722c-9.569.2-16.645.5-19.556.638.071-3.442.186-6.663.308-9.432,6.717-.321,39.863-1.721,74.749,0,.122,2.769.237,5.99.308,9.431-14.935-.732-31.256-.987-48.539-.76a1.361,1.361,0,0,0,.036,2.722c17.3-.228,33.621.03,48.549.766.017,1.338.027,2.7.027,4.069,0,10.828-.6,20.995-.822,24.4Z" transform="translate(2529.067 -726.067)" fill="#304d6d"/><path d="M211.131,381.874a1.358,1.358,0,0,0-1.426,1.294c-.137,2.827-.273,5.045-.357,6.317-23.949,1.184-46.545.918-61.385.48a1.361,1.361,0,1,0-.08,2.721c6.94.2,15.568.372,25.241.372,11.427,0,24.31-.234,37.57-.915a1.362,1.362,0,0,0,1.288-1.259c0-.03.223-3.023.443-7.585a1.361,1.361,0,0,0-1.294-1.425Z" transform="translate(2409.108 -982.559)" fill="#304d6d"/><path d="M231.241,251.332H221.2a1.361,1.361,0,1,0,0,2.723h10.039a1.361,1.361,0,0,0,0-2.723Z" transform="translate(2349.13 -875.714)" fill="#304d6d"/><path d="M231.241,292.332H221.2a1.361,1.361,0,1,0,0,2.723h10.039a1.361,1.361,0,0,0,0-2.723Z" transform="translate(2349.13 -909.272)" fill="#304d6d"/><path d="M322.241,251.332H312.2a1.361,1.361,0,0,0,0,2.723h10.039a1.361,1.361,0,1,0,0-2.723Z" transform="translate(2274.647 -875.714)" fill="#304d6d"/><path d="M322.241,292.332H312.2a1.361,1.361,0,0,0,0,2.723h10.039a1.361,1.361,0,1,0,0-2.723Z" transform="translate(2274.647 -909.272)" fill="#304d6d"/><path d="M60.32,253.28a7.428,7.428,0,1,1,7.428-7.428A7.436,7.436,0,0,1,60.32,253.28Zm0-12.133a4.7,4.7,0,1,0,4.7,4.7A4.71,4.71,0,0,0,60.32,241.148Z" transform="translate(2485.775 -865.149)" fill="#304d6d"/></g></svg>