<svg xmlns="http://www.w3.org/2000/svg" width="54.015" height="54.015" viewBox="0 0 54.015 54.015"><g transform="translate(-2936.731 -1259.731)"><path d="M15.331,221.409A15.328,15.328,0,1,0,28.2,245.066a.791.791,0,0,0-1.328-.861,13.92,13.92,0,0,1-1.279,1.677l-2.755-2.754a9.822,9.822,0,0,0,2.325-5.6h3.887a13.694,13.694,0,0,1-.646,3.463.791.791,0,0,0,1.5.489,15.339,15.339,0,0,0-14.583-20.072Zm7.512,8.937,2.749-2.748a13.689,13.689,0,0,1,3.465,8.348H25.168A9.823,9.823,0,0,0,22.843,230.346Zm-1.119,13.9L24.479,247a13.69,13.69,0,0,1-8.356,3.458v-3.888A9.826,9.826,0,0,0,21.723,244.247ZM14.54,250.46A13.694,13.694,0,0,1,6.19,247l2.749-2.748a9.827,9.827,0,0,0,5.6,2.325v3.888Zm-9.469-4.583a13.689,13.689,0,0,1-3.465-8.348H5.495a9.823,9.823,0,0,0,2.325,5.6Zm.424-9.93H1.606A13.689,13.689,0,0,1,5.071,227.6l2.749,2.748A9.822,9.822,0,0,0,5.495,235.946Zm3.444-6.719L6.19,226.479a13.694,13.694,0,0,1,8.35-3.464V226.9A9.827,9.827,0,0,0,8.939,229.227Zm7.184-6.212a13.694,13.694,0,0,1,8.35,3.464l-2.749,2.748a9.827,9.827,0,0,0-5.6-2.325Zm-.791,22.007a8.284,8.284,0,1,1,8.286-8.284,8.294,8.294,0,0,1-8.286,8.284Z" transform="translate(2936.731 1061.68)" fill="#304d6d"/><path d="M265.044,55.81a.791.791,0,0,0-1.475.573,10.96,10.96,0,1,0-.739-3.963.791.791,0,1,0,1.582,0,9.351,9.351,0,1,1,.632,3.39Z" transform="translate(2701.629 1222.64)" fill="#304d6d"/><path d="M236.687,30.657a15.329,15.329,0,0,0,12.434-24.3.791.791,0,0,0-1.283.927,13.754,13.754,0,1,1-2.377-2.541.791.791,0,0,0,1.01-1.218,15.33,15.33,0,1,0-9.784,27.129Z" transform="translate(2738.728 1259.731)" fill="#304d6d"/><path d="M330.643,317.124a.791.791,0,0,0-1.119,0l-2.815,2.814a.791.791,0,0,0,1.119,1.119l1.464-1.464v7a3.381,3.381,0,0,1-3.378,3.377h-8.559a.791.791,0,1,0,0,1.582h8.559a4.966,4.966,0,0,0,4.96-4.96v-7l1.464,1.464a.791.791,0,1,0,1.119-1.119Z" transform="translate(2653.564 976.27)" fill="#304d6d"/><path d="M36.374,68.154a.791.791,0,0,0,1.119,0l2.815-2.814a.791.791,0,1,0-1.119-1.119l-1.464,1.464v-7A3.381,3.381,0,0,1,41.1,55.306h8.559a.791.791,0,1,0,0-1.582H41.1a4.966,4.966,0,0,0-4.96,4.96v7L34.678,64.22a.791.791,0,1,0-1.119,1.119Z" transform="translate(2906.919 1211.675)" fill="#304d6d"/><path d="M339.927,87.417a1.574,1.574,0,0,1-1.573-1.572.791.791,0,1,0-1.582,0,3.16,3.16,0,0,0,2.364,3.054V89.98a.791.791,0,1,0,1.582,0V88.9a3.155,3.155,0,0,0-.791-6.209,1.572,1.572,0,1,1,1.573-1.572.791.791,0,1,0,1.582,0,3.16,3.16,0,0,0-2.364-3.054V76.982a.791.791,0,1,0-1.582,0v1.082a3.155,3.155,0,0,0,.791,6.209,1.572,1.572,0,1,1,0,3.144Z" transform="translate(2635.488 1191.578)" fill="#304d6d"/><path d="M104.788,321.4a4.752,4.752,0,0,0-2.744.865.791.791,0,1,0,.909,1.3,3.2,3.2,0,1,1-1.363,2.619.791.791,0,1,0-1.582,0,4.781,4.781,0,1,0,4.781-4.78Z" transform="translate(2847.275 972.241)" fill="#304d6d"/></g></svg>