<svg xmlns="http://www.w3.org/2000/svg" width="71.22" height="62.276" viewBox="0 0 71.22 62.276"><g transform="translate(-400.292 -3841.102)"><path d="M70.643,56.658a1.043,1.043,0,0,0-.9-.9c-1.6-.2-3.183-.343-4.721-.434-.731-10.455-2.309-14.5-2.378-14.675a1.043,1.043,0,0,0-.881-.652c-.037,0-1.008-.084-2.673-.2-.084-2.281-.165-4.174-.247-5.767a1.043,1.043,0,0,0-.965-.987c-.061,0-6.241-.458-14.459-.714a1.043,1.043,0,1,0-.065,2.085c1.382.043,2.7.092,3.951.143a9.08,9.08,0,0,0,1.914,4.654c-4.9-.235-10.727-.432-16.525-.432-5.92,0-11.872.205-16.835.447a9.079,9.079,0,0,0,1.924-4.655c4.273-.178,9.508-.331,14.911-.331,1.647,0,3.366.014,5.108.042a1.043,1.043,0,0,0,.034-2.086c-1.753-.028-3.483-.043-5.141-.043-13.019,0-25.064.881-25.184.89a1.043,1.043,0,0,0-.965.987c-.082,1.593-.163,3.486-.247,5.767-1.664.119-2.636.2-2.673.2a1.043,1.043,0,0,0-.881.652C2.629,40.926,0,47.717,0,66.6S2.629,92.272,2.741,92.552a1.043,1.043,0,0,0,.881.652c.11.009,11.157.928,23.452,1.164h.02a1.043,1.043,0,0,0,.02-2.086c-10.478-.2-20.044-.9-22.633-1.1A43.435,43.435,0,0,1,3.234,85.16c4.062.305,16.865,1.185,29.457,1.185s25.4-.88,29.461-1.185a42.818,42.818,0,0,1-1.242,6.019c-3.022.235-15.695,1.159-28.219,1.159a1.043,1.043,0,1,0,0,2.087c14.368,0,28.923-1.208,29.069-1.22a1.043,1.043,0,0,0,.881-.652c.069-.172,1.649-4.225,2.379-14.694,2.764-.163,4.555-.393,4.724-.415a1.043,1.043,0,0,0,.9-.9,86.892,86.892,0,0,0,0-19.886ZM49.42,34.644c3.435.159,6.07.323,7.382.411.063,1.325.127,2.842.192,4.593-1.312-.086-2.851-.182-4.562-.276a7.021,7.021,0,0,1-3.013-4.728Zm-40.84.411c1.272-.085,3.79-.242,7.082-.4a7.022,7.022,0,0,1-3.037,4.731c-1.581.089-3.009.177-4.237.258.065-1.751.129-3.268.192-4.593Zm60.086,40.41a87.221,87.221,0,0,1-17.736,0c-.161-1.415-.281-2.9-.357-4.418a1.043,1.043,0,0,0-2.084.1c.093,1.866.251,3.677.468,5.383a1.043,1.043,0,0,0,.9.9,77.32,77.32,0,0,0,9.678.577c1.2,0,2.337-.024,3.384-.062-.136,1.885-.3,3.58-.486,5.088-3.446.264-16.712,1.212-29.744,1.212S6.4,83.31,2.95,83.046A137.462,137.462,0,0,1,2.086,66.6a137.877,137.877,0,0,1,.852-16.352c1.347-.1,4.207-.314,7.946-.528a1.043,1.043,0,0,0-.119-2.083c-3.385.194-6.057.385-7.545.5a43.725,43.725,0,0,1,1.261-6.114c3.039-.236,15.7-1.158,28.209-1.158s25.172.922,28.21,1.158a43.489,43.489,0,0,1,1.265,6.115c-4.041-.3-16.864-1.186-29.475-1.186-5.032,0-10.6.138-16.562.411a1.043,1.043,0,0,0,.1,2.084c5.927-.271,11.467-.409,16.467-.409,13.049,0,26.332.95,29.757,1.213.175,1.454.337,3.109.472,4.978a88.061,88.061,0,0,0-13.065.531,1.043,1.043,0,0,0-.9.9,85,85,0,0,0-.568,9.308,1.043,1.043,0,0,0,1.033,1.054h.011a1.043,1.043,0,0,0,1.043-1.033c.039-3.8.312-6.862.458-8.251a87.321,87.321,0,0,1,17.737-.005,87.359,87.359,0,0,1-.005,17.738Z" transform="translate(400.292 3808.954)" fill="#304d6d"/><path d="M397.2,241.826a5.284,5.284,0,1,0,5.284,5.284A5.29,5.29,0,0,0,397.2,241.826Zm0,8.482a3.2,3.2,0,1,1,3.2-3.2A3.2,3.2,0,0,1,397.2,250.308Z" transform="translate(62.892 3628.442)" fill="#304d6d"/><path d="M199.748,194.714a3.612,3.612,0,1,1,3.5-4.518,1.043,1.043,0,0,0,2.02-.521,5.7,5.7,0,0,0-4.475-4.176v-1.552a1.043,1.043,0,1,0-2.087,0V185.5a5.7,5.7,0,0,0,1.043,11.3,3.612,3.612,0,1,1-3.442,4.712,1.043,1.043,0,1,0-1.988.634,5.676,5.676,0,0,0,4.386,3.87v1.551a1.043,1.043,0,1,0,2.087,0v-1.552a5.7,5.7,0,0,0-1.043-11.3Z" transform="translate(233.235 3679.168)" fill="#304d6d"/></g></svg>